<svg width="745" height="134" viewBox="0 0 745 134" fill="none" xmlns="http://www.w3.org/2000/svg">
<path d="M46.16 73.7415L44.136 82.0215H66.216L64.192 73.7415C62.72 67.9762 61.248 61.7202 59.776 54.9735C58.304 48.2268 56.832 41.8482 55.36 35.8375H54.624C53.3973 41.8482 52.048 48.2268 50.576 54.9735C49.104 61.7202 47.632 67.9762 46.16 73.7415ZM0.16 131.885L36.592 12.2855H74.864L111.296 131.885H77.808L71.92 106.493H38.432L32.544 131.885H0.16ZM122.701 131.885V12.2855H158.029C170.173 12.2855 180.845 14.3095 190.045 18.3575C199.368 22.2828 206.605 28.6002 211.757 37.3095C216.909 46.0188 219.485 57.4268 219.485 71.5335C219.485 85.6402 216.909 97.1708 211.757 106.125C206.605 114.957 199.552 121.459 190.597 125.629C181.642 129.8 171.4 131.885 159.869 131.885H122.701ZM154.349 106.493H156.189C161.954 106.493 167.168 105.512 171.829 103.549C176.49 101.587 180.17 98.0908 182.869 93.0615C185.69 88.0322 187.101 80.8562 187.101 71.5335C187.101 62.2108 185.69 55.1575 182.869 50.3735C180.17 45.4668 176.49 42.1548 171.829 40.4375C167.168 38.5975 161.954 37.6775 156.189 37.6775H154.349V106.493ZM348.209 131.885V12.2855H392.001C400.71 12.2855 408.745 13.5122 416.105 15.9655C423.465 18.4188 429.353 22.5282 433.769 28.2935C438.308 34.0588 440.577 41.9708 440.577 52.0295C440.577 61.7202 438.308 69.6935 433.769 75.9495C429.353 82.0828 423.465 86.6215 416.105 89.5655C408.868 92.5095 401.078 93.9815 392.737 93.9815H379.857V131.885H348.209ZM379.857 68.9575H391.265C397.521 68.9575 402.121 67.4855 405.065 64.5415C408.132 61.4748 409.665 57.3042 409.665 52.0295C409.665 46.6322 408.009 42.8295 404.697 40.6215C401.385 38.4135 396.662 37.3095 390.529 37.3095H379.857V68.9575ZM481.173 131.885V38.7815H449.525V12.2855H544.469V38.7815H512.821V131.885H481.173Z" fill="white"/>
<path d="M276.649 14.8855L219 133.115H334.298L276.649 14.8855Z" fill="white"/>
</svg>
