<svg width="549" height="231" viewBox="0 0 549 231" fill="none" xmlns="http://www.w3.org/2000/svg">
<path d="M46.16 122.856L44.136 131.136H66.216L64.192 122.856C61.248 111.448 58.304 96.912 55.36 84.952H54.624C52.048 97.096 49.104 111.448 46.16 122.856ZM0.16 181L36.592 61.4H74.864L111.296 181H77.808L71.92 155.608H38.432L32.544 181H0.16ZM122.701 181V61.4H158.029C194.461 61.4 219.485 78.328 219.485 120.648C219.485 162.968 194.461 181 159.869 181H122.701ZM154.349 155.608H156.189C173.485 155.608 187.101 148.616 187.101 120.648C187.101 92.68 173.485 86.792 156.189 86.792H154.349V155.608ZM348.209 181V61.4H392.001C418.129 61.4 440.577 70.968 440.577 101.144C440.577 130.4 417.761 143.096 392.737 143.096H379.857V181H348.209ZM379.857 118.072H391.265C403.777 118.072 409.665 111.816 409.665 101.144C409.665 90.472 402.673 86.424 390.529 86.424H379.857V118.072ZM481.173 181V87.896H449.525V61.4H544.469V87.896H512.821V181H481.173Z" fill="white"/>
<path d="M276.649 63L219 181.229H334.298L276.649 63Z" fill="white"/>
</svg>
