<svg width="662" height="165" viewBox="0 0 662 165" fill="none" xmlns="http://www.w3.org/2000/svg">
<path d="M13.248 148V28.4H48.576C85.008 28.4 110.032 45.328 110.032 87.648C110.032 129.968 85.008 148 50.416 148H13.248ZM44.896 122.608H46.736C64.032 122.608 77.648 115.616 77.648 87.648C77.648 59.68 64.032 53.792 46.736 53.792H44.896V122.608ZM138.663 148V28.4H215.943V54.896H170.311V73.664H209.319V100.16H170.311V121.504H217.783V148H138.663ZM286.169 150.208C271.081 150.208 253.785 144.688 240.905 133.096L258.937 111.384C267.401 118.192 278.073 122.976 286.905 122.976C296.473 122.976 300.521 119.848 300.521 114.512C300.521 108.808 294.449 106.968 284.329 102.92L269.425 96.664C256.545 91.512 245.321 80.656 245.321 63.36C245.321 42.936 263.721 26.192 289.849 26.192C303.465 26.192 318.553 31.344 329.593 42.2L313.769 62.072C305.673 56.368 298.681 53.424 289.849 53.424C282.121 53.424 277.337 56.184 277.337 61.52C277.337 67.224 284.145 69.248 295.001 73.48L309.537 79.184C324.441 85.072 332.905 95.376 332.905 111.936C332.905 132.176 315.977 150.208 286.169 150.208ZM480.263 150.208C446.775 150.208 419.911 129.968 419.911 89.12C419.911 49.008 447.511 26.192 479.527 26.192C497.191 26.192 510.071 33.552 518.535 42.016L501.975 62.256C496.087 57.104 490.199 53.424 480.631 53.424C464.439 53.424 452.295 66.304 452.295 88.016C452.295 110.464 462.231 122.976 483.575 122.976C486.887 122.976 490.567 122.24 492.775 120.768V104.208H475.111V78.448H520.743V135.488C512.279 143.584 497.191 150.208 480.263 150.208ZM551.376 148V28.4H583.76L610.256 81.76L621.664 108.624H622.4C620.928 95.744 618.352 77.712 618.352 62.992V28.4H648.528V148H616.144L589.648 94.456L578.24 67.776H577.504C578.976 81.392 581.552 98.688 581.552 113.408V148H551.376Z" fill="#1A196F"/>
<rect x="359" y="29" width="30" height="30" fill="#1A196F"/>
</svg>
