<svg width="1146" height="165" viewBox="0 0 1146 165" fill="none" xmlns="http://www.w3.org/2000/svg">
<path d="M13.248 148V28.4H90.528V54.896H44.896V73.664H83.904V100.16H44.896V121.504H92.368V148H13.248ZM104.082 148L136.466 86.544L105.922 28.4H141.25L149.346 47.904C150.696 50.6027 152.045 53.608 153.394 56.92C154.744 60.232 156.216 63.8507 157.81 67.776H158.546C159.896 63.8507 161.184 60.232 162.41 56.92C163.637 53.608 164.802 50.6027 165.906 47.904L172.898 28.4H206.754L176.21 88.016L208.594 148H173.266L163.698 126.656C162.226 123.467 160.816 120.277 159.466 117.088C158.117 113.899 156.706 110.464 155.234 106.784H154.498C153.272 110.464 151.984 113.899 150.634 117.088C149.408 120.277 148.12 123.467 146.77 126.656L137.938 148H104.082ZM223.662 148V28.4H267.454C276.163 28.4 284.198 29.6267 291.558 32.08C298.918 34.5333 304.806 38.6427 309.222 44.408C313.761 50.1733 316.03 58.0853 316.03 68.144C316.03 77.8347 313.761 85.808 309.222 92.064C304.806 98.1973 298.918 102.736 291.558 105.68C284.321 108.624 276.531 110.096 268.19 110.096H255.31V148H223.662ZM255.31 85.072H266.718C272.974 85.072 277.574 83.6 280.518 80.656C283.585 77.5893 285.118 73.4187 285.118 68.144C285.118 62.7467 283.462 58.944 280.15 56.736C276.838 54.528 272.115 53.424 265.982 53.424H255.31V85.072ZM335.607 148V28.4H412.887V54.896H367.255V73.664H406.263V100.16H367.255V121.504H414.727V148H335.607ZM437.85 148V28.4H483.114C491.7 28.4 499.612 29.5653 506.85 31.896C514.087 34.104 519.914 38.0293 524.33 43.672C528.746 49.3147 530.954 57.104 530.954 67.04C530.954 75.6267 529.175 82.7413 525.618 88.384C522.06 94.0267 517.399 98.4427 511.634 101.632L537.578 148H502.25L481.642 107.888H469.498V148H437.85ZM469.498 82.864H480.906C493.663 82.864 500.042 77.5893 500.042 67.04C500.042 61.888 498.386 58.3307 495.074 56.368C491.884 54.4053 487.162 53.424 480.906 53.424H469.498V82.864ZM611.967 148V28.4H689.247V54.896H643.615V73.664H682.623V100.16H643.615V121.504H691.087V148H611.967ZM714.209 148V28.4H746.593L773.089 81.76L784.497 108.624H785.233C784.497 102.123 783.638 94.7627 782.657 86.544C781.676 78.2027 781.185 70.352 781.185 62.992V28.4H811.361V148H778.977L752.481 94.456L741.073 67.776H740.337C741.073 74.5227 741.932 82.0053 742.913 90.224C743.894 98.32 744.385 106.048 744.385 113.408V148H714.209ZM889.722 150.208C879.541 150.208 870.095 148 861.386 143.584C852.799 139.045 845.869 132.237 840.594 123.16C835.319 114.083 832.682 102.736 832.682 89.12C832.682 79.0613 834.215 70.168 837.282 62.44C840.471 54.5893 844.765 47.9653 850.162 42.568C855.682 37.1707 861.877 33.1227 868.746 30.424C875.738 27.6027 882.975 26.192 890.458 26.192C898.431 26.192 905.546 27.7867 911.802 30.976C918.181 34.0427 923.455 37.7227 927.626 42.016L911.066 62.256C908.122 59.68 905.055 57.5947 901.866 56C898.799 54.2827 895.242 53.424 891.194 53.424C886.533 53.424 882.178 54.8347 878.13 57.656C874.205 60.3547 871.015 64.28 868.562 69.432C866.231 74.584 865.066 80.7787 865.066 88.016C865.066 99.1787 867.397 107.827 872.058 113.96C876.842 119.971 883.098 122.976 890.826 122.976C895.487 122.976 899.597 121.933 903.154 119.848C906.834 117.763 909.962 115.371 912.538 112.672L929.098 132.544C924.069 138.432 918.181 142.848 911.434 145.792C904.687 148.736 897.45 150.208 889.722 150.208ZM945.646 148V28.4H1022.93V54.896H977.294V73.664H1016.3V100.16H977.294V121.504H1024.77V148H945.646ZM1085.79 150.208C1078.31 150.208 1070.52 148.797 1062.42 145.976C1054.33 143.155 1047.03 138.861 1040.53 133.096L1058.56 111.384C1062.85 114.819 1067.45 117.64 1072.36 119.848C1077.39 121.933 1082.11 122.976 1086.53 122.976C1091.31 122.976 1094.75 122.24 1096.83 120.768C1099.04 119.296 1100.14 117.211 1100.14 114.512C1100.14 111.691 1098.67 109.544 1095.73 108.072C1092.91 106.6 1088.98 104.883 1083.95 102.92L1069.05 96.664C1062.67 94.088 1057.03 90.04 1052.12 84.52C1047.34 79 1044.94 71.9467 1044.94 63.36C1044.94 56.4907 1046.85 50.296 1050.65 44.776C1054.45 39.1333 1059.66 34.656 1066.29 31.344C1073.04 27.9093 1080.76 26.192 1089.47 26.192C1096.34 26.192 1103.27 27.5413 1110.26 30.24C1117.38 32.816 1123.7 36.8027 1129.22 42.2L1113.39 62.072C1109.34 59.2507 1105.42 57.104 1101.62 55.632C1097.94 54.16 1093.89 53.424 1089.47 53.424C1085.67 53.424 1082.6 54.0987 1080.27 55.448C1078.06 56.7973 1076.96 58.8213 1076.96 61.52C1076.96 64.3413 1078.56 66.5493 1081.74 68.144C1084.93 69.616 1089.23 71.3947 1094.62 73.48L1109.16 79.184C1116.64 82.128 1122.41 86.2373 1126.46 91.512C1130.5 96.7867 1132.53 103.595 1132.53 111.936C1132.53 118.683 1130.69 125 1127.01 130.888C1123.45 136.653 1118.18 141.315 1111.18 144.872C1104.19 148.429 1095.73 150.208 1085.79 150.208Z" fill="#1A196F"/>
<path d="M572.692 56C581.359 56 588.385 49.5081 588.385 41.5C588.385 33.4919 581.359 27 572.692 27C564.026 27 557 33.4919 557 41.5C557 49.5081 564.026 56 572.692 56Z" fill="#FB3E00"/>
</svg>
