<svg width="949" height="172" viewBox="0 0 949 172" fill="none" xmlns="http://www.w3.org/2000/svg">
<path d="M17.1154 168.5V13.9857H58.0023V168.5H17.1154ZM159.365 171.353C146.212 171.353 134.009 168.5 122.757 162.795C111.664 156.931 102.71 148.136 95.8954 136.409C89.081 124.681 85.6737 110.022 85.6737 92.4314C85.6737 79.4364 87.6547 67.9468 91.6166 57.9628C95.737 47.8204 101.284 39.2626 108.257 32.2897C115.388 25.3167 123.391 20.087 132.266 16.6005C141.299 12.9556 150.649 11.1331 160.316 11.1331C170.617 11.1331 179.809 13.1933 187.891 17.3137C196.132 21.2756 202.946 26.0299 208.334 31.5765L186.94 57.7251C183.137 54.3971 179.175 51.703 175.054 49.6428C171.092 47.4242 166.497 46.3148 161.267 46.3148C155.245 46.3148 149.619 48.1373 144.389 51.7823C139.318 55.2687 135.198 60.34 132.028 66.996C129.017 73.652 127.511 81.655 127.511 91.0051C127.511 105.426 130.522 116.599 136.545 124.523C142.725 132.288 150.807 136.171 160.791 136.171C166.814 136.171 172.123 134.824 176.718 132.13C181.473 129.436 185.514 126.345 188.842 122.859L210.236 148.532C203.739 156.139 196.132 161.844 187.415 165.647C178.699 169.451 169.349 171.353 159.365 171.353ZM396.205 168.5V13.9857H438.043L472.273 82.9228L487.012 117.629H487.963C487.012 109.23 485.902 99.7213 484.635 89.1034C483.367 78.327 482.733 68.1846 482.733 58.676V13.9857H521.718V168.5H479.88L445.649 99.3251L430.911 64.8565H429.96C430.911 73.5727 432.02 83.2398 433.288 93.8577C434.556 104.317 435.19 114.301 435.19 123.81V168.5H396.205ZM555.919 168.5V13.9857H655.759V48.2165H596.806V72.4634H647.201V106.694H596.806V134.269H658.136V168.5H555.919ZM688.008 168.5V13.9857H728.895V71.5126H729.846L768.831 13.9857H813.522L767.405 76.7423L822.555 168.5H777.864L743.634 109.071L728.895 129.99V168.5H688.008ZM859.556 168.5V48.2165H818.67V13.9857H941.33V48.2165H900.443V168.5H859.556Z" fill="white"/>
<path d="M298.073 169.5C340.638 169.5 375.145 134.994 375.145 92.4286C375.145 49.8632 340.638 15.3572 298.073 15.3572C255.508 15.3572 221.002 49.8632 221.002 92.4286C221.002 134.994 255.508 169.5 298.073 169.5Z" fill="#00CA3A"/>
</svg>
