<svg width="622" height="155" viewBox="0 0 622 155" fill="none" xmlns="http://www.w3.org/2000/svg">
<path d="M15.552 152V11.6H66.096C75.888 11.6 84.816 12.608 92.88 14.624C100.944 16.64 107.352 20.168 112.104 25.208C116.856 30.248 119.232 37.376 119.232 46.592C119.232 52.64 117.648 58.688 114.48 64.736C111.312 70.64 106.992 74.672 101.52 76.832V77.696C108.288 79.568 113.976 83.168 118.584 88.496C123.336 93.824 125.712 101.168 125.712 110.528C125.712 120.176 123.192 128.096 118.152 134.288C113.112 140.336 106.416 144.8 98.064 147.68C89.712 150.56 80.496 152 70.416 152H15.552ZM52.704 66.464H65.232C71.28 66.464 75.744 65.168 78.624 62.576C81.504 59.984 82.944 56.528 82.944 52.208C82.944 47.888 81.504 44.792 78.624 42.92C75.744 41.048 71.28 40.112 65.232 40.112H52.704V66.464ZM52.704 123.488H67.824C82.224 123.488 89.424 118.304 89.424 107.936C89.424 102.752 87.624 99.08 84.024 96.92C80.568 94.76 75.168 93.68 67.824 93.68H52.704V123.488ZM210.666 154.592C191.082 154.592 176.466 148.832 166.818 137.312C157.17 125.792 152.346 108.08 152.346 84.176V11.6H189.498V88.496C189.498 101.024 191.154 109.88 194.466 115.064C197.922 120.104 203.322 122.624 210.666 122.624C218.01 122.624 223.41 120.104 226.866 115.064C230.466 109.88 232.266 101.024 232.266 88.496V11.6H268.122V84.176C268.122 108.08 263.442 125.792 254.082 137.312C244.866 148.832 230.394 154.592 210.666 154.592ZM377.479 152V11.6H414.631V120.896H467.767V152H377.479ZM497.418 152V11.6H538.89C553.146 11.6 565.674 13.976 576.474 18.728C587.418 23.336 595.914 30.752 601.962 40.976C608.01 51.2 611.034 64.592 611.034 81.152C611.034 97.712 608.01 111.248 601.962 121.76C595.914 132.128 587.634 139.76 577.122 144.656C566.61 149.552 554.586 152 541.05 152H497.418ZM534.57 122.192H536.73C543.498 122.192 549.618 121.04 555.09 118.736C560.562 116.432 564.882 112.328 568.05 106.424C571.362 100.52 573.018 92.096 573.018 81.152C573.018 70.208 571.362 61.928 568.05 56.312C564.882 50.552 560.562 46.664 555.09 44.648C549.618 42.488 543.498 41.408 536.73 41.408H534.57V122.192Z" fill="#1A196F"/>
<rect x="302" y="14" width="30" height="30" fill="#FB3E00"/>
</svg>
