<svg width="745" height="108" viewBox="0 0 745 108" fill="none" xmlns="http://www.w3.org/2000/svg">
<path d="M49.4833 107.908C40.6853 107.908 32.5233 106 24.9973 102.184C17.5773 98.262 11.5883 92.379 7.03027 84.535C2.47227 76.691 0.193266 66.886 0.193266 55.12C0.193266 46.428 1.51827 38.743 4.16827 32.065C6.92427 25.281 10.6343 19.557 15.2983 14.893C20.0683 10.229 25.4213 6.73099 31.3573 4.39899C37.3993 1.96099 43.6533 0.74199 50.1193 0.74199C57.0093 0.74199 63.1573 2.11999 68.5633 4.87599C74.0753 7.526 78.6333 10.706 82.2373 14.416L67.9273 31.906C65.3833 29.68 62.7333 27.878 59.9773 26.5C57.3273 25.016 54.2533 24.274 50.7553 24.274C46.7273 24.274 42.9643 25.493 39.4663 27.931C36.0743 30.263 33.3183 33.655 31.1983 38.107C29.1843 42.559 28.1773 47.912 28.1773 54.166C28.1773 63.812 30.1913 71.285 34.2193 76.585C38.3533 81.779 43.7593 84.376 50.4373 84.376C54.4653 84.376 58.0163 83.475 61.0903 81.673C64.2703 79.871 66.9733 77.804 69.1993 75.472L83.5093 92.644C79.1633 97.732 74.0753 101.548 68.2453 104.092C62.4153 106.636 56.1613 107.908 49.4833 107.908ZM135.009 107.908C125.469 107.908 117.095 105.788 109.887 101.548C102.679 97.202 97.0611 91.001 93.0331 82.945C89.0051 74.889 86.9911 65.19 86.9911 53.848C86.9911 42.506 89.0051 32.913 93.0331 25.069C97.0611 17.119 102.679 11.077 109.887 6.943C117.095 2.80899 125.469 0.74199 135.009 0.74199C144.549 0.74199 152.923 2.80899 160.131 6.943C167.339 11.077 172.957 17.119 176.985 25.069C181.013 32.913 183.027 42.506 183.027 53.848C183.027 65.19 181.013 74.889 176.985 82.945C172.957 91.001 167.339 97.202 160.131 101.548C152.923 105.788 144.549 107.908 135.009 107.908ZM135.009 84.376C141.263 84.376 146.139 81.62 149.637 76.108C153.241 70.596 155.043 63.176 155.043 53.848C155.043 44.414 153.241 37.153 149.637 32.065C146.139 26.871 141.263 24.274 135.009 24.274C128.861 24.274 123.985 26.871 120.381 32.065C116.777 37.153 114.975 44.414 114.975 53.848C114.975 63.176 116.777 70.596 120.381 76.108C123.985 81.62 128.861 84.376 135.009 84.376ZM201.532 106V2.64999H229.516L252.412 48.76L262.27 71.974H262.906C262.27 66.356 261.528 59.996 260.68 52.894C259.832 45.686 259.408 38.902 259.408 32.542V2.64999H285.484V106H257.5L234.604 59.731L224.746 36.676H224.11C224.746 42.506 225.488 48.972 226.336 56.074C227.184 63.07 227.608 69.748 227.608 76.108V106H201.532ZM353.198 107.908C344.4 107.908 336.238 106 328.712 102.184C321.292 98.262 315.303 92.379 310.745 84.535C306.187 76.691 303.908 66.886 303.908 55.12C303.908 46.428 305.233 38.743 307.883 32.065C310.639 25.281 314.349 19.557 319.013 14.893C323.783 10.229 329.136 6.73099 335.072 4.39899C341.114 1.96099 347.368 0.74199 353.834 0.74199C360.724 0.74199 366.872 2.11999 372.278 4.87599C377.79 7.526 382.348 10.706 385.952 14.416L371.642 31.906C369.098 29.68 366.448 27.878 363.692 26.5C361.042 25.016 357.968 24.274 354.47 24.274C350.442 24.274 346.679 25.493 343.181 27.931C339.789 30.263 337.033 33.655 334.913 38.107C332.899 42.559 331.892 47.912 331.892 54.166C331.892 63.812 333.906 71.285 337.934 76.585C342.068 81.779 347.474 84.376 354.152 84.376C358.18 84.376 361.731 83.475 364.805 81.673C367.985 79.871 370.688 77.804 372.914 75.472L387.224 92.644C382.878 97.732 377.79 101.548 371.96 104.092C366.13 106.636 359.876 107.908 353.198 107.908ZM401.524 106V2.64999H468.304V25.546H428.872V41.764H462.58V64.66H428.872V83.104H469.894V106H401.524ZM489.875 106V2.64999H527.717C535.243 2.64999 542.186 3.70999 548.546 5.82999C554.906 7.95 559.994 11.501 563.81 16.483C567.732 21.465 569.693 28.302 569.693 36.994C569.693 45.368 567.732 52.258 563.81 57.664C559.994 62.964 554.906 66.886 548.546 69.43C542.292 71.974 535.561 73.246 528.353 73.246H517.223V106H489.875ZM517.223 51.622H527.081C532.487 51.622 536.462 50.35 539.006 47.806C541.656 45.156 542.981 41.552 542.981 36.994C542.981 32.33 541.55 29.044 538.688 27.136C535.826 25.228 531.745 24.274 526.445 24.274H517.223V51.622ZM604.773 106V25.546H577.425V2.64999H659.469V25.546H632.121V106H604.773ZM704.454 107.908C697.988 107.908 691.257 106.689 684.261 104.251C677.265 101.813 670.958 98.103 665.34 93.121L680.922 74.359C684.632 77.327 688.607 79.765 692.847 81.673C697.193 83.475 701.274 84.376 705.09 84.376C709.224 84.376 712.192 83.74 713.994 82.468C715.902 81.196 716.856 79.394 716.856 77.062C716.856 74.624 715.584 72.769 713.04 71.497C710.602 70.225 707.21 68.741 702.864 67.045L689.985 61.639C684.473 59.413 679.597 55.915 675.357 51.145C671.223 46.375 669.156 40.28 669.156 32.86C669.156 26.924 670.799 21.571 674.085 16.801C677.371 11.925 681.876 8.05599 687.6 5.194C693.43 2.22599 700.108 0.74199 707.634 0.74199C713.57 0.74199 719.559 1.90799 725.601 4.23999C731.749 6.466 737.208 9.911 741.978 14.575L728.304 31.747C724.806 29.309 721.414 27.454 718.128 26.182C714.948 24.91 711.45 24.274 707.634 24.274C704.348 24.274 701.698 24.857 699.684 26.023C697.776 27.189 696.822 28.938 696.822 31.27C696.822 33.708 698.2 35.616 700.956 36.994C703.712 38.266 707.422 39.803 712.086 41.605L724.647 46.534C731.113 49.078 736.095 52.629 739.593 57.187C743.091 61.745 744.84 67.628 744.84 74.836C744.84 80.666 743.25 86.125 740.07 91.213C736.996 96.195 732.438 100.223 726.396 103.297C720.354 106.371 713.04 107.908 704.454 107.908Z" fill="#1A196F"/>
</svg>
