<svg width="1021" height="108" viewBox="0 0 1021 108" fill="none" xmlns="http://www.w3.org/2000/svg">
<path d="M50.286 107.908C23.892 107.908 0.996001 90.418 0.996001 55.12C0.996001 20.458 24.846 0.74199 50.922 0.74199C64.596 0.74199 75.726 7.10199 83.04 14.416L68.73 31.906C63.642 27.454 58.554 24.274 51.558 24.274C39.474 24.274 28.98 35.404 28.98 54.166C28.98 73.564 37.884 84.376 51.24 84.376C59.19 84.376 65.55 80.242 70.002 75.472L84.312 92.644C75.567 102.82 63.642 107.908 50.286 107.908ZM135.812 107.908C107.192 107.908 87.7939 87.874 87.7939 53.848C87.7939 19.822 107.192 0.74199 135.812 0.74199C164.432 0.74199 183.83 19.981 183.83 53.848C183.83 87.874 164.432 107.908 135.812 107.908ZM135.812 84.376C148.214 84.376 155.846 72.61 155.846 53.848C155.846 35.086 148.214 24.274 135.812 24.274C123.41 24.274 115.778 35.086 115.778 53.848C115.778 72.61 123.41 84.376 135.812 84.376ZM202.335 106V2.64999H230.319L253.215 48.76L263.073 71.974H263.709C262.437 60.844 260.211 45.262 260.211 32.542V2.64999H286.287V106H258.303L235.407 59.731L225.549 36.676H224.913C226.185 48.442 228.411 63.388 228.411 76.108V106H202.335ZM341.917 107.908C328.879 107.908 313.933 103.138 302.803 93.121L318.385 74.359C325.699 80.242 334.921 84.376 342.553 84.376C350.821 84.376 354.319 81.673 354.319 77.062C354.319 72.133 349.072 70.543 340.327 67.045L327.448 61.639C316.318 57.187 306.619 47.806 306.619 32.86C306.619 15.211 322.519 0.74199 345.097 0.74199C356.863 0.74199 369.901 5.194 379.441 14.575L365.767 31.747C358.771 26.818 352.729 24.274 345.097 24.274C338.419 24.274 334.285 26.659 334.285 31.27C334.285 36.199 340.168 37.948 349.549 41.605L362.11 46.534C374.989 51.622 382.303 60.526 382.303 74.836C382.303 92.326 367.675 107.908 341.917 107.908ZM441.205 107.908C412.267 107.908 398.275 91.372 398.275 56.074V2.64999H425.623V59.254C425.623 77.698 430.393 84.376 441.205 84.376C452.017 84.376 457.105 77.698 457.105 59.254V2.64999H483.499V56.074C483.499 91.372 470.143 107.908 441.205 107.908ZM505.739 106V2.64999H533.087V83.104H572.201V106H505.739ZM590.67 106V25.546H563.322V2.64999H645.366V25.546H618.018V106H590.67ZM681.048 55.756L679.299 62.911H698.379L696.63 55.756C694.086 45.898 691.542 33.337 688.998 23.002H688.362C686.136 33.496 683.592 45.898 681.048 55.756ZM641.298 106L672.78 2.64999H705.852L737.334 106H708.396L703.308 84.058H674.37L669.282 106H641.298ZM747.189 106V2.64999H775.173L798.069 48.76L807.927 71.974H808.563C807.291 60.844 805.065 45.262 805.065 32.542V2.64999H831.141V106H803.157L780.261 59.731L770.403 36.676H769.767C771.039 48.442 773.265 63.388 773.265 76.108V106H747.189ZM898.855 107.908C872.461 107.908 849.565 90.418 849.565 55.12C849.565 20.458 873.415 0.74199 899.491 0.74199C913.165 0.74199 924.295 7.10199 931.609 14.416L917.299 31.906C912.211 27.454 907.123 24.274 900.127 24.274C888.043 24.274 877.549 35.404 877.549 54.166C877.549 73.564 886.453 84.376 899.809 84.376C907.759 84.376 914.119 80.242 918.571 75.472L932.881 92.644C924.136 102.82 912.211 107.908 898.855 107.908ZM962.202 106V70.384L931.038 2.64999H960.294L967.926 24.274C970.47 32.065 973.014 39.22 975.717 47.329H976.353C979.056 39.22 981.759 32.065 984.462 24.274L992.094 2.64999H1020.71L989.55 70.384V106H962.202Z" fill="#1A196F"/>
</svg>
