<svg width="815" height="134" viewBox="0 0 815 134" fill="none" xmlns="http://www.w3.org/2000/svg">
<path d="M65.136 133.208C34.592 133.208 8.096 112.968 8.096 72.12C8.096 32.008 35.696 9.19199 65.872 9.19199C81.696 9.19199 94.576 16.552 103.04 25.016L86.48 45.256C80.592 40.104 74.704 36.424 66.608 36.424C52.624 36.424 40.48 49.304 40.48 71.016C40.48 93.464 50.784 105.976 66.24 105.976C75.44 105.976 82.8 101.192 87.952 95.672L104.512 115.544C94.392 127.32 80.592 133.208 65.136 133.208ZM121.061 131V11.4H166.325C192.085 11.4 214.165 20.232 214.165 50.04C214.165 67.152 206.437 78.376 194.845 84.632L220.789 131H185.461L164.853 90.888H152.709V131H121.061ZM152.709 65.864H164.117C176.629 65.864 183.253 60.344 183.253 50.04C183.253 39.736 176.629 36.424 164.117 36.424H152.709V65.864ZM236.959 131V11.4H314.239V37.896H268.607V56.664H307.615V83.16H268.607V104.504H316.079V131H236.959ZM469.47 131V37.896H437.822V11.4H532.766V37.896H501.118V131H469.47ZM628.972 131L593.644 11.4H627.132L639.644 63.656C642.956 76.352 645.164 88.68 648.476 101.56H649.212C652.524 88.68 654.916 76.352 658.044 63.656L670.188 11.4H702.572L667.244 131H628.972ZM714.029 131V11.4H791.309V37.896H745.677V56.664H784.685V83.16H745.677V104.504H793.149V131H714.029Z" fill="#1A196F"/>
<path d="M388.5 13L331 131H446L388.5 13Z" fill="#1A196F"/>
<rect x="552" y="9" width="30" height="30" fill="#1A196F"/>
</svg>
