<svg width="903" height="342" viewBox="0 0 903 342" fill="none" xmlns="http://www.w3.org/2000/svg">
<path d="M15.248 141V21.4H50.576C62.72 21.4 73.392 23.424 82.592 27.472C91.9147 31.3973 99.152 37.7147 104.304 46.424C109.456 55.1333 112.032 66.5413 112.032 80.648C112.032 94.7547 109.456 106.285 104.304 115.24C99.152 124.072 92.0987 130.573 83.144 134.744C74.1893 138.915 63.9467 141 52.416 141H15.248ZM46.896 115.608H48.736C54.5013 115.608 59.7147 114.627 64.376 112.664C69.0373 110.701 72.7173 107.205 75.416 102.176C78.2373 97.1467 79.648 89.9707 79.648 80.648C79.648 71.3253 78.2373 64.272 75.416 59.488C72.7173 54.5813 69.0373 51.2693 64.376 49.552C59.7147 47.712 54.5013 46.792 48.736 46.792H46.896V115.608ZM276.452 141V47.896H244.804V21.4H339.748V47.896H308.1V141H276.452ZM672.901 143.208C665.419 143.208 657.629 141.797 649.533 138.976C641.437 136.155 634.139 131.861 627.637 126.096L645.669 104.384C649.963 107.819 654.563 110.64 659.469 112.848C664.499 114.933 669.221 115.976 673.637 115.976C678.421 115.976 681.856 115.24 683.941 113.768C686.149 112.296 687.253 110.211 687.253 107.512C687.253 104.691 685.781 102.544 682.837 101.072C680.016 99.6 676.091 97.8827 671.061 95.92L656.157 89.664C649.779 87.088 644.136 83.04 639.229 77.52C634.445 72 632.053 64.9467 632.053 56.36C632.053 49.4907 633.955 43.296 637.757 37.776C641.56 32.1333 646.773 27.656 653.397 24.344C660.144 20.9093 667.872 19.192 676.581 19.192C683.451 19.192 690.381 20.5413 697.373 23.24C704.488 25.816 710.805 29.8027 716.325 35.2L700.501 55.072C696.453 52.2507 692.528 50.104 688.725 48.632C685.045 47.16 680.997 46.424 676.581 46.424C672.779 46.424 669.712 47.0987 667.381 48.448C665.173 49.7973 664.069 51.8213 664.069 54.52C664.069 57.3413 665.664 59.5493 668.853 61.144C672.043 62.616 676.336 64.3947 681.733 66.48L696.269 72.184C703.752 75.128 709.517 79.2373 713.565 84.512C717.613 89.7867 719.637 96.5947 719.637 104.936C719.637 111.683 717.797 118 714.117 123.888C710.56 129.653 705.285 134.315 698.293 137.872C691.301 141.429 682.837 143.208 672.901 143.208Z" fill="white"/>
<path d="M212.161 330.208C204.678 330.208 196.889 328.797 188.793 325.976C180.697 323.155 173.398 318.861 166.897 313.096L184.929 291.384C189.222 294.819 193.822 297.64 198.729 299.848C203.758 301.933 208.481 302.976 212.897 302.976C217.681 302.976 221.116 302.24 223.201 300.768C225.409 299.296 226.513 297.211 226.513 294.512C226.513 291.691 225.041 289.544 222.097 288.072C219.276 286.6 215.35 284.883 210.321 282.92L195.417 276.664C189.038 274.088 183.396 270.04 178.489 264.52C173.705 259 171.313 251.947 171.313 243.36C171.313 236.491 173.214 230.296 177.017 224.776C180.82 219.133 186.033 214.656 192.657 211.344C199.404 207.909 207.132 206.192 215.841 206.192C222.71 206.192 229.641 207.541 236.633 210.24C243.748 212.816 250.065 216.803 255.585 222.2L239.761 242.072C235.713 239.251 231.788 237.104 227.985 235.632C224.305 234.16 220.257 233.424 215.841 233.424C212.038 233.424 208.972 234.099 206.641 235.448C204.433 236.797 203.329 238.821 203.329 241.52C203.329 244.341 204.924 246.549 208.113 248.144C211.302 249.616 215.596 251.395 220.993 253.48L235.529 259.184C243.012 262.128 248.777 266.237 252.825 271.512C256.873 276.787 258.897 283.595 258.897 291.936C258.897 298.683 257.057 305 253.377 310.888C249.82 316.653 244.545 321.315 237.553 324.872C230.561 328.429 222.097 330.208 212.161 330.208ZM285.476 328V208.4H362.756V234.896H317.124V253.664H356.132V280.16H317.124V301.504H364.596V328H285.476ZM395.079 328V208.4H440.343C448.929 208.4 456.841 209.565 464.079 211.896C471.316 214.104 477.143 218.029 481.559 223.672C485.975 229.315 488.183 237.104 488.183 247.04C488.183 255.627 486.404 262.741 482.847 268.384C479.289 274.027 474.628 278.443 468.863 281.632L494.807 328H459.479L438.871 287.888H426.727V328H395.079ZM426.727 262.864H438.135C450.892 262.864 457.271 257.589 457.271 247.04C457.271 241.888 455.615 238.331 452.303 236.368C449.113 234.405 444.391 233.424 438.135 233.424H426.727V262.864ZM534.983 328L499.655 208.4H533.143L545.655 260.656C547.373 267.035 548.845 273.352 550.071 279.608C551.421 285.741 552.893 292.059 554.487 298.56H555.223C556.941 292.059 558.413 285.741 559.639 279.608C560.989 273.352 562.461 267.035 564.055 260.656L576.199 208.4H608.583L573.255 328H534.983ZM744.867 330.208C734.686 330.208 725.24 328 716.531 323.584C707.944 319.045 701.014 312.237 695.739 303.16C690.464 294.083 687.827 282.736 687.827 269.12C687.827 259.061 689.36 250.168 692.427 242.44C695.616 234.589 699.91 227.965 705.307 222.568C710.827 217.171 717.022 213.123 723.891 210.424C730.883 207.603 738.12 206.192 745.603 206.192C753.576 206.192 760.691 207.787 766.947 210.976C773.326 214.043 778.6 217.723 782.771 222.016L766.211 242.256C763.267 239.68 760.2 237.595 757.011 236C753.944 234.283 750.387 233.424 746.339 233.424C741.678 233.424 737.323 234.835 733.275 237.656C729.35 240.355 726.16 244.28 723.707 249.432C721.376 254.584 720.211 260.779 720.211 268.016C720.211 279.179 722.542 287.827 727.203 293.96C731.987 299.971 738.243 302.976 745.971 302.976C750.632 302.976 754.742 301.933 758.299 299.848C761.979 297.763 765.107 295.371 767.683 292.672L784.243 312.544C779.214 318.432 773.326 322.848 766.579 325.792C759.832 328.736 752.595 330.208 744.867 330.208ZM808.151 328V208.4H885.431V234.896H839.799V253.664H878.807V280.16H839.799V301.504H887.271V328H808.151Z" fill="white"/>
<path d="M185 21.5029L129 144.377H241L185 21.5029Z" fill="white"/>
<path d="M397.5 21.5029L340 144.377H455L397.5 21.5029Z" fill="white"/>
<path d="M566.5 21.5029L509 144.377H624L566.5 21.5029Z" fill="white"/>
<path d="M59.5 207.572L2 328.162H117L59.5 207.572Z" fill="white"/>
<path d="M650.5 243.155C660.165 243.155 668 235.411 668 225.858C668 216.305 660.165 208.56 650.5 208.56C640.835 208.56 633 216.305 633 225.858C633 235.411 640.835 243.155 650.5 243.155Z" fill="#00CA3A"/>
</svg>
