<svg width="545" height="206" viewBox="0 0 545 206" fill="none" xmlns="http://www.w3.org/2000/svg">
<path d="M9.97979 85V12.9602H31.2592C38.574 12.9602 45.0022 14.1794 50.5437 16.6176C56.1591 18.982 60.5185 22.7872 63.6217 28.0332C66.725 33.2791 68.2766 40.1506 68.2766 48.6476C68.2766 57.1446 66.725 64.09 63.6217 69.4837C60.5185 74.8036 56.27 78.7196 50.8762 81.2318C45.4825 83.7439 39.3129 85 32.3675 85H9.97979ZM29.0426 69.7054H30.1509C33.6236 69.7054 36.7638 69.1143 39.5715 67.9321C42.3792 66.7499 44.5958 64.6441 46.2213 61.6148C47.9207 58.5854 48.7704 54.263 48.7704 48.6476C48.7704 43.0322 47.9207 38.7837 46.2213 35.9021C44.5958 32.9467 42.3792 30.9517 39.5715 29.9173C36.7638 28.809 33.6236 28.2548 30.1509 28.2548H29.0426V69.7054ZM167.313 85V28.9198H148.25V12.9602H205.439V28.9198H186.376V85H167.313ZM406.11 86.33C401.603 86.33 396.911 85.4803 392.035 83.7809C387.158 82.0815 382.762 79.4954 378.846 76.0227L389.707 62.9447C392.293 65.0136 395.064 66.713 398.02 68.0429C401.049 69.299 403.894 69.9271 406.553 69.9271C409.435 69.9271 411.504 69.4837 412.76 68.5971C414.09 67.7105 414.755 66.4544 414.755 64.8289C414.755 63.1295 413.868 61.8364 412.095 60.9498C410.396 60.0632 408.031 59.0287 405.002 57.8466L396.025 54.0783C392.182 52.5267 388.784 50.0884 385.828 46.7635C382.947 43.4386 381.506 39.1901 381.506 34.018C381.506 29.8803 382.651 26.1491 384.942 22.8241C387.232 19.4253 390.372 16.7285 394.362 14.7335C398.426 12.6647 403.081 11.6303 408.327 11.6303C412.464 11.6303 416.639 12.443 420.851 14.0685C425.136 15.6202 428.941 18.0215 432.266 21.2725L422.735 33.2422C420.296 31.5428 417.932 30.2498 415.642 29.3631C413.425 28.4765 410.987 28.0332 408.327 28.0332C406.036 28.0332 404.189 28.4396 402.785 29.2523C401.455 30.0651 400.79 31.2842 400.79 32.9097C400.79 34.6091 401.751 35.9391 403.672 36.8996C405.593 37.7862 408.179 38.8576 411.43 40.1137L420.186 43.5494C424.693 45.3227 428.165 47.7979 430.604 50.9751C433.042 54.1522 434.261 58.2529 434.261 63.2772C434.261 67.341 433.153 71.1462 430.936 74.6928C428.793 78.1655 425.616 80.9732 421.405 83.1159C417.193 85.2586 412.095 86.33 406.11 86.33Z" fill="white"/>
<path d="M128.588 198.558C124.081 198.558 119.389 197.708 114.513 196.009C109.636 194.309 105.24 191.723 101.324 188.251L112.185 175.173C114.771 177.242 117.542 178.941 120.498 180.271C123.527 181.527 126.372 182.155 129.032 182.155C131.913 182.155 133.982 181.712 135.238 180.825C136.568 179.938 137.233 178.682 137.233 177.057C137.233 175.357 136.346 174.064 134.573 173.178C132.874 172.291 130.509 171.257 127.48 170.075L118.503 166.306C114.661 164.755 111.262 162.316 108.306 158.992C105.425 155.667 103.984 151.418 103.984 146.246C103.984 142.108 105.129 138.377 107.42 135.052C109.71 131.653 112.85 128.956 116.84 126.962C120.904 124.893 125.559 123.858 130.805 123.858C134.943 123.858 139.117 124.671 143.329 126.297C147.614 127.848 151.419 130.25 154.744 133.501L145.213 145.47C142.775 143.771 140.41 142.478 138.12 141.591C135.903 140.705 133.465 140.261 130.805 140.261C128.514 140.261 126.667 140.668 125.263 141.48C123.933 142.293 123.268 143.512 123.268 145.138C123.268 146.837 124.229 148.167 126.15 149.128C128.071 150.014 130.657 151.086 133.908 152.342L142.664 155.777C147.171 157.551 150.643 160.026 153.082 163.203C155.52 166.38 156.739 170.481 156.739 175.505C156.739 179.569 155.631 183.374 153.414 186.921C151.272 190.393 148.094 193.201 143.883 195.344C139.671 197.487 134.573 198.558 128.588 198.558ZM172.749 197.228V125.188H219.298V141.148H191.812V152.453H215.308V168.412H191.812V181.268H220.406V197.228H172.749ZM238.767 197.228V125.188H266.031C271.203 125.188 275.969 125.89 280.328 127.294C284.687 128.624 288.197 130.988 290.857 134.387C293.517 137.786 294.847 142.478 294.847 148.463C294.847 153.635 293.775 157.92 291.633 161.319C289.49 164.718 286.682 167.378 283.21 169.299L298.837 197.228H277.557L265.144 173.067H257.829V197.228H238.767ZM257.829 157.994H264.701C272.385 157.994 276.227 154.817 276.227 148.463C276.227 145.359 275.23 143.217 273.235 142.034C271.314 140.852 268.469 140.261 264.701 140.261H257.829V157.994ZM323.037 197.228L301.757 125.188H321.928L329.465 156.664C330.499 160.506 331.386 164.311 332.125 168.08C332.938 171.774 333.824 175.579 334.785 179.495H335.228C336.262 175.579 337.149 171.774 337.888 168.08C338.701 164.311 339.587 160.506 340.548 156.664L347.863 125.188H367.369L346.089 197.228H323.037ZM449.458 198.558C443.325 198.558 437.636 197.228 432.39 194.568C427.218 191.834 423.043 187.734 419.866 182.266C416.689 176.798 415.1 169.964 415.1 161.762C415.1 155.704 416.024 150.347 417.871 145.692C419.792 140.963 422.378 136.973 425.629 133.722C428.954 130.471 432.685 128.033 436.823 126.407C441.035 124.708 445.394 123.858 449.901 123.858C454.704 123.858 458.989 124.819 462.757 126.74C466.6 128.587 469.777 130.804 472.289 133.39L462.314 145.581C460.541 144.029 458.694 142.773 456.773 141.813C454.925 140.778 452.783 140.261 450.344 140.261C447.537 140.261 444.914 141.111 442.475 142.81C440.111 144.436 438.19 146.8 436.712 149.903C435.308 153.007 434.607 156.738 434.607 161.097C434.607 167.821 436.01 173.03 438.818 176.724C441.7 180.345 445.468 182.155 450.123 182.155C452.93 182.155 455.406 181.527 457.548 180.271C459.765 179.015 461.649 177.574 463.201 175.949L473.176 187.918C470.146 191.465 466.6 194.125 462.536 195.898C458.472 197.671 454.113 198.558 449.458 198.558ZM487.577 197.228V125.188H534.125V141.148H506.639V152.453H530.135V168.412H506.639V181.268H535.234V197.228H487.577Z" fill="white"/>
<path d="M112.229 12.9521L78.498 86.9641H145.96L112.229 12.9521Z" fill="white"/>
<path d="M240.224 12.9519L205.59 86.9639H274.859L240.224 12.9519Z" fill="white"/>
<path d="M342.019 12.9519L307.385 86.9639H376.654L342.019 12.9519Z" fill="white"/>
<path d="M36.6345 125.029L2 197.665H71.269L36.6345 125.029Z" fill="white"/>
<path d="M392.617 146.462C398.439 146.462 403.158 141.797 403.158 136.043C403.158 130.289 398.439 125.624 392.617 125.624C386.795 125.624 382.076 130.289 382.076 136.043C382.076 141.797 386.795 146.462 392.617 146.462Z" fill="white"/>
</svg>
