<svg width="210" height="36" viewBox="0 0 210 36" fill="none" xmlns="http://www.w3.org/2000/svg">
<path d="M3.456 35V3.8H12.672C15.84 3.8 18.624 4.328 21.024 5.384C23.456 6.408 25.344 8.056 26.688 10.328C28.032 12.6 28.704 15.576 28.704 19.256C28.704 22.936 28.032 25.944 26.688 28.28C25.344 30.584 23.504 32.28 21.168 33.368C18.832 34.456 16.16 35 13.152 35H3.456ZM11.712 28.376H12.192C13.696 28.376 15.056 28.12 16.272 27.608C17.488 27.096 18.448 26.184 19.152 24.872C19.888 23.56 20.256 21.688 20.256 19.256C20.256 16.824 19.888 14.984 19.152 13.736C18.448 12.456 17.488 11.592 16.272 11.144C15.056 10.664 13.696 10.424 12.192 10.424H11.712V28.376ZM34.2529 35V3.8H54.4129V10.712H42.5089V15.608H52.6849V22.52H42.5089V28.088H54.8929V35H34.2529ZM60.9248 35V3.8H81.2768V10.712H69.1808V16.664H79.5488V23.576H69.1808V35H60.9248ZM101.847 35V3.8H110.295L117.207 17.72L120.183 24.728H120.375C120.183 23.032 119.959 21.112 119.703 18.968C119.447 16.792 119.319 14.744 119.319 12.824V3.8H127.191V35H118.743L111.831 21.032L108.855 14.072H108.663C108.855 15.832 109.079 17.784 109.335 19.928C109.591 22.04 109.719 24.056 109.719 25.976V35H101.847ZM149.284 35V3.8H157.732L164.644 17.72L167.62 24.728H167.812C167.62 23.032 167.396 21.112 167.14 18.968C166.884 16.792 166.756 14.744 166.756 12.824V3.8H174.628V35H166.18L159.268 21.032L156.292 14.072H156.1C156.292 15.832 156.516 17.784 156.772 19.928C157.028 22.04 157.156 24.056 157.156 25.976V35H149.284ZM195.934 35.576C193.022 35.576 190.366 35 187.966 33.848C185.598 32.664 183.71 30.888 182.302 28.52C180.894 26.152 180.19 23.192 180.19 19.64C180.19 17.016 180.606 14.696 181.438 12.68C182.27 10.632 183.406 8.904 184.846 7.496C186.286 6.088 187.934 5.032 189.79 4.328C191.678 3.592 193.662 3.224 195.742 3.224C198.046 3.224 200.046 3.64 201.742 4.472C203.438 5.272 204.83 6.232 205.918 7.352L201.598 12.632C200.83 11.96 200.014 11.416 199.15 11C198.318 10.552 197.278 10.328 196.03 10.328C193.918 10.328 192.158 11.128 190.75 12.728C189.342 14.296 188.638 16.504 188.638 19.352C188.638 22.264 189.294 24.52 190.606 26.12C191.95 27.688 194.014 28.472 196.798 28.472C197.246 28.472 197.678 28.424 198.094 28.328C198.542 28.232 198.91 28.088 199.198 27.896V23.576H194.59V16.856H206.494V31.736C205.406 32.792 203.918 33.704 202.03 34.472C200.174 35.208 198.142 35.576 195.934 35.576Z" fill="#1A196F"/>
<path d="M90.5 12C92.9853 12 95 9.98528 95 7.5C95 5.01472 92.9853 3 90.5 3C88.0147 3 86 5.01472 86 7.5C86 9.98528 88.0147 12 90.5 12Z" fill="#FB3E00"/>
<path d="M138.5 12C140.985 12 143 9.98528 143 7.5C143 5.01472 140.985 3 138.5 3C136.015 3 134 5.01472 134 7.5C134 9.98528 136.015 12 138.5 12Z" fill="#1A196F"/>
</svg>
