<svg width="815" height="134" viewBox="0 0 815 134" fill="none" xmlns="http://www.w3.org/2000/svg">
<path d="M13.248 131V11.4H48.576C60.72 11.4 71.392 13.424 80.592 17.472C89.9147 21.3973 97.152 27.7147 102.304 36.424C107.456 45.1333 110.032 56.5413 110.032 70.648C110.032 84.7547 107.456 96.2853 102.304 105.24C97.152 114.072 90.0987 120.573 81.144 124.744C72.1893 128.915 61.9467 131 50.416 131H13.248ZM44.896 105.608H46.736C52.5013 105.608 57.7147 104.627 62.376 102.664C67.0373 100.701 70.7173 97.2053 73.416 92.176C76.2373 87.1467 77.648 79.9707 77.648 70.648C77.648 61.3253 76.2373 54.272 73.416 49.488C70.7173 44.5813 67.0373 41.2693 62.376 39.552C57.7147 37.712 52.5013 36.792 46.736 36.792H44.896V105.608ZM131.303 131V11.4H208.583V37.896H162.951V56.664H201.959V83.16H162.951V104.504H210.423V131H131.303ZM271.449 133.208C263.966 133.208 256.177 131.797 248.081 128.976C239.985 126.155 232.686 121.861 226.185 116.096L244.217 94.384C248.51 97.8187 253.11 100.64 258.017 102.848C263.046 104.933 267.769 105.976 272.185 105.976C276.969 105.976 280.404 105.24 282.489 103.768C284.697 102.296 285.801 100.211 285.801 97.512C285.801 94.6907 284.329 92.544 281.385 91.072C278.564 89.6 274.638 87.8827 269.609 85.92L254.705 79.664C248.326 77.088 242.684 73.04 237.777 67.52C232.993 62 230.601 54.9467 230.601 46.36C230.601 39.4907 232.502 33.296 236.305 27.776C240.108 22.1333 245.321 17.656 251.945 14.344C258.692 10.9093 266.42 9.19199 275.129 9.19199C281.998 9.19199 288.929 10.5413 295.921 13.24C303.036 15.816 309.353 19.8027 314.873 25.2L299.049 45.072C295.001 42.2507 291.076 40.104 287.273 38.632C283.593 37.16 279.545 36.424 275.129 36.424C271.326 36.424 268.26 37.0987 265.929 38.448C263.721 39.7973 262.617 41.8213 262.617 44.52C262.617 47.3413 264.212 49.5493 267.401 51.144C270.59 52.616 274.884 54.3947 280.281 56.48L294.817 62.184C302.3 65.128 308.065 69.2373 312.113 74.512C316.161 79.7867 318.185 86.5947 318.185 94.936C318.185 101.683 316.345 108 312.665 113.888C309.108 119.653 303.833 124.315 296.841 127.872C289.849 131.429 281.385 133.208 271.449 133.208ZM450.823 133.208C439.66 133.208 429.479 131 420.279 126.584C411.202 122.045 403.964 115.237 398.567 106.16C393.17 97.0827 390.471 85.736 390.471 72.12C390.471 62.0613 392.066 53.168 395.255 45.44C398.444 37.5893 402.799 30.9653 408.319 25.568C413.839 20.1707 420.156 16.1227 427.271 13.424C434.508 10.6027 442.114 9.19199 450.087 9.19199C458.919 9.19199 466.586 10.7867 473.087 13.976C479.588 17.0427 484.924 20.7227 489.095 25.016L472.535 45.256C469.591 42.68 466.463 40.5947 463.151 39C459.962 37.2827 455.975 36.424 451.191 36.424C443.095 36.424 436.348 39.4907 430.951 45.624C425.554 51.6347 422.855 60.0987 422.855 71.016C422.855 82.1787 425.37 90.8267 430.399 96.96C435.551 102.971 443.463 105.976 454.135 105.976C455.852 105.976 457.508 105.792 459.103 105.424C460.82 105.056 462.231 104.504 463.335 103.768V87.208H445.671V61.448H491.303V118.488C487.132 122.536 481.428 126.032 474.191 128.976C467.076 131.797 459.287 133.208 450.823 133.208ZM514.576 131V11.4H546.96L573.456 64.76L584.864 91.624H585.6C584.864 85.1227 584.005 77.7627 583.024 69.544C582.043 61.2027 581.552 53.352 581.552 45.992V11.4H611.728V131H579.344L552.848 77.456L541.44 50.776H540.704C541.44 57.5227 542.299 65.0053 543.28 73.224C544.261 81.32 544.752 89.048 544.752 96.408V131H514.576Z" fill="white"/>
<rect x="344" y="9.1145" width="30" height="30" fill="white"/>
</svg>
