<svg width="518" height="108" viewBox="0 0 518 108" fill="none" xmlns="http://www.w3.org/2000/svg">
<path d="M0.448001 106V2.64999H30.976C41.47 2.64999 50.692 4.39899 58.642 7.89699C66.698 11.289 72.952 16.748 77.404 24.274C81.856 31.8 84.082 41.658 84.082 53.848C84.082 66.038 81.856 76.002 77.404 83.74C72.952 91.372 66.857 96.99 59.119 100.594C51.381 104.198 42.53 106 32.566 106H0.448001ZM27.796 84.058H29.386C34.368 84.058 38.873 83.21 42.901 81.514C46.929 79.818 50.109 76.797 52.441 72.451C54.879 68.105 56.098 61.904 56.098 53.848C56.098 45.792 54.879 39.697 52.441 35.563C50.109 31.323 46.929 28.461 42.901 26.977C38.873 25.387 34.368 24.592 29.386 24.592H27.796V84.058ZM102.463 106V2.64999H169.243V25.546H129.811V41.764H163.519V64.66H129.811V83.104H170.833V106H102.463ZM223.567 107.908C217.101 107.908 210.37 106.689 203.374 104.251C196.378 101.813 190.071 98.103 184.453 93.121L200.035 74.359C203.745 77.327 207.72 79.765 211.96 81.673C216.306 83.475 220.387 84.376 224.203 84.376C228.337 84.376 231.305 83.74 233.107 82.468C235.015 81.196 235.969 79.394 235.969 77.062C235.969 74.624 234.697 72.769 232.153 71.497C229.715 70.225 226.323 68.741 221.977 67.045L209.098 61.639C203.586 59.413 198.71 55.915 194.47 51.145C190.336 46.375 188.269 40.28 188.269 32.86C188.269 26.924 189.912 21.571 193.198 16.801C196.484 11.925 200.989 8.05599 206.713 5.194C212.543 2.22599 219.221 0.74199 226.747 0.74199C232.683 0.74199 238.672 1.90799 244.714 4.23999C250.862 6.466 256.321 9.911 261.091 14.575L247.417 31.747C243.919 29.309 240.527 27.454 237.241 26.182C234.061 24.91 230.563 24.274 226.747 24.274C223.461 24.274 220.811 24.857 218.797 26.023C216.889 27.189 215.935 28.938 215.935 31.27C215.935 33.708 217.313 35.616 220.069 36.994C222.825 38.266 226.535 39.803 231.199 41.605L243.76 46.534C250.226 49.078 255.208 52.629 258.706 57.187C262.204 61.745 263.953 67.628 263.953 74.836C263.953 80.666 262.363 86.125 259.183 91.213C256.109 96.195 251.551 100.223 245.509 103.297C239.467 106.371 232.153 107.908 223.567 107.908ZM280.561 106V2.64999H307.909V106H280.561ZM378.57 107.908C368.924 107.908 360.126 106 352.176 102.184C344.332 98.262 338.078 92.379 333.414 84.535C328.75 76.691 326.418 66.886 326.418 55.12C326.418 46.428 327.796 38.743 330.552 32.065C333.308 25.281 337.071 19.557 341.841 14.893C346.611 10.229 352.07 6.73099 358.218 4.39899C364.472 1.96099 371.044 0.74199 377.934 0.74199C385.566 0.74199 392.191 2.11999 397.809 4.87599C403.427 7.526 408.038 10.706 411.642 14.416L397.332 31.906C394.788 29.68 392.085 27.878 389.223 26.5C386.467 25.016 383.022 24.274 378.888 24.274C371.892 24.274 366.062 26.924 361.398 32.224C356.734 37.418 354.402 44.732 354.402 54.166C354.402 63.812 356.575 71.285 360.921 76.585C365.373 81.779 372.21 84.376 381.432 84.376C382.916 84.376 384.347 84.217 385.725 83.899C387.209 83.581 388.428 83.104 389.382 82.468V68.158H374.118V45.898H413.55V95.188C409.946 98.686 405.017 101.707 398.763 104.251C392.615 106.689 385.884 107.908 378.57 107.908ZM433.661 106V2.64999H461.645L484.541 48.76L494.399 71.974H495.035C494.399 66.356 493.657 59.996 492.809 52.894C491.961 45.686 491.537 38.902 491.537 32.542V2.64999H517.613V106H489.629L466.733 59.731L456.875 36.676H456.239C456.875 42.506 457.617 48.972 458.465 56.074C459.313 63.07 459.737 69.748 459.737 76.108V106H433.661Z" fill="#1A196F"/>
</svg>
