<svg width="245" height="36" viewBox="0 0 245 36" fill="none" xmlns="http://www.w3.org/2000/svg">
<path d="M3.456 35V3.8H12.672C15.84 3.8 18.624 4.328 21.024 5.384C23.456 6.408 25.344 8.056 26.688 10.328C28.032 12.6 28.704 15.576 28.704 19.256C28.704 22.936 28.032 25.944 26.688 28.28C25.344 30.584 23.504 32.28 21.168 33.368C18.832 34.456 16.16 35 13.152 35H3.456ZM11.712 28.376H12.192C13.696 28.376 15.056 28.12 16.272 27.608C17.488 27.096 18.448 26.184 19.152 24.872C19.888 23.56 20.256 21.688 20.256 19.256C20.256 16.824 19.888 14.984 19.152 13.736C18.448 12.456 17.488 11.592 16.272 11.144C15.056 10.664 13.696 10.424 12.192 10.424H11.712V28.376ZM59.3284 35.576C57.3764 35.576 55.3444 35.208 53.2324 34.472C51.1204 33.736 49.2164 32.616 47.5204 31.112L52.2244 25.448C53.3444 26.344 54.5444 27.08 55.8244 27.656C57.1364 28.2 58.3684 28.472 59.5204 28.472C60.7684 28.472 61.6644 28.28 62.2084 27.896C62.7844 27.512 63.0724 26.968 63.0724 26.264C63.0724 25.528 62.6884 24.968 61.9204 24.584C61.1844 24.2 60.1604 23.752 58.8484 23.24L54.9604 21.608C53.2964 20.936 51.8244 19.88 50.5444 18.44C49.2964 17 48.6724 15.16 48.6724 12.92C48.6724 11.128 49.1684 9.512 50.1604 8.072C51.1524 6.6 52.5124 5.432 54.2404 4.568C56.0004 3.672 58.0164 3.224 60.2884 3.224C62.0804 3.224 63.8884 3.576 65.7124 4.28C67.5684 4.952 69.2164 5.992 70.6564 7.4L66.5284 12.584C65.4724 11.848 64.4484 11.288 63.4564 10.904C62.4964 10.52 61.4404 10.328 60.2884 10.328C59.2964 10.328 58.4964 10.504 57.8884 10.856C57.3124 11.208 57.0244 11.736 57.0244 12.44C57.0244 13.176 57.4404 13.752 58.2724 14.168C59.1044 14.552 60.2244 15.016 61.6324 15.56L65.4244 17.048C67.3764 17.816 68.8804 18.888 69.9364 20.264C70.9924 21.64 71.5204 23.416 71.5204 25.592C71.5204 27.352 71.0404 29 70.0804 30.536C69.1524 32.04 67.7764 33.256 65.9524 34.184C64.1284 35.112 61.9204 35.576 59.3284 35.576ZM90.0701 35.576C87.4141 35.576 84.9501 35 82.6781 33.848C80.4381 32.664 78.6301 30.888 77.2541 28.52C75.8781 26.152 75.1901 23.192 75.1901 19.64C75.1901 17.016 75.5901 14.696 76.3901 12.68C77.2221 10.632 78.3421 8.904 79.7501 7.496C81.1901 6.088 82.8061 5.032 84.5981 4.328C86.4221 3.592 88.3101 3.224 90.2621 3.224C92.3421 3.224 94.1981 3.64 95.8301 4.472C97.4941 5.272 98.8701 6.232 99.9581 7.352L95.6381 12.632C94.8701 11.96 94.0701 11.416 93.2381 11C92.4381 10.552 91.5101 10.328 90.4541 10.328C89.2381 10.328 88.1021 10.696 87.0461 11.432C86.0221 12.136 85.1901 13.16 84.5501 14.504C83.9421 15.848 83.6381 17.464 83.6381 19.352C83.6381 22.264 84.2461 24.52 85.4621 26.12C86.7101 27.688 88.3421 28.472 90.3581 28.472C91.5741 28.472 92.6461 28.2 93.5741 27.656C94.5341 27.112 95.3501 26.488 96.0221 25.784L100.342 30.968C99.0301 32.504 97.4941 33.656 95.7341 34.424C93.9741 35.192 92.0861 35.576 90.0701 35.576ZM164.894 35V3.8H185.054V10.712H173.15V15.608H183.326V22.52H173.15V28.088H185.534V35H164.894ZM191.565 35V3.8H203.373C205.613 3.8 207.677 4.104 209.565 4.712C211.453 5.288 212.973 6.312 214.125 7.784C215.277 9.256 215.853 11.288 215.853 13.88C215.853 16.12 215.389 17.976 214.461 19.448C213.533 20.92 212.317 22.072 210.813 22.904L217.581 35H208.365L202.989 24.536H199.821V35H191.565ZM199.821 18.008H202.797C206.125 18.008 207.789 16.632 207.789 13.88C207.789 12.536 207.357 11.608 206.493 11.096C205.661 10.584 204.429 10.328 202.797 10.328H199.821V18.008ZM226.334 35V24.248L216.926 3.8H225.758L228.062 10.328C228.446 11.512 228.83 12.664 229.214 13.784C229.598 14.904 229.998 16.072 230.414 17.288H230.606C231.022 16.072 231.422 14.904 231.806 13.784C232.222 12.664 232.638 11.512 233.054 10.328L235.358 3.8H243.998L234.59 24.248V35H226.334Z" fill="#1A196F"/>
<path d="M39.5 13C41.9853 13 44 10.9853 44 8.5C44 6.01472 41.9853 4 39.5 4C37.0147 4 35 6.01472 35 8.5C35 10.9853 37.0147 13 39.5 13Z" fill="#1A196F"/>
<path d="M118.5 35C127.06 35 134 28.0604 134 19.5C134 10.9396 127.06 4 118.5 4C109.94 4 103 10.9396 103 19.5C103 28.0604 109.94 35 118.5 35Z" fill="#1A196F"/>
<path d="M149 35L135 4H163L149 35Z" fill="#FB3E00"/>
</svg>
