<svg width="305" height="144" viewBox="0 0 305 144" fill="none" xmlns="http://www.w3.org/2000/svg">
<path d="M60.8532 41.251V9.68186H81.2517V16.6756H69.2069V21.6296H79.5032V28.6233H69.2069V34.2572H81.7374V41.251H60.8532ZM87.8406 41.251V9.68186H96.1943V34.2572H108.142V41.251H87.8406ZM113.595 41.251V9.68186H133.993V16.6756H121.949V21.6296H132.245V28.6233H121.949V34.2572H134.479V41.251H113.595ZM145.925 41.251L136.6 9.68186H145.439L148.742 23.4751C149.616 26.8263 150.199 30.0804 151.073 33.4801H151.267C152.141 30.0804 152.773 26.8263 153.598 23.4751L156.804 9.68186H165.352L156.027 41.251H145.925ZM202.761 41.251V16.6756H194.408V9.68186H219.469V16.6756H211.115V41.251H202.761ZM224.153 41.251V9.68186H244.552V16.6756H232.507V21.6296H242.803V28.6233H232.507V34.2572H245.037V41.251H224.153Z" fill="white"/>
<path d="M96.3461 89.5828C88.2838 89.5828 81.29 84.2403 81.29 73.4583C81.29 62.8705 88.5752 56.8481 96.5403 56.8481C100.717 56.8481 104.117 58.7908 106.351 61.0249L101.98 66.3674C100.426 65.0075 98.8716 64.0361 96.7346 64.0361C93.0434 64.0361 89.838 67.4359 89.838 73.1669C89.838 79.0922 92.5578 82.3948 96.6375 82.3948C99.0659 82.3948 101.009 81.132 102.368 79.675L106.74 84.9203C104.068 88.0286 100.426 89.5828 96.3461 89.5828ZM112.565 89V57.4309H124.512C131.312 57.4309 137.14 59.7621 137.14 67.6301C137.14 72.1469 135.1 75.1096 132.04 76.7609L138.888 89H129.563L124.124 78.4122H120.918V89H112.565ZM120.918 71.807H123.93C127.232 71.807 128.981 70.3499 128.981 67.6301C128.981 64.9103 127.232 64.0361 123.93 64.0361H120.918V71.807ZM174.434 89V57.4309H195.026V64.4247H182.787V70.4471H193.278V77.4408H182.787V89H174.434ZM207.952 89V64.4247H199.598V57.4309H224.659V64.4247H216.306V89H207.952Z" fill="white"/>
<path d="M3.49689 136.75V105.181H12.4334L17.193 118.1C17.4844 118.974 17.7597 119.881 18.0187 120.82C18.2777 121.759 18.5529 122.698 18.8443 123.637H19.0386C19.33 122.698 19.6052 121.759 19.8643 120.82C20.1233 119.881 20.3985 118.974 20.6899 118.1L25.2553 105.181H34.1918V136.75H26.6152V127.425C26.6152 126.356 26.68 125.158 26.8095 123.831C26.939 122.471 27.0847 121.111 27.2466 119.751C27.4085 118.391 27.5542 117.193 27.6837 116.157H27.4894L24.8668 123.734L20.9813 134.176H16.5131L12.6276 123.734L10.1021 116.157H9.90785C10.0374 117.193 10.1831 118.391 10.345 119.751C10.5069 121.111 10.6526 122.471 10.7821 123.831C10.9116 125.158 10.9763 126.356 10.9763 127.425V136.75H3.49689ZM79.5713 137.333C77.5962 137.333 75.5401 136.96 73.4031 136.216C71.2661 135.471 69.3396 134.338 67.6236 132.816L72.3832 127.085C73.5165 127.992 74.7307 128.736 76.0258 129.319C77.3533 129.87 78.5999 130.145 79.7655 130.145C81.0283 130.145 81.9349 129.95 82.4853 129.562C83.0681 129.173 83.3595 128.623 83.3595 127.911C83.3595 127.166 82.971 126.599 82.1939 126.211C81.4492 125.822 80.4131 125.369 79.0856 124.851L75.1516 123.2C73.4679 122.52 71.9785 121.451 70.6833 119.994C69.4206 118.537 68.7892 116.675 68.7892 114.409C68.7892 112.596 69.2911 110.96 70.2948 109.503C71.2985 108.014 72.6746 106.832 74.4231 105.958C76.2039 105.051 78.2437 104.598 80.5426 104.598C82.3558 104.598 84.1852 104.954 86.0308 105.667C87.9087 106.347 89.5762 107.399 91.0333 108.823L86.8564 114.069C85.7879 113.324 84.7518 112.757 83.7481 112.369C82.7767 111.98 81.7082 111.786 80.5426 111.786C79.5389 111.786 78.7294 111.964 78.1142 112.32C77.5314 112.677 77.24 113.211 77.24 113.923C77.24 114.668 77.6609 115.251 78.5028 115.672C79.3446 116.06 80.4779 116.53 81.9025 117.08L85.7394 118.586C87.7145 119.363 89.2363 120.447 90.3048 121.84C91.3732 123.232 91.9075 125.029 91.9075 127.231C91.9075 129.012 91.4218 130.679 90.4505 132.233C89.5115 133.755 88.1192 134.985 86.2736 135.924C84.428 136.863 82.1939 137.333 79.5713 137.333ZM102.054 136.75V112.175H93.7007V105.181H118.762V112.175H110.408V136.75H102.054ZM123.446 136.75V105.181H143.845V112.175H131.8V117.129H142.096V124.122H131.8V129.756H144.33V136.75H123.446ZM150.434 136.75V105.181H162.381C164.648 105.181 166.736 105.488 168.647 106.104C170.557 106.686 172.095 107.723 173.261 109.212C174.426 110.701 175.009 112.757 175.009 115.38C175.009 117.647 174.54 119.525 173.601 121.014C172.662 122.503 171.431 123.669 169.909 124.511L176.757 136.75H167.432L161.993 126.162H158.787V136.75H150.434ZM158.787 119.557H161.799C165.166 119.557 166.85 118.165 166.85 115.38C166.85 114.02 166.413 113.081 165.538 112.563C164.696 112.045 163.45 111.786 161.799 111.786H158.787V119.557ZM181.026 136.75V105.181H192.585C194.884 105.181 197.005 105.505 198.947 106.152C200.89 106.8 202.444 107.884 203.61 109.406C204.808 110.928 205.407 113.016 205.407 115.672C205.407 118.229 204.808 120.334 203.61 121.985C202.444 123.604 200.89 124.802 198.947 125.579C197.037 126.356 194.981 126.745 192.779 126.745H189.379V136.75H181.026ZM189.379 120.14H192.391C194.042 120.14 195.256 119.751 196.033 118.974C196.843 118.165 197.247 117.064 197.247 115.672C197.247 114.247 196.81 113.243 195.936 112.66C195.062 112.078 193.815 111.786 192.196 111.786H189.379V120.14ZM225.942 136.75V105.181H246.34V112.175H234.295V117.129H244.592V124.122H234.295V129.756H246.826V136.75H225.942ZM266.625 137.333C263.938 137.333 261.445 136.75 259.146 135.584C256.879 134.386 255.05 132.589 253.657 130.193C252.265 127.797 251.569 124.802 251.569 121.208C251.569 118.553 251.974 116.206 252.783 114.166C253.625 112.094 254.758 110.345 256.183 108.921C257.64 107.496 259.275 106.427 261.088 105.715C262.934 104.97 264.844 104.598 266.819 104.598C268.924 104.598 270.802 105.019 272.453 105.861C274.137 106.67 275.529 107.642 276.63 108.775L272.259 114.117C271.482 113.437 270.672 112.887 269.831 112.466C269.021 112.013 268.082 111.786 267.014 111.786C265.783 111.786 264.634 112.158 263.565 112.903C262.529 113.616 261.687 114.652 261.04 116.012C260.425 117.371 260.117 119.007 260.117 120.917C260.117 123.863 260.732 126.146 261.963 127.765C263.225 129.351 264.877 130.145 266.917 130.145C268.147 130.145 269.232 129.87 270.171 129.319C271.142 128.769 271.968 128.137 272.648 127.425L277.019 132.67C275.691 134.224 274.137 135.39 272.356 136.167C270.575 136.944 268.665 137.333 266.625 137.333ZM281.387 136.75V105.181H301.785V112.175H289.74V117.129H300.037V124.122H289.74V129.756H302.271V136.75H281.387Z" fill="white"/>
<path d="M179.466 7.89062L163.504 41.4516H195.428L179.466 7.89062Z" fill="white"/>
<path d="M156.354 57.2773L142.029 89.2012H170.679L156.354 57.2773Z" fill="white"/>
<path d="M51.7057 105.026L37.3809 136.95H66.0304L51.7057 105.026Z" fill="white"/>
<path d="M215.691 116.759C218.93 116.759 221.557 114.133 221.557 110.893C221.557 107.653 218.93 105.026 215.691 105.026C212.451 105.026 209.824 107.653 209.824 110.893C209.824 114.133 212.451 116.759 215.691 116.759Z" fill="#FB3E00"/>
</svg>
