<svg width="739" height="104" viewBox="0 0 739 104" fill="none" xmlns="http://www.w3.org/2000/svg">
<path d="M0.448001 104V0.649994H67.228V23.546H27.796V39.764H61.504V62.66H27.796V81.104H68.818V104H0.448001ZM78.9406 104L106.925 50.894L80.5306 0.649994H111.059L118.055 17.504C120.281 22.274 122.507 27.998 125.369 34.676H126.005C128.231 27.998 130.457 22.274 132.365 17.504L138.407 0.649994H167.663L141.269 52.166L169.253 104H138.725L130.457 85.556C127.913 80.15 125.687 74.744 123.143 68.384H122.507C120.281 74.744 118.055 80.15 115.829 85.556L108.197 104H78.9406ZM198.884 104V23.546H171.536V0.649994H253.58V23.546H226.232V104H198.884ZM268.916 104V0.649994H335.696V23.546H296.264V39.764H329.972V62.66H296.264V81.104H337.286V104H268.916ZM357.266 104V0.649994H385.25L408.146 46.76L418.004 69.974H418.64C417.368 58.844 415.142 43.262 415.142 30.542V0.649994H441.218V104H413.234L390.338 57.731L380.48 34.676H379.844C381.116 46.442 383.342 61.388 383.342 74.108V104H357.266ZM464.094 104V0.649994H494.622C526.104 0.649994 547.728 15.278 547.728 51.848C547.728 88.418 526.104 104 496.212 104H464.094ZM491.442 82.058H493.032C507.978 82.058 519.744 76.016 519.744 51.848C519.744 27.68 507.978 22.592 493.032 22.592H491.442V82.058ZM566.109 104V0.649994H632.889V23.546H593.457V39.764H627.165V62.66H593.457V81.104H634.479V104H566.109ZM654.46 104V0.649994H684.988C716.47 0.649994 738.094 15.278 738.094 51.848C738.094 88.418 716.47 104 686.578 104H654.46ZM681.808 82.058H683.398C698.344 82.058 710.11 76.016 710.11 51.848C710.11 27.68 698.344 22.592 683.398 22.592H681.808V82.058Z" fill="#1A196F"/>
</svg>
