<svg width="283" height="308" viewBox="0 0 283 308" fill="none" xmlns="http://www.w3.org/2000/svg">
<path d="M25.6047 154.121C25.6047 100.657 62.0375 55.5643 111.347 42.3956C108.537 37.5652 106.92 31.9523 106.92 25.9549C106.92 22.7571 107.385 19.6674 108.24 16.7395C46.2367 31.6016 0 87.5552 0 154.121C0 232.014 63.2908 295.375 141.082 295.375V269.739C77.407 269.739 25.6047 217.873 25.6047 154.121Z" fill="#1A196F"/>
<path d="M170.737 16.018C171.734 19.155 172.28 22.4944 172.28 25.9553C172.28 31.6761 170.811 37.0597 168.23 41.7348C218.854 53.9929 256.567 99.7259 256.567 154.121C256.567 189.121 240.982 221.868 213.8 243.948L229.938 263.856C263.136 236.885 282.178 196.886 282.178 154.121C282.178 86.4155 234.351 29.686 170.744 16.0112L170.737 16.018Z" fill="#1A196F"/>
<path d="M164.109 211.146H116.895C110.885 211.146 106 206.302 106 200.352V106.794C106 100.837 110.885 96 116.895 96H164.109C170.12 96 175.005 100.844 175.005 106.794V200.352C175.005 206.309 170.12 211.146 164.109 211.146ZM116.895 99.5957C112.886 99.5957 109.632 102.821 109.632 106.794V200.352C109.632 204.318 112.886 207.55 116.895 207.55H164.109C168.118 207.55 171.373 204.325 171.373 200.352V106.794C171.373 102.827 168.112 99.5957 164.109 99.5957H116.895Z" fill="#FB3E00"/>
<path d="M167.741 196.749H113.264V113.986H167.741V196.749ZM116.896 193.154H164.109V117.588H116.896V193.154Z" fill="#FB3E00"/>
<path d="M144.131 200.352H136.867V203.947H144.131V200.352Z" fill="#FB3E00"/>
<path d="M131.425 104.993H127.793V108.589H131.425V104.993Z" fill="#FB3E00"/>
<path d="M153.214 104.993H135.055V108.589H153.214V104.993Z" fill="#FB3E00"/>
<path d="M127.794 182.36H124.162V185.955H127.794V182.36Z" fill="#1A196F"/>
<path d="M135.056 182.36H131.424V185.955H135.056V182.36Z" fill="#1A196F"/>
<path d="M142.319 182.36H138.688V185.955H142.319V182.36Z" fill="#1A196F"/>
<path d="M149.581 182.36H145.949V185.955H149.581V182.36Z" fill="#1A196F"/>
<path d="M156.845 182.36H153.213V185.955H156.845V182.36Z" fill="#1A196F"/>
<path d="M127.794 124.78H124.162V128.376H127.794V124.78Z" fill="#1A196F"/>
<path d="M135.056 124.78H131.424V128.376H135.056V124.78Z" fill="#1A196F"/>
<path d="M142.319 124.78H138.688V128.376H142.319V124.78Z" fill="#1A196F"/>
<path d="M149.581 124.78H145.949V128.376H149.581V124.78Z" fill="#1A196F"/>
<path d="M156.845 124.78H153.213V128.376H156.845V124.78Z" fill="#1A196F"/>
<path d="M127.794 133.78H124.162V137.375H127.794V133.78Z" fill="#1A196F"/>
<path d="M135.056 133.78H131.424V137.375H135.056V133.78Z" fill="#1A196F"/>
<path d="M142.319 133.78H138.688V137.375H142.319V133.78Z" fill="#1A196F"/>
<path d="M149.581 133.78H145.949V137.375H149.581V133.78Z" fill="#1A196F"/>
<path d="M156.845 133.78H153.213V137.375H156.845V133.78Z" fill="#1A196F"/>
<path d="M127.794 142.772H124.162V146.368H127.794V142.772Z" fill="#1A196F"/>
<path d="M135.056 142.772H131.424V146.368H135.056V142.772Z" fill="#1A196F"/>
<path d="M142.319 142.772H138.688V146.368H142.319V142.772Z" fill="#1A196F"/>
<path d="M149.581 142.772H145.949V146.368H149.581V142.772Z" fill="#1A196F"/>
<path d="M156.845 142.772H153.213V146.368H156.845V142.772Z" fill="#1A196F"/>
<path d="M127.794 151.771H124.162V155.367H127.794V151.771Z" fill="#1A196F"/>
<path d="M135.056 151.771H131.424V155.367H135.056V151.771Z" fill="#1A196F"/>
<path d="M142.319 151.771H138.688V155.367H142.319V151.771Z" fill="#1A196F"/>
<path d="M149.581 151.771H145.949V155.367H149.581V151.771Z" fill="#1A196F"/>
<path d="M156.845 151.771H153.213V155.367H156.845V151.771Z" fill="#1A196F"/>
<path d="M127.794 160.764H124.162V164.36H127.794V160.764Z" fill="#1A196F"/>
<path d="M135.056 160.764H131.424V164.36H135.056V160.764Z" fill="#1A196F"/>
<path d="M142.319 160.764H138.688V164.36H142.319V160.764Z" fill="#1A196F"/>
<path d="M153.848 293.907V278.259H159.224C162.656 278.259 165.44 279.507 165.44 283.299C165.44 286.971 162.632 288.603 159.32 288.603H157.376V293.907H153.848ZM157.376 285.795H159.104C161.048 285.795 161.984 284.931 161.984 283.299C161.984 281.667 160.928 281.067 159.008 281.067H157.376V285.795ZM168.145 293.907V278.259H173.785C177.097 278.259 179.809 279.411 179.809 283.131C179.809 285.435 178.705 286.899 177.025 287.643L180.577 293.907H176.617L173.617 288.267H171.673V293.907H168.145ZM171.673 285.459H173.497C175.345 285.459 176.353 284.667 176.353 283.131C176.353 281.595 175.345 281.067 173.497 281.067H171.673V285.459ZM189.224 294.195C185 294.195 182.12 291.123 182.12 286.011C182.12 280.899 185 277.971 189.224 277.971C193.448 277.971 196.328 280.923 196.328 286.011C196.328 291.123 193.448 294.195 189.224 294.195ZM189.224 291.147C191.36 291.147 192.704 289.155 192.704 286.011C192.704 282.891 191.36 281.019 189.224 281.019C187.088 281.019 185.744 282.891 185.744 286.011C185.744 289.155 187.088 291.147 189.224 291.147ZM201.638 293.907V281.235H197.342V278.259H209.486V281.235H205.19V293.907H201.638ZM217.606 294.195C213.382 294.195 210.502 291.123 210.502 286.011C210.502 280.899 213.382 277.971 217.606 277.971C221.83 277.971 224.71 280.923 224.71 286.011C224.71 291.123 221.83 294.195 217.606 294.195ZM217.606 291.147C219.742 291.147 221.086 289.155 221.086 286.011C221.086 282.891 219.742 281.019 217.606 281.019C215.47 281.019 214.126 282.891 214.126 286.011C214.126 289.155 215.47 291.147 217.606 291.147ZM230.021 293.907V281.235H225.725V278.259H237.869V281.235H233.573V293.907H230.021ZM242.575 293.907V288.339L237.847 278.259H241.639L243.031 281.859C243.463 283.035 243.871 284.115 244.303 285.315H244.399C244.855 284.115 245.287 283.035 245.719 281.859L247.135 278.259H250.831L246.103 288.339V293.907H242.575ZM252.496 293.907V278.259H257.872C261.304 278.259 264.088 279.507 264.088 283.299C264.088 286.971 261.28 288.603 257.968 288.603H256.024V293.907H252.496ZM256.024 285.795H257.752C259.696 285.795 260.632 284.931 260.632 283.299C260.632 281.667 259.576 281.067 257.656 281.067H256.024V285.795ZM266.793 293.907V278.259H276.585V281.235H270.321V284.379H275.649V287.331H270.321V290.931H276.825V293.907H266.793Z" fill="#1A196F"/>
<path d="M141.718 42V33.472H127.106V29.416L140.21 8.928H147.334V28.844H151.494V33.472H147.334V42H141.718ZM133.034 28.844H141.718V21.356C141.718 19.432 141.874 16.416 141.978 14.492H141.77C140.938 16.208 140.002 17.872 139.066 19.64L133.034 28.844Z" fill="#FB3E00"/>
</svg>
