<svg width="283" height="308" viewBox="0 0 283 308" fill="none" xmlns="http://www.w3.org/2000/svg">
<path d="M25.6047 154.121C25.6047 100.657 62.0375 55.5643 111.347 42.3956C108.537 37.5652 106.92 31.9523 106.92 25.9549C106.92 22.7571 107.385 19.6674 108.24 16.7395C46.2367 31.6016 0 87.5552 0 154.121C0 232.014 63.2908 295.375 141.082 295.375V269.739C77.407 269.739 25.6047 217.873 25.6047 154.121Z" fill="#FB3E00"/>
<path d="M170.737 16.018C171.734 19.155 172.28 22.4944 172.28 25.9553C172.28 31.6761 170.811 37.0597 168.23 41.7348C218.854 53.9929 256.567 99.7259 256.567 154.121C256.567 189.121 240.982 221.868 213.8 243.948L229.938 263.856C263.136 236.885 282.178 196.886 282.178 154.121C282.178 86.4155 234.351 29.686 170.744 16.0112L170.737 16.018Z" fill="#FB3E00"/>
<path d="M192.674 210.609H90.2961C87.4257 210.609 85 207.384 85 203.573V199.033L98.247 191.49L99.999 194.546L88.5307 201.077V203.573C88.5307 205.725 89.7705 207.094 90.2961 207.094H192.674C193.2 207.094 194.44 205.732 194.44 203.573V201.077L182.972 194.546L184.724 191.49L197.971 199.033V203.573C197.971 207.391 195.545 210.609 192.674 210.609Z" fill="#1A196F"/>
<path d="M160.957 202.048L145.992 194.587L147.569 191.436L160.85 198.054L172.385 191.483L174.137 194.539L160.957 202.048Z" fill="#1A196F"/>
<path d="M104.417 196.529C98.3792 196.529 93.8242 190.855 93.8242 183.333C93.8242 178.011 95.0304 171.898 104.417 171.898C113.803 171.898 115.009 178.011 115.009 183.333C115.009 190.855 110.454 196.529 104.417 196.529ZM104.417 175.413C99.0732 175.413 97.355 177.336 97.355 183.333C97.355 188.022 99.8279 193.008 104.417 193.008C109.005 193.008 111.478 188.022 111.478 183.333C111.478 177.343 109.76 175.413 104.417 175.413Z" fill="#1A196F"/>
<path d="M141.487 196.529C135.449 196.529 130.895 190.855 130.895 183.333C130.895 178.011 132.101 171.898 141.487 171.898C150.873 171.898 152.079 178.011 152.079 183.333C152.079 190.855 147.524 196.529 141.487 196.529ZM141.487 175.413C136.144 175.413 134.425 177.336 134.425 183.333C134.425 188.022 136.898 193.008 141.487 193.008C146.075 193.008 148.548 188.022 148.548 183.333C148.548 177.343 146.83 175.413 141.487 175.413Z" fill="#1A196F"/>
<path d="M178.557 196.529C172.52 196.529 167.965 190.855 167.965 183.333C167.965 178.011 169.171 171.898 178.557 171.898C187.943 171.898 189.149 178.011 189.149 183.333C189.149 190.855 184.594 196.529 178.557 196.529ZM178.557 175.413C173.214 175.413 171.496 177.336 171.496 183.333C171.496 188.022 173.968 193.008 178.557 193.008C183.146 193.008 185.619 188.022 185.619 183.333C185.619 177.343 183.9 175.413 178.557 175.413Z" fill="#1A196F"/>
<path d="M123.837 200.051H120.307V205.327H123.837V200.051Z" fill="#1A196F"/>
<path d="M162.669 200.051H159.139V205.327H162.669V200.051Z" fill="#1A196F"/>
<path d="M178.558 168.377C178.107 168.377 177.656 168.202 177.312 167.865L167.238 157.826H152.812L142.739 167.865C142.052 168.553 140.933 168.553 140.246 167.865L130.172 157.826H115.746L105.673 167.865C104.985 168.553 103.867 168.553 103.18 167.865L93.1061 157.826H88.5445C86.5972 157.826 85.0137 156.248 85.0137 154.305V101.522C85.0137 99.5786 86.5972 98 88.5445 98H194.454C196.401 98 197.984 99.5786 197.984 101.522V154.305C197.984 156.248 196.401 157.826 194.454 157.826H189.892L179.818 167.865C179.475 168.209 179.023 168.377 178.572 168.377M152.098 154.298H167.986C168.451 154.298 168.903 154.48 169.233 154.811L178.579 164.127L187.924 154.811C188.255 154.48 188.706 154.298 189.171 154.298H194.467V101.515H88.5579V154.298H93.8541C94.319 154.298 94.7704 154.48 95.1006 154.811L104.446 164.127L113.792 154.811C114.122 154.48 114.574 154.298 115.039 154.298H130.927C131.392 154.298 131.843 154.48 132.174 154.811L141.519 164.127L150.865 154.811C151.195 154.48 151.647 154.298 152.111 154.298" fill="#1A196F"/>
<path d="M140.604 149.022H133.745L139.041 133.189H123.84V129.033L142.43 106.797H149.236L143.94 122.631H157.375V126.732L140.604 149.022ZM138.637 145.501H138.839L153.4 126.145H139.034L144.33 110.312H144.074L127.896 129.667H143.933L138.637 145.501Z" fill="#FB3E00"/>
<path d="M102.654 127.906H99.123V131.428H102.654V127.906Z" fill="#1A196F"/>
<path d="M109.716 127.906H106.186V131.428H109.716V127.906Z" fill="#1A196F"/>
<path d="M116.777 127.906H113.246V131.428H116.777V127.906Z" fill="#1A196F"/>
<path d="M169.732 127.906H166.201V131.428H169.732V127.906Z" fill="#1A196F"/>
<path d="M176.792 127.906H173.262V131.428H176.792V127.906Z" fill="#1A196F"/>
<path d="M183.855 127.906H180.324V131.428H183.855V127.906Z" fill="#1A196F"/>
<path d="M153.848 293.907V278.259H157.376V293.907H153.848ZM161.067 293.907V278.259H165.483C170.259 278.259 173.331 280.635 173.331 286.011C173.331 291.387 170.259 293.907 165.675 293.907H161.067ZM164.595 291.051H165.267C167.931 291.051 169.707 289.755 169.707 286.011C169.707 282.267 167.931 281.115 165.267 281.115H164.595V291.051ZM176.301 293.907V278.259H186.093V281.235H179.829V284.379H185.157V287.331H179.829V290.931H186.333V293.907H176.301ZM193.122 285.987L192.738 287.427H196.074L195.714 285.987C195.282 284.427 194.85 282.579 194.442 280.947H194.346C193.962 282.603 193.554 284.427 193.122 285.987ZM187.458 293.907L192.354 278.259H196.602L201.498 293.907H197.754L196.794 290.187H192.018L191.058 293.907H187.458ZM204.498 293.907V281.235H200.202V278.259H212.346V281.235H208.05V293.907H204.498ZM214.786 293.907V278.259H224.578V281.235H218.314V284.379H223.642V287.331H218.314V290.931H224.818V293.907H214.786Z" fill="#1A196F"/>
<path d="M138.65 42.624C133.294 42.624 129.758 40.544 127.418 37.944L130.278 34.096C132.254 36.124 134.802 37.736 138.13 37.736C141.718 37.736 144.214 35.864 144.214 32.744C144.214 29.312 142.03 27.128 134.49 27.128V22.76C140.99 22.76 143.122 20.524 143.122 17.456C143.122 14.7 141.25 13.036 138.234 13.036C135.634 13.036 133.606 14.284 131.578 16.156L128.51 12.464C131.318 9.968 134.49 8.304 138.442 8.304C144.786 8.304 149.154 11.424 149.154 17.04C149.154 20.732 146.97 23.228 143.382 24.632V24.84C147.282 25.88 150.246 28.688 150.246 33.056C150.246 39.088 144.994 42.624 138.65 42.624Z" fill="#1A196F"/>
</svg>
