<svg width="283" height="308" viewBox="0 0 283 308" fill="none" xmlns="http://www.w3.org/2000/svg">
<path d="M25.6047 154.121C25.6047 100.657 62.0375 55.5643 111.347 42.3956C108.537 37.5652 106.92 31.9523 106.92 25.9549C106.92 22.7571 107.385 19.6674 108.24 16.7395C46.2367 31.6016 0 87.5552 0 154.121C0 232.014 63.2908 295.375 141.082 295.375V269.739C77.407 269.739 25.6047 217.873 25.6047 154.121Z" fill="#FB3E00"/>
<path d="M170.737 16.018C171.734 19.155 172.28 22.4944 172.28 25.9553C172.28 31.6761 170.811 37.0597 168.23 41.7348C218.854 53.9929 256.567 99.7259 256.567 154.121C256.567 189.121 240.982 221.868 213.8 243.948L229.938 263.856C263.136 236.885 282.178 196.886 282.178 154.121C282.178 86.4155 234.351 29.686 170.744 16.0112L170.737 16.018Z" fill="#FB3E00"/>
<path d="M118.757 154.035H115.018C115.018 144.064 123.184 138.694 127.503 137.25L128.682 140.805C128.285 140.94 118.75 144.307 118.75 154.035" fill="#FB3E00"/>
<path d="M152.386 154.035H148.647C148.647 144.3 139.112 140.94 138.715 140.806L139.901 137.25C144.22 138.694 152.386 144.064 152.386 154.035Z" fill="#FB3E00"/>
<path d="M133.702 142.782C127.308 142.782 122.49 136.73 122.49 128.709C122.49 123.029 123.764 116.512 133.702 116.512C143.641 116.512 144.915 123.029 144.915 128.709C144.915 136.73 140.097 142.782 133.702 142.782ZM133.702 120.269C128.042 120.269 126.23 122.32 126.23 128.709C126.23 133.708 128.851 139.031 133.702 139.031C138.554 139.031 141.175 133.715 141.175 128.709C141.175 122.32 139.362 120.269 133.702 120.269Z" fill="#FB3E00"/>
<path d="M156.119 199.067H96.3391C95.3082 199.067 94.4727 198.23 94.4727 197.191V95.8755C94.4727 94.8366 95.3082 94 96.3391 94H171.064C172.095 94 172.931 94.8366 172.931 95.8755V140.9H169.191V97.751H98.1988V195.309H156.113V199.06L156.119 199.067Z" fill="#1A196F"/>
<path d="M189.75 197.191H186.011L186.091 192.901L191.617 174.402V157.793C191.617 156.754 190.781 155.917 189.75 155.917C188.719 155.917 187.884 156.761 187.884 157.793H184.144V154.042C184.144 153.003 183.309 152.166 182.278 152.166C181.247 152.166 180.411 153.01 180.411 154.042H176.672C176.672 153.003 175.836 152.166 174.805 152.166C173.774 152.166 172.939 153.01 172.939 154.042H169.199V150.291C169.199 149.252 168.364 148.415 167.333 148.415C166.302 148.415 165.466 149.259 165.466 150.291V170.928H161.727V150.291C161.727 147.188 164.24 144.665 167.333 144.665C169.913 144.665 172.09 146.425 172.743 148.813C174.643 148.058 177.049 148.51 178.545 149.852C179.535 148.962 180.849 148.415 182.284 148.415C184.865 148.415 187.042 150.176 187.695 152.564C188.335 152.308 189.029 152.166 189.757 152.166C192.85 152.166 195.363 154.69 195.363 157.793L195.282 175.218L189.757 193.717V197.198L189.75 197.191Z" fill="#1A196F"/>
<path d="M172.939 150.284H169.199V163.419H172.939V150.284Z" fill="#1A196F"/>
<path d="M180.41 154.035H176.67V163.419H180.41V154.035Z" fill="#1A196F"/>
<path d="M187.882 157.793H184.143V163.419H187.882V157.793Z" fill="#1A196F"/>
<path d="M167.329 197.191H163.589V190.31L158.185 183.017L154.25 175.117V161.544H157.983V174.234L161.446 181.189L167.329 189.062V197.191Z" fill="#1A196F"/>
<path d="M171.072 202.818H167.332V206.569H171.072V202.818Z" fill="#FB3E00"/>
<path d="M162.273 159.122L152.934 149.738L155.575 147.086L164.921 156.464L162.273 159.122Z" fill="#1A196F"/>
<path d="M162.271 170.375L147.326 155.364L149.967 152.713L164.913 167.723L162.271 170.375Z" fill="#1A196F"/>
<path d="M133.703 161.543C118.253 161.543 105.68 148.921 105.68 133.398C105.68 117.875 118.253 105.252 133.703 105.252C149.154 105.252 161.727 117.875 161.727 133.398C161.727 148.921 149.154 161.543 133.703 161.543ZM133.703 109.01C120.315 109.01 109.419 119.953 109.419 133.398C109.419 146.843 120.315 157.786 133.703 157.786C147.092 157.786 157.987 146.843 157.987 133.398C157.987 119.953 147.092 109.01 133.703 109.01Z" fill="#1A196F"/>
<path d="M120.625 169.045H105.68V172.796H120.625V169.045Z" fill="#FB3E00"/>
<path d="M131.837 176.554H105.68V180.305H131.837V176.554Z" fill="#FB3E00"/>
<path d="M150.515 184.056H105.68V187.807H150.515V184.056Z" fill="#FB3E00"/>
<path d="M150.519 169.046H124.361V172.797H150.519V169.046Z" fill="#FB3E00"/>
<path d="M150.513 176.554H135.568V180.305H150.513V176.554Z" fill="#FB3E00"/>
<path d="M193.482 214.077H189.743V199.067H163.585V214.077H159.846V199.067C159.846 196.995 161.523 195.316 163.585 195.316H189.743C191.804 195.316 193.482 196.995 193.482 199.067V214.077Z" fill="#1A196F"/>
<path d="M156.119 206.568H88.8664C87.8355 206.568 87 205.732 87 204.693V97.7507H90.7396V202.817H156.126V206.568H156.119Z" fill="#1A196F"/>
<path d="M153.848 293.907V278.259H158.264C163.04 278.259 166.112 280.635 166.112 286.011C166.112 291.387 163.04 293.907 158.456 293.907H153.848ZM157.376 291.051H158.048C160.712 291.051 162.488 289.755 162.488 286.011C162.488 282.267 160.712 281.115 158.048 281.115H157.376V291.051ZM169.082 293.907V278.259H172.61V293.907H169.082ZM181.077 294.195C179.037 294.195 176.877 293.427 175.293 291.939L177.309 289.515C178.437 290.475 179.877 291.147 181.173 291.147C182.637 291.147 183.357 290.571 183.357 289.635C183.357 288.651 182.469 288.339 181.101 287.763L179.061 286.899C177.453 286.251 175.917 284.907 175.917 282.627C175.917 280.035 178.221 277.971 181.485 277.971C183.285 277.971 185.181 278.691 186.525 280.035L184.725 282.267C183.693 281.475 182.733 281.019 181.485 281.019C180.261 281.019 179.493 281.547 179.493 282.435C179.493 283.395 180.525 283.731 181.869 284.283L183.885 285.099C185.781 285.867 186.981 287.139 186.981 289.347C186.981 291.939 184.821 294.195 181.077 294.195ZM196.165 294.195C192.205 294.195 188.893 291.435 188.893 286.179C188.893 280.995 192.325 277.971 196.285 277.971C198.301 277.971 199.933 278.931 200.989 280.011L199.117 282.267C198.325 281.547 197.485 281.019 196.357 281.019C194.221 281.019 192.517 282.915 192.517 286.059C192.517 289.275 194.005 291.147 196.309 291.147C197.581 291.147 198.589 290.499 199.357 289.683L201.229 291.891C199.933 293.403 198.205 294.195 196.165 294.195ZM209.075 294.195C204.851 294.195 201.971 291.123 201.971 286.011C201.971 280.899 204.851 277.971 209.075 277.971C213.299 277.971 216.179 280.923 216.179 286.011C216.179 291.123 213.299 294.195 209.075 294.195ZM209.075 291.147C211.211 291.147 212.555 289.155 212.555 286.011C212.555 282.891 211.211 281.019 209.075 281.019C206.939 281.019 205.595 282.891 205.595 286.011C205.595 289.155 206.939 291.147 209.075 291.147ZM221.599 293.907L216.871 278.259H220.615L222.487 285.555C222.967 287.259 223.279 288.843 223.759 290.571H223.855C224.311 288.843 224.647 287.259 225.103 285.555L226.951 278.259H230.551L225.847 293.907H221.599ZM232.223 293.907V278.259H242.015V281.235H235.751V284.379H241.079V287.331H235.751V290.931H242.255V293.907H232.223ZM245.371 293.907V278.259H251.011C254.323 278.259 257.035 279.411 257.035 283.131C257.035 285.435 255.931 286.899 254.251 287.643L257.803 293.907H253.843L250.843 288.267H248.899V293.907H245.371ZM248.899 285.459H250.723C252.571 285.459 253.579 284.667 253.579 283.131C253.579 281.595 252.571 281.067 250.723 281.067H248.899V285.459Z" fill="#1A196F"/>
<path d="M130.018 42V37.112H137.402V15.376H131.318V11.632C134.594 11.008 136.882 10.176 138.962 8.928H143.434V37.112H149.934V42H130.018Z" fill="#1A196F"/>
</svg>
