<svg width="283" height="308" viewBox="0 0 283 308" fill="none" xmlns="http://www.w3.org/2000/svg">
<path d="M25.6047 154.121C25.6047 100.657 62.0375 55.5643 111.347 42.3956C108.537 37.5652 106.92 31.9523 106.92 25.9549C106.92 22.7571 107.385 19.6674 108.24 16.7395C46.2367 31.6016 0 87.5552 0 154.121C0 232.014 63.2908 295.375 141.082 295.375V269.739C77.407 269.739 25.6047 217.873 25.6047 154.121Z" fill="#1A196F"/>
<path d="M170.737 16.018C171.734 19.155 172.28 22.4944 172.28 25.9553C172.28 31.6761 170.811 37.0597 168.23 41.7348C218.854 53.9929 256.567 99.7259 256.567 154.121C256.567 189.121 240.982 221.868 213.8 243.948L229.938 263.856C263.136 236.885 282.178 196.886 282.178 154.121C282.178 86.4155 234.351 29.686 170.744 16.0112L170.737 16.018Z" fill="#1A196F"/>
<path d="M169.726 169.968H141.258V173.53H169.726V169.968Z" fill="#FB3E00"/>
<path d="M169.726 137.93H141.258V141.492H169.726V137.93Z" fill="#FB3E00"/>
<path d="M169.725 205.554H157.273C152.368 205.554 148.379 201.561 148.379 196.656V114.797C148.379 109.892 152.368 105.898 157.273 105.898H169.725V109.46H157.273C154.329 109.46 151.937 111.855 151.937 114.797V196.656C151.937 199.597 154.329 201.992 157.273 201.992H169.725V205.554Z" fill="#1A196F"/>
<path d="M180.404 114.796C176.476 114.796 173.289 111.605 173.289 107.679C173.289 103.753 176.483 100.562 180.404 100.562C184.326 100.562 187.52 103.753 187.52 107.679C187.52 111.605 184.326 114.796 180.404 114.796ZM180.404 104.117C178.444 104.117 176.847 105.716 176.847 107.679C176.847 109.642 178.444 111.241 180.404 111.241C182.365 111.241 183.962 109.642 183.962 107.679C183.962 105.716 182.365 104.117 180.404 104.117Z" fill="#FB3E00"/>
<path d="M180.404 178.859C176.476 178.859 173.289 175.668 173.289 171.742C173.289 167.815 176.483 164.625 180.404 164.625C184.326 164.625 187.52 167.815 187.52 171.742C187.52 175.668 184.326 178.859 180.404 178.859ZM180.404 168.18C178.444 168.18 176.847 169.779 176.847 171.742C176.847 173.705 178.444 175.304 180.404 175.304C182.365 175.304 183.962 173.705 183.962 171.742C183.962 169.779 182.365 168.18 180.404 168.18Z" fill="#1A196F"/>
<path d="M180.404 210.898C176.476 210.898 173.289 207.706 173.289 203.78C173.289 199.854 176.483 196.663 180.404 196.663C184.326 196.663 187.52 199.854 187.52 203.78C187.52 207.706 184.326 210.898 180.404 210.898ZM180.404 200.218C178.444 200.218 176.847 201.817 176.847 203.78C176.847 205.743 178.444 207.342 180.404 207.342C182.365 207.342 183.962 205.743 183.962 203.78C183.962 201.817 182.365 200.218 180.404 200.218Z" fill="#FB3E00"/>
<path d="M180.404 146.828C176.476 146.828 173.289 143.637 173.289 139.711C173.289 135.784 176.483 132.593 180.404 132.593C184.326 132.593 187.52 135.784 187.52 139.711C187.52 143.637 184.326 146.828 180.404 146.828ZM180.404 136.148C178.444 136.148 176.847 137.747 176.847 139.711C176.847 141.674 178.444 143.273 180.404 143.273C182.365 143.273 183.962 141.674 183.962 139.711C183.962 137.747 182.365 136.148 180.404 136.148Z" fill="#1A196F"/>
<path d="M118.124 169.968H114.566V210.898H118.124V169.968Z" fill="#FB3E00"/>
<path d="M116.345 118.359C110.456 118.359 105.672 113.569 105.672 107.679C105.672 101.79 110.463 97 116.345 97C122.227 97 127.018 101.79 127.018 107.679C127.018 113.569 122.227 118.359 116.345 118.359ZM116.345 100.562C112.417 100.562 109.23 103.753 109.23 107.679C109.23 111.606 112.423 114.797 116.345 114.797C120.267 114.797 123.46 111.606 123.46 107.679C123.46 103.753 120.267 100.562 116.345 100.562Z" fill="#1A196F"/>
<path d="M130.584 210.897H127.026V162.85H134.141V136.155C134.141 130.266 129.351 125.476 123.468 125.476H109.231C103.342 125.476 98.5577 130.266 98.5577 136.155V162.85H105.673V210.897H102.115V166.405H95V136.155C95 128.302 101.388 121.92 109.238 121.92H123.475C131.325 121.92 137.713 128.309 137.713 136.155V166.405H130.597V210.897H130.584Z" fill="#1A196F"/>
<path d="M118.124 129.031H114.566V132.593H118.124V129.031Z" fill="#FB3E00"/>
<path d="M118.124 136.148H114.566V139.71H118.124V136.148Z" fill="#FB3E00"/>
<path d="M153.848 293.907V278.259H158.264C163.04 278.259 166.112 280.635 166.112 286.011C166.112 291.387 163.04 293.907 158.456 293.907H153.848ZM157.376 291.051H158.048C160.712 291.051 162.488 289.755 162.488 286.011C162.488 282.267 160.712 281.115 158.048 281.115H157.376V291.051ZM169.082 293.907V278.259H178.874V281.235H172.61V284.379H177.938V287.331H172.61V290.931H179.114V293.907H169.082ZM182.231 293.907V278.259H192.095V281.235H185.759V284.859H191.183V287.835H185.759V293.907H182.231ZM194.817 293.907V278.259H198.345V293.907H194.817ZM202.036 293.907V278.259H205.66L209.74 286.035L211.276 289.491H211.372C211.228 287.835 210.94 285.627 210.94 283.779V278.259H214.299V293.907H210.676L206.596 286.107L205.06 282.699H204.964C205.108 284.427 205.396 286.515 205.396 288.363V293.907H202.036ZM217.996 293.907V278.259H227.788V281.235H221.524V284.379H226.852V287.331H221.524V290.931H228.028V293.907H217.996Z" fill="#1A196F"/>
<path d="M128.146 42V38.516C137.35 29.624 143.122 23.8 143.122 18.756C143.122 15.272 141.198 13.036 137.662 13.036C135.114 13.036 132.982 14.752 131.214 16.728L127.886 13.4C130.902 10.176 133.918 8.304 138.442 8.304C144.786 8.304 148.894 12.308 148.894 18.444C148.894 24.32 143.434 30.352 136.882 37.268C138.598 37.112 140.782 36.904 142.394 36.904H150.506V42H128.146Z" fill="#FB3E00"/>
</svg>
