<svg width="283" height="308" viewBox="0 0 283 308" fill="none" xmlns="http://www.w3.org/2000/svg">
<path d="M25.6047 154.121C25.6047 100.657 62.0375 55.5643 111.347 42.3956C108.537 37.5652 106.92 31.9523 106.92 25.9549C106.92 22.7571 107.385 19.6674 108.24 16.7395C46.2367 31.6016 0 87.5552 0 154.121C0 232.014 63.2908 295.375 141.082 295.375V269.739C77.407 269.739 25.6047 217.873 25.6047 154.121Z" fill="#FB3E00"/>
<path d="M170.737 16.018C171.734 19.155 172.28 22.4944 172.28 25.9553C172.28 31.6761 170.811 37.0597 168.23 41.7348C218.854 53.9929 256.567 99.7259 256.567 154.121C256.567 189.121 240.982 221.868 213.8 243.948L229.938 263.856C263.136 236.885 282.178 196.886 282.178 154.121C282.178 86.4155 234.351 29.686 170.744 16.0112L170.737 16.018Z" fill="#FB3E00"/>
<path d="M105.477 151.223C105.005 151.223 104.533 151.041 104.176 150.684L96.8047 143.283L99.4123 140.666L105.483 146.757L111.554 140.666L114.162 143.283L106.79 150.684C106.433 151.048 105.962 151.223 105.49 151.223" fill="#1A196F"/>
<path d="M107.32 149.375H103.635V127.18C103.635 119.017 110.245 112.378 118.378 112.378H153.389V116.075H118.378C112.28 116.075 107.32 121.054 107.32 127.173V149.368V149.375Z" fill="#1A196F"/>
<path d="M189.002 194.346L182.931 188.254L176.86 194.346L174.252 191.729L181.623 184.328C182.344 183.606 183.51 183.606 184.231 184.328L191.603 191.729L188.995 194.346H189.002Z" fill="#1A196F"/>
<path d="M170.031 222.634H135.02V218.937H170.031C176.129 218.937 181.088 213.958 181.088 207.839V185.644H184.773V207.839C184.773 216.002 178.164 222.64 170.031 222.64" fill="#1A196F"/>
<path d="M102.268 211.455C95.9613 211.455 91.2109 205.491 91.2109 197.578C91.2109 191.978 92.4642 185.556 102.268 185.556C112.072 185.556 113.325 191.978 113.325 197.578C113.325 205.484 108.575 211.455 102.268 211.455ZM102.268 189.259C96.689 189.259 94.8967 191.283 94.8967 197.584C94.8967 202.516 97.4841 207.758 102.268 207.758C107.052 207.758 109.64 202.516 109.64 197.584C109.64 191.283 107.847 189.259 102.268 189.259Z" fill="#FB3E00"/>
<path d="M117.011 226.249H87.5252C84.5267 226.249 82 222.863 82 218.849V214.079L95.8266 206.146L97.6525 209.357L85.679 216.225V218.849C85.679 221.109 86.9727 222.546 87.5184 222.546H117.004C117.55 222.546 118.844 221.109 118.844 218.849V216.225L106.87 209.357L108.696 206.146L122.523 214.079V218.849C122.523 222.856 119.989 226.249 116.998 226.249" fill="#FB3E00"/>
<path d="M180.167 107.892C173.86 107.892 169.109 101.929 169.109 94.0219C169.109 88.4225 170.363 82 180.167 82C189.97 82 191.224 88.4225 191.224 94.0219C191.224 101.929 186.473 107.892 180.167 107.892ZM180.167 85.697C174.587 85.697 172.795 87.7209 172.795 94.0219C172.795 98.9535 175.383 104.195 180.167 104.195C184.951 104.195 187.538 98.9535 187.538 94.0219C187.538 87.7209 185.746 85.697 180.167 85.697Z" fill="#FB3E00"/>
<path d="M194.911 122.694H165.426C162.427 122.694 159.9 119.307 159.9 115.293V110.523L173.727 102.59L175.553 105.801L163.579 112.669V115.293C163.579 117.553 164.873 118.99 165.419 118.99H194.905C195.45 118.99 196.744 117.553 196.744 115.293V112.669L184.771 105.801L186.597 102.59L200.423 110.523V115.293C200.423 119.3 197.89 122.694 194.898 122.694" fill="#FB3E00"/>
<path d="M162.681 211.293H127.784C123.344 211.293 119.732 207.663 119.732 203.211V133.151C119.732 128.691 123.344 125.069 127.784 125.069H162.681C167.121 125.069 170.733 128.691 170.733 133.151V203.211C170.733 207.67 167.121 211.293 162.681 211.293ZM127.784 127.76C124.82 127.76 122.414 130.176 122.414 133.151V203.211C122.414 206.179 124.82 208.601 127.784 208.601H162.681C165.639 208.601 168.051 206.179 168.051 203.211V133.151C168.051 130.182 165.646 127.76 162.681 127.76H127.784Z" fill="#1A196F"/>
<path d="M165.364 200.519H125.098V138.541H165.364V200.519ZM127.779 197.821H162.676V141.233H127.779V197.821Z" fill="#1A196F"/>
<path d="M147.919 203.211H142.549V205.902H147.919V203.211Z" fill="#1A196F"/>
<path d="M138.518 131.802H135.836V134.493H138.518V131.802Z" fill="#1A196F"/>
<path d="M154.625 131.801H141.203V134.493H154.625V131.801Z" fill="#1A196F"/>
<path d="M135.83 189.738H133.148V192.43H135.83V189.738Z" fill="#FB3E00"/>
<path d="M141.201 189.738H138.52V192.43H141.201V189.738Z" fill="#FB3E00"/>
<path d="M146.568 189.738H143.887V192.43H146.568V189.738Z" fill="#FB3E00"/>
<path d="M151.94 189.738H149.258V192.43H151.94V189.738Z" fill="#FB3E00"/>
<path d="M157.313 189.738H154.631V192.43H157.313V189.738Z" fill="#FB3E00"/>
<path d="M135.83 146.623H133.148V149.314H135.83V146.623Z" fill="#FB3E00"/>
<path d="M141.201 146.623H138.52V149.314H141.201V146.623Z" fill="#FB3E00"/>
<path d="M146.568 146.623H143.887V149.314H146.568V146.623Z" fill="#FB3E00"/>
<path d="M151.94 146.623H149.258V149.314H151.94V146.623Z" fill="#FB3E00"/>
<path d="M157.313 146.623H154.631V149.314H157.313V146.623Z" fill="#FB3E00"/>
<path d="M135.83 153.356H133.148V156.047H135.83V153.356Z" fill="#FB3E00"/>
<path d="M141.201 153.356H138.52V156.047H141.201V153.356Z" fill="#FB3E00"/>
<path d="M146.568 153.356H143.887V156.048H146.568V153.356Z" fill="#FB3E00"/>
<path d="M151.94 153.356H149.258V156.047H151.94V153.356Z" fill="#FB3E00"/>
<path d="M157.313 153.356H154.631V156.047H157.313V153.356Z" fill="#FB3E00"/>
<path d="M135.83 160.095H133.148V162.787H135.83V160.095Z" fill="#FB3E00"/>
<path d="M141.201 160.095H138.52V162.787H141.201V160.095Z" fill="#FB3E00"/>
<path d="M146.568 160.095H143.887V162.787H146.568V160.095Z" fill="#FB3E00"/>
<path d="M151.94 160.095H149.258V162.787H151.94V160.095Z" fill="#FB3E00"/>
<path d="M157.313 160.095H154.631V162.787H157.313V160.095Z" fill="#FB3E00"/>
<path d="M135.83 166.835H133.148V169.527H135.83V166.835Z" fill="#FB3E00"/>
<path d="M141.201 166.835H138.52V169.527H141.201V166.835Z" fill="#FB3E00"/>
<path d="M146.568 166.835H143.887V169.527H146.568V166.835Z" fill="#FB3E00"/>
<path d="M151.94 166.835H149.258V169.527H151.94V166.835Z" fill="#FB3E00"/>
<path d="M157.313 166.835H154.631V169.527H157.313V166.835Z" fill="#FB3E00"/>
<path d="M135.83 173.568H133.148V176.26H135.83V173.568Z" fill="#FB3E00"/>
<path d="M141.201 173.568H138.52V176.26H141.201V173.568Z" fill="#FB3E00"/>
<path d="M146.568 173.568H143.887V176.26H146.568V173.568Z" fill="#FB3E00"/>
<path d="M156.896 293.907V281.235H152.6V278.259H164.744V281.235H160.448V293.907H156.896ZM167.184 293.907V278.259H176.976V281.235H170.712V284.379H176.04V287.331H170.712V290.931H177.216V293.907H167.184ZM185.108 294.195C183.068 294.195 180.908 293.427 179.324 291.939L181.34 289.515C182.468 290.475 183.908 291.147 185.204 291.147C186.668 291.147 187.388 290.571 187.388 289.635C187.388 288.651 186.5 288.339 185.132 287.763L183.092 286.899C181.484 286.251 179.948 284.907 179.948 282.627C179.948 280.035 182.252 277.971 185.516 277.971C187.316 277.971 189.212 278.691 190.556 280.035L188.756 282.267C187.724 281.475 186.764 281.019 185.516 281.019C184.292 281.019 183.524 281.547 183.524 282.435C183.524 283.395 184.556 283.731 185.9 284.283L187.916 285.099C189.812 285.867 191.012 287.139 191.012 289.347C191.012 291.939 188.852 294.195 185.108 294.195ZM196.248 293.907V281.235H191.952V278.259H204.096V281.235H199.8V293.907H196.248Z" fill="#1A196F"/>
<path d="M138.702 42.624C133.346 42.624 129.862 40.492 127.418 38.048L130.174 34.2C132.15 36.072 134.594 37.736 137.922 37.736C141.614 37.736 144.318 35.396 144.318 31.392C144.318 27.44 141.874 25.204 138.234 25.204C136.102 25.204 134.906 25.776 132.93 27.076L130.07 25.256L131.058 8.928H148.738V13.972H136.258L135.582 21.98C136.986 21.304 138.234 20.888 139.95 20.888C145.618 20.888 150.35 24.112 150.35 31.236C150.35 38.464 144.786 42.624 138.702 42.624Z" fill="#1A196F"/>
</svg>
