<svg width="626" height="156" viewBox="0 0 626 156" fill="none" xmlns="http://www.w3.org/2000/svg">
<path d="M15.552 153V12.6H107.136V43.704H52.704V70.488H99.36V101.592H52.704V153H15.552ZM131.357 153V12.6H168.509V121.896H221.645V153H131.357ZM416.532 155.592C407.748 155.592 398.604 153.936 389.1 150.624C379.596 147.312 371.028 142.272 363.396 135.504L384.564 110.016C389.604 114.048 395.004 117.36 400.764 119.952C406.668 122.4 412.212 123.624 417.396 123.624C423.012 123.624 427.044 122.76 429.492 121.032C432.084 119.304 433.38 116.856 433.38 113.688C433.38 110.376 431.652 107.856 428.196 106.128C424.884 104.4 420.276 102.384 414.372 100.08L396.876 92.736C389.388 89.712 382.764 84.96 377.004 78.48C371.388 72 368.58 63.72 368.58 53.64C368.58 45.576 370.812 38.304 375.276 31.824C379.74 25.2 385.86 19.944 393.636 16.056C401.556 12.024 410.628 10.008 420.852 10.008C428.916 10.008 437.052 11.592 445.26 14.76C453.612 17.784 461.028 22.464 467.508 28.8L448.932 52.128C444.18 48.816 439.572 46.296 435.108 44.568C430.788 42.84 426.036 41.976 420.852 41.976C416.388 41.976 412.788 42.768 410.052 44.352C407.46 45.936 406.164 48.312 406.164 51.48C406.164 54.792 408.036 57.384 411.78 59.256C415.524 60.984 420.564 63.072 426.9 65.52L443.964 72.216C452.748 75.672 459.516 80.496 464.268 86.688C469.02 92.88 471.396 100.872 471.396 110.664C471.396 118.584 469.236 126 464.916 132.912C460.74 139.68 454.548 145.152 446.34 149.328C438.132 153.504 428.196 155.592 416.532 155.592ZM493.958 153V12.6H531.11V64.872H573.014V12.6H610.166V153H573.014V97.272H531.11V153H493.958Z" fill="#1A196F"/>
<path d="M299 12L238 153H360L299 12Z" fill="#1A196F"/>
</svg>
