<svg width="626" height="367" viewBox="0 0 626 367" fill="none" xmlns="http://www.w3.org/2000/svg">
<path d="M15.552 153V12.6H107.136V43.704H52.704V70.488H99.36V101.592H52.704V153H15.552ZM131.357 153V12.6H168.509V121.896H221.645V153H131.357ZM416.532 155.592C407.748 155.592 398.604 153.936 389.1 150.624C379.596 147.312 371.028 142.272 363.396 135.504L384.564 110.016C389.604 114.048 395.004 117.36 400.764 119.952C406.668 122.4 412.212 123.624 417.396 123.624C423.012 123.624 427.044 122.76 429.492 121.032C432.084 119.304 433.38 116.856 433.38 113.688C433.38 110.376 431.652 107.856 428.196 106.128C424.884 104.4 420.276 102.384 414.372 100.08L396.876 92.736C389.388 89.712 382.764 84.96 377.004 78.48C371.388 72 368.58 63.72 368.58 53.64C368.58 45.576 370.812 38.304 375.276 31.824C379.74 25.2 385.86 19.944 393.636 16.056C401.556 12.024 410.628 10.008 420.852 10.008C428.916 10.008 437.052 11.592 445.26 14.76C453.612 17.784 461.028 22.464 467.508 28.8L448.932 52.128C444.18 48.816 439.572 46.296 435.108 44.568C430.788 42.84 426.036 41.976 420.852 41.976C416.388 41.976 412.788 42.768 410.052 44.352C407.46 45.936 406.164 48.312 406.164 51.48C406.164 54.792 408.036 57.384 411.78 59.256C415.524 60.984 420.564 63.072 426.9 65.52L443.964 72.216C452.748 75.672 459.516 80.496 464.268 86.688C469.02 92.88 471.396 100.872 471.396 110.664C471.396 118.584 469.236 126 464.916 132.912C460.74 139.68 454.548 145.152 446.34 149.328C438.132 153.504 428.196 155.592 416.532 155.592ZM493.958 153V12.6H531.11V64.872H573.014V12.6H610.166V153H573.014V97.272H531.11V153H493.958Z" fill="#1A196F"/>
<path d="M299 12L238 153H360L299 12Z" fill="#1A196F"/>
<path d="M15.552 364V223.6H66.096C75.888 223.6 84.816 224.608 92.88 226.624C100.944 228.64 107.352 232.168 112.104 237.208C116.856 242.248 119.232 249.376 119.232 258.592C119.232 264.64 117.648 270.688 114.48 276.736C111.312 282.64 106.992 286.672 101.52 288.832V289.696C108.288 291.568 113.976 295.168 118.584 300.496C123.336 305.824 125.712 313.168 125.712 322.528C125.712 332.176 123.192 340.096 118.152 346.288C113.112 352.336 106.416 356.8 98.064 359.68C89.712 362.56 80.496 364 70.416 364H15.552ZM52.704 278.464H65.232C71.28 278.464 75.744 277.168 78.624 274.576C81.504 271.984 82.944 268.528 82.944 264.208C82.944 259.888 81.504 256.792 78.624 254.92C75.744 253.048 71.28 252.112 65.232 252.112H52.704V278.464ZM52.704 335.488H67.824C82.224 335.488 89.424 330.304 89.424 319.936C89.424 314.752 87.624 311.08 84.024 308.92C80.568 306.76 75.168 305.68 67.824 305.68H52.704V335.488ZM210.666 366.592C191.082 366.592 176.466 360.832 166.818 349.312C157.17 337.792 152.346 320.08 152.346 296.176V223.6H189.498V300.496C189.498 313.024 191.154 321.88 194.466 327.064C197.922 332.104 203.322 334.624 210.666 334.624C218.01 334.624 223.41 332.104 226.866 327.064C230.466 321.88 232.266 313.024 232.266 300.496V223.6H268.122V296.176C268.122 320.08 263.442 337.792 254.082 349.312C244.866 360.832 230.394 366.592 210.666 366.592ZM377.479 364V223.6H414.631V332.896H467.767V364H377.479ZM497.418 364V223.6H538.89C553.146 223.6 565.674 225.976 576.474 230.728C587.418 235.336 595.914 242.752 601.962 252.976C608.01 263.2 611.034 276.592 611.034 293.152C611.034 309.712 608.01 323.248 601.962 333.76C595.914 344.128 587.634 351.76 577.122 356.656C566.61 361.552 554.586 364 541.05 364H497.418ZM534.57 334.192H536.73C543.498 334.192 549.618 333.04 555.09 330.736C560.562 328.432 564.882 324.328 568.05 318.424C571.362 312.52 573.018 304.096 573.018 293.152C573.018 282.208 571.362 273.928 568.05 268.312C564.882 262.552 560.562 258.664 555.09 256.648C549.618 254.488 543.498 253.408 536.73 253.408H534.57V334.192Z" fill="#1A196F"/>
<rect x="302" y="226" width="30" height="30" fill="#FB3E00"/>
</svg>
