<svg width="521" height="198" viewBox="0 0 521 198" fill="none" xmlns="http://www.w3.org/2000/svg">
<g clip-path="url(#clip0_468_2315)">
<path d="M11.9812 122.963V78.2707H0.986328V65.6636H11.9812V61.7598C11.9812 46.1923 22.6157 39 34.4488 39C39.8987 39.0922 45.2065 40.7298 49.7391 43.7174L44.3629 54.4512C41.2591 52.4412 38.3909 51.3815 35.4049 51.3815C30.3821 51.3815 26.5578 54.6837 26.5578 61.7598V65.6636H43.8779V78.2707H26.5578V122.963H11.9812Z" fill="#1A16E3"/>
<path d="M66.8042 40.5315V122.963H52.373V40.5315H66.8042Z" fill="#1A16E3"/>
<path d="M123.349 64.8224H137.337V122.935H123.612L122.919 114.444C119.58 121.281 110.373 124.583 103.805 124.699C86.3532 124.815 73.4531 114.198 73.4531 93.7969C73.4531 73.7513 86.9559 63.2568 104.158 63.373C112.049 63.373 119.58 67.0307 122.919 72.8078L123.349 64.8224ZM87.9813 93.831C87.9813 104.92 95.7476 111.525 105.426 111.525C128.372 111.525 128.372 76.2673 105.426 76.2673C95.7476 76.2673 87.9813 82.7554 87.9813 93.831Z" fill="#1A16E3"/>
<path d="M185.132 80.2739C180.975 76.3838 176.167 75.0848 170.583 75.0848C163.655 75.0848 159.824 77.2042 159.824 80.8619C159.824 84.6358 163.288 86.7621 170.819 87.2338C181.904 87.9175 196.037 90.4129 196.037 105.864C196.037 116.119 187.55 124.966 170.701 124.966C161.383 124.966 152.058 123.435 143.453 114.588L150.624 104.333C154.781 108.927 164.369 112.345 170.937 112.469C176.438 112.585 181.571 109.734 181.571 105.509C181.571 101.502 178.232 99.8477 169.863 99.3555C158.778 98.5282 145.483 94.5219 145.483 81.3131C145.483 67.8719 159.589 63.1545 170.341 63.1545C179.541 63.1545 186.476 64.9253 193.287 70.8186L185.132 80.2739Z" fill="#1A16E3"/>
<path d="M355.418 64.8228V95.2466C355.418 104.093 360.317 110.814 369.642 110.814C378.6 110.814 384.696 103.389 384.696 94.5424V64.8228H399.155V123.093H386.13L385.174 115.19C379.078 121.09 373.466 123.92 365.222 123.92C351.116 123.92 340.842 113.426 340.842 95.3833V64.8228H355.418Z" fill="#FB3E00"/>
<path d="M424.983 48.4348C424.983 59.6335 407.773 59.6335 407.773 48.4348C407.773 37.2361 424.983 37.2293 424.983 48.4348Z" fill="#1A16E3"/>
<path d="M423.655 64.5903H409.078V122.963H423.655V64.5903Z" fill="#FB3E00"/>
<path d="M448.269 40.5315V122.963H433.811V40.5315H448.269Z" fill="#FB3E00"/>
<path d="M519.256 40.5315V122.963H505.635L504.658 114.943C500.113 121.903 492.825 124.262 485.655 124.262C468.334 124.262 455.303 112.94 455.303 93.8313C455.303 73.7858 468.092 63.4075 485.294 63.4075C491.53 63.4075 501.187 66.7097 504.658 72.7261V40.5315H519.256ZM469.9 93.8587C469.9 104.005 477.313 110.951 486.631 110.951C495.832 110.951 503.723 104.346 503.723 93.8587C503.779 91.6233 503.377 89.3998 502.541 87.3217C501.704 85.2436 500.451 83.3537 498.856 81.7656C497.261 80.1775 495.357 78.9239 493.259 78.0801C491.16 77.2363 488.911 76.8198 486.645 76.8555C477.313 76.8555 469.9 83.3368 469.9 93.8313V93.8587Z" fill="#FB3E00"/>
<path d="M283.358 53.7266V40.5315H268.781V70.6066L283.358 53.7266Z" fill="#FB3E00"/>
<path d="M302.724 63.4075C296.489 63.4075 286.824 66.7097 283.36 72.7261V72.4252L276.432 85.9963H286.097C287.518 83.2062 289.706 80.8673 292.412 79.2472C295.117 77.627 298.23 76.7911 301.394 76.835C310.712 76.835 318.125 83.3163 318.125 93.8108C318.125 103.957 310.712 110.903 301.394 110.903C294.002 110.903 287.468 106.637 285.175 99.5264L268.77 118.526V122.929H282.404L283.36 114.909C287.905 121.869 295.193 124.228 302.364 124.228C319.684 124.228 332.716 112.906 332.716 93.7971C332.716 73.7858 319.926 63.4075 302.724 63.4075Z" fill="#FB3E00"/>
<path d="M259.459 102.999L244.883 102.965V122.963H251.097L259.459 106.541V102.999Z" fill="#1A16E3"/>
<path d="M244.854 92.4229V98.2821L258.468 82.5574C255.974 71.0989 248.575 64.0365 235.294 64.0365C228.601 64.0365 222.13 66.0397 216.893 72.7603V40.4153H202.344V122.963H216.893V93.2434C216.893 84.5196 222.872 77.3273 231.442 77.3273C239.27 77.3273 244.854 81.8054 244.854 92.4229Z" fill="#1A16E3"/>
<path d="M349.828 154.282H348.498V138.558H349.828V144.779C350.241 144.091 350.851 143.539 351.581 143.193C352.308 142.842 353.107 142.66 353.916 142.66C354.7 142.641 355.478 142.809 356.181 143.152C356.804 143.465 357.348 143.911 357.775 144.458C358.21 145.031 358.529 145.681 358.717 146.372C358.921 147.112 359.023 147.875 359.022 148.642C359.029 149.428 358.934 150.211 358.738 150.973C358.565 151.658 358.251 152.3 357.816 152.86C357.392 153.399 356.843 153.831 356.216 154.118C355.472 154.44 354.665 154.596 353.853 154.576C353.472 154.574 353.092 154.521 352.724 154.419C352.336 154.317 351.962 154.17 351.609 153.981C351.246 153.8 350.91 153.57 350.611 153.298C350.308 153.012 350.058 152.676 349.87 152.306H349.828V154.282ZM349.828 148.587C349.823 149.231 349.907 149.873 350.078 150.495C350.232 151.044 350.483 151.562 350.819 152.026C351.152 152.465 351.587 152.818 352.087 153.056C352.588 153.294 353.139 153.41 353.694 153.394C354.226 153.4 354.754 153.3 355.246 153.1C355.715 152.902 356.135 152.609 356.479 152.238C356.846 151.841 357.128 151.376 357.311 150.871C357.521 150.264 357.622 149.625 357.608 148.984C357.641 148.314 357.583 147.642 357.435 146.987C357.306 146.41 357.072 145.861 356.742 145.367C356.425 144.903 355.997 144.522 355.495 144.26C354.945 143.982 354.333 143.843 353.715 143.856C353.151 143.848 352.593 143.98 352.094 144.239C351.619 144.492 351.203 144.842 350.874 145.265C350.532 145.718 350.274 146.227 350.112 146.769C349.929 147.358 349.834 147.971 349.828 148.587Z" fill="black"/>
<path d="M353.854 154.857C353.449 154.856 353.046 154.8 352.656 154.693C352.247 154.585 351.851 154.431 351.478 154.235C351.094 154.032 350.74 153.779 350.425 153.483C350.307 153.375 350.198 153.258 350.099 153.134V154.542H348.229V138.305H350.099V143.986C350.488 143.559 350.959 143.213 351.485 142.968C352.249 142.601 353.087 142.41 353.937 142.407C354.764 142.391 355.584 142.569 356.327 142.927C356.983 143.256 357.558 143.723 358.011 144.294C358.464 144.892 358.798 145.57 358.995 146.29C359.21 147.054 359.317 147.843 359.313 148.635C359.32 149.445 359.22 150.251 359.016 151.035C358.84 151.756 358.512 152.431 358.053 153.018C357.599 153.586 357.018 154.042 356.355 154.351C355.57 154.702 354.716 154.875 353.854 154.857ZM349.559 152.033H349.995L350.113 152.177C350.287 152.521 350.521 152.831 350.806 153.093C351.082 153.364 351.397 153.595 351.741 153.777C352.078 153.952 352.434 154.092 352.801 154.194C353.146 154.287 353.503 154.336 353.861 154.337C354.633 154.358 355.4 154.208 356.106 153.9C356.697 153.632 357.215 153.229 357.616 152.724C358.026 152.187 358.319 151.573 358.475 150.919C358.666 150.179 358.759 149.419 358.752 148.656C358.756 147.912 358.655 147.171 358.454 146.454C358.276 145.798 357.973 145.181 357.561 144.636C357.16 144.118 356.646 143.695 356.057 143.398C355.391 143.08 354.657 142.923 353.916 142.94C353.148 142.942 352.39 143.115 351.699 143.446C351.017 143.771 350.446 144.287 350.058 144.93L349.559 145.743V138.818H348.776V153.995H349.566L349.559 152.033ZM353.716 153.674C353.099 153.682 352.489 153.546 351.935 153.278C351.42 153.015 350.973 152.641 350.626 152.184C350.27 151.696 350.004 151.15 349.843 150.57C349.664 149.924 349.575 149.257 349.579 148.587C349.575 147.944 349.669 147.303 349.857 146.687C350.025 146.115 350.298 145.577 350.66 145.101C351.011 144.647 351.455 144.272 351.963 144C352.503 143.72 353.105 143.577 353.716 143.583C354.38 143.571 355.036 143.722 355.628 144.021C356.165 144.307 356.625 144.714 356.972 145.21C357.325 145.729 357.576 146.309 357.713 146.919C357.867 147.592 357.93 148.282 357.9 148.97C357.911 149.639 357.805 150.305 357.588 150.939C357.393 151.484 357.091 151.985 356.702 152.416C356.329 152.813 355.876 153.128 355.371 153.339C354.842 153.563 354.271 153.677 353.695 153.674H353.716ZM353.716 144.103C353.194 144.096 352.68 144.218 352.219 144.458C351.778 144.691 351.392 145.015 351.09 145.408C350.775 145.838 350.541 146.32 350.397 146.83C350.228 147.397 350.144 147.984 350.148 148.574C350.144 149.195 350.225 149.814 350.39 150.413C350.529 150.93 350.764 151.417 351.083 151.849C351.376 152.245 351.761 152.566 352.205 152.785C352.679 153.022 353.205 153.139 353.736 153.127C354.231 153.134 354.721 153.041 355.177 152.854C355.615 152.676 356.007 152.405 356.327 152.061C356.67 151.683 356.932 151.241 357.096 150.762C357.295 150.183 357.391 149.575 357.38 148.964C357.412 148.314 357.356 147.664 357.214 147.029C357.082 146.48 356.847 145.96 356.521 145.497C356.227 145.071 355.833 144.721 355.371 144.479C354.852 144.221 354.276 144.096 353.695 144.116L353.716 144.103Z" fill="black"/>
<path d="M361.766 157.338L362.306 157.42C362.494 157.453 362.684 157.469 362.874 157.468C363.04 157.474 363.206 157.446 363.361 157.386C363.516 157.326 363.657 157.235 363.775 157.12C364.023 156.878 364.223 156.593 364.364 156.279C364.519 155.947 364.648 155.604 364.752 155.253C364.838 154.941 364.957 154.639 365.105 154.351L360.664 142.981H362.14L365.812 152.689L369.484 142.981H370.945L366.65 154.132C366.387 154.815 366.13 155.499 365.888 156.046C365.677 156.554 365.42 157.041 365.119 157.502C364.88 157.864 364.572 158.175 364.211 158.418C363.856 158.636 363.444 158.745 363.027 158.733C362.795 158.735 362.563 158.721 362.334 158.692C362.119 158.692 361.925 158.624 361.745 158.583L361.766 157.338Z" fill="black"/>
<path d="M363.027 159C362.795 159 362.564 158.984 362.334 158.952C362.128 158.927 361.925 158.888 361.724 158.836L361.517 158.788V157.024L362.369 157.161C362.543 157.188 362.719 157.202 362.895 157.202C363.023 157.204 363.151 157.181 363.27 157.134C363.389 157.087 363.497 157.017 363.588 156.928C363.811 156.709 363.992 156.452 364.122 156.169C364.268 155.849 364.393 155.521 364.496 155.185C364.575 154.894 364.679 154.61 364.807 154.337L360.27 142.714H362.348L365.812 151.93L369.276 142.714H371.292L366.886 154.221C366.623 154.904 366.359 155.588 366.117 156.156C365.897 156.675 365.63 157.174 365.32 157.646C365.066 158.04 364.73 158.378 364.336 158.637C363.944 158.88 363.49 159.005 363.027 159ZM362.036 158.371L362.39 158.425C362.601 158.453 362.814 158.467 363.027 158.466C363.393 158.477 363.754 158.382 364.066 158.193C364.396 157.971 364.676 157.685 364.891 157.352C365.185 156.907 365.435 156.435 365.639 155.944C365.881 155.383 366.138 154.74 366.401 154.036L370.558 143.248H369.699L365.84 153.448L361.939 143.248H361.039L365.403 154.371L365.341 154.474C365.201 154.747 365.089 155.033 365.008 155.328C364.903 155.694 364.769 156.05 364.606 156.395C364.449 156.732 364.233 157.04 363.969 157.304C363.826 157.446 363.655 157.557 363.467 157.631C363.279 157.705 363.077 157.74 362.874 157.735C362.67 157.733 362.467 157.717 362.265 157.687L362.036 157.646V158.371Z" fill="black"/>
<path d="M379.098 154.282V138.558H389.358V139.822H380.601V145.497H388.561V146.762H380.601V154.282H379.098Z" fill="black"/>
<path d="M380.873 154.542H378.795V138.305H389.651V140.103H380.873V145.244H388.834V147.022H380.873V154.542ZM379.37 154.009H380.333V146.489H388.266V145.757H380.333V139.57H389.09V138.818H379.391L379.37 154.009Z" fill="black"/>
<path d="M396.615 147.705C396.864 147.705 397.162 147.63 397.509 147.575C397.802 147.532 398.088 147.451 398.361 147.336C398.467 147.291 398.56 147.221 398.631 147.131C398.703 147.041 398.75 146.936 398.77 146.823C398.818 146.599 398.843 146.37 398.846 146.14C398.858 145.836 398.806 145.532 398.694 145.249C398.582 144.966 398.412 144.708 398.195 144.492C397.574 144 396.784 143.767 395.991 143.843C395.568 143.839 395.145 143.881 394.731 143.966C394.371 144.038 394.03 144.179 393.726 144.383C393.439 144.588 393.202 144.854 393.033 145.162C392.835 145.548 392.712 145.968 392.673 146.4H391.287C391.311 145.801 391.47 145.214 391.751 144.684C392.003 144.229 392.353 143.834 392.777 143.528C393.218 143.215 393.713 142.983 394.239 142.844C394.814 142.705 395.405 142.636 395.998 142.639C396.544 142.636 397.089 142.698 397.62 142.824C398.097 142.934 398.549 143.134 398.95 143.412C399.331 143.693 399.633 144.065 399.83 144.492C400.06 145.016 400.171 145.583 400.155 146.153V152.307C400.155 152.812 400.245 153.141 400.425 153.277C400.606 153.414 400.987 153.38 401.548 153.182V154.207L401.09 154.337C400.901 154.391 400.705 154.418 400.509 154.419C400.308 154.42 400.108 154.399 399.913 154.358C399.719 154.342 399.533 154.27 399.379 154.152C399.247 154.043 399.139 153.908 399.061 153.756C398.976 153.6 398.92 153.431 398.894 153.257C398.86 153.065 398.844 152.871 398.846 152.676C398.31 153.259 397.656 153.724 396.927 154.043C396.188 154.369 395.387 154.534 394.578 154.529C394.088 154.529 393.601 154.462 393.13 154.33C392.685 154.209 392.268 154.002 391.904 153.722C391.531 153.432 391.232 153.059 391.032 152.634C390.832 152.208 390.737 151.743 390.754 151.274C390.754 149.351 392.089 148.211 394.758 147.856L396.615 147.705ZM398.846 148.389C398.301 148.616 397.728 148.77 397.141 148.847C396.566 148.922 395.991 148.977 395.416 149.018C394.578 149.043 393.76 149.278 393.04 149.702C392.76 149.892 392.534 150.151 392.384 150.453C392.235 150.754 392.167 151.089 392.188 151.425C392.179 151.723 392.245 152.02 392.379 152.288C392.513 152.556 392.711 152.788 392.957 152.963C393.194 153.136 393.462 153.264 393.747 153.339C394.048 153.415 394.357 153.454 394.668 153.455C395.189 153.458 395.709 153.393 396.213 153.264C396.691 153.14 397.143 152.937 397.55 152.662C397.939 152.395 398.261 152.044 398.492 151.637C398.737 151.182 398.859 150.674 398.846 150.16V148.389Z" fill="black"/>
<path d="M394.595 154.857C394.082 154.856 393.571 154.784 393.078 154.645C392.595 154.506 392.145 154.273 391.755 153.961C391.374 153.663 391.062 153.288 390.84 152.86C390.605 152.376 390.489 151.845 390.501 151.308C390.501 149.257 391.928 148.006 394.741 147.644L396.577 147.398C396.826 147.398 397.117 147.329 397.457 147.275C397.726 147.235 397.989 147.162 398.239 147.056C398.308 147.027 398.367 146.982 398.413 146.925C398.459 146.867 398.49 146.8 398.503 146.728C398.547 146.528 398.57 146.324 398.572 146.119C398.583 145.849 398.538 145.58 398.439 145.328C398.34 145.077 398.19 144.848 397.997 144.656C397.426 144.219 396.707 144.015 395.988 144.089C395.583 144.087 395.179 144.126 394.782 144.205C394.458 144.271 394.15 144.398 393.875 144.581C393.617 144.759 393.404 144.993 393.251 145.265C393.069 145.619 392.956 146.004 392.919 146.399V146.639H391.034V146.352C391.063 145.714 391.233 145.091 391.533 144.526C391.803 144.036 392.182 143.613 392.642 143.289C393.107 142.964 393.631 142.732 394.187 142.605C395.341 142.332 396.545 142.332 397.699 142.605C398.197 142.731 398.667 142.946 399.085 143.241C399.508 143.545 399.845 143.953 400.062 144.424C400.303 144.983 400.419 145.587 400.401 146.194V152.347C400.401 152.935 400.533 153.072 400.574 153.106C400.616 153.141 400.754 153.216 401.433 152.97L401.8 152.84V154.446L401.149 154.631C400.718 154.743 400.264 154.743 399.833 154.631C399.597 154.604 399.374 154.511 399.189 154.364C399.028 154.235 398.896 154.074 398.801 153.893C398.707 153.71 398.642 153.514 398.607 153.311C398.139 153.742 397.603 154.093 397.02 154.351C396.257 154.685 395.431 154.857 394.595 154.857ZM396.674 147.958L394.838 148.198C392.302 148.526 391.069 149.565 391.069 151.336C391.057 151.787 391.154 152.235 391.353 152.641C391.535 153.002 391.795 153.32 392.115 153.571C392.452 153.831 392.838 154.022 393.251 154.132C393.701 154.263 394.168 154.327 394.637 154.323C395.406 154.332 396.167 154.177 396.869 153.868C397.571 153.559 398.197 153.103 398.704 152.532L399.175 152.019V152.703C399.174 152.884 399.188 153.064 399.216 153.243C399.239 153.389 399.286 153.529 399.355 153.66C399.418 153.781 399.506 153.888 399.611 153.975C399.726 154.059 399.863 154.109 400.006 154.118C400.355 154.214 400.724 154.214 401.073 154.118L401.336 154.043V153.585C401.175 153.653 400.999 153.683 400.824 153.673C400.649 153.664 400.478 153.615 400.325 153.53C400.175 153.374 400.063 153.187 399.997 152.982C399.931 152.777 399.913 152.56 399.944 152.347V146.194C399.959 145.664 399.857 145.137 399.646 144.649C399.469 144.262 399.195 143.925 398.849 143.672C398.477 143.414 398.058 143.228 397.616 143.125C396.545 142.875 395.43 142.875 394.36 143.125C393.862 143.24 393.392 143.449 392.974 143.74C392.58 144.019 392.255 144.384 392.025 144.806C391.803 145.215 391.667 145.664 391.623 146.126H392.42C392.477 145.744 392.598 145.374 392.78 145.032C392.971 144.684 393.241 144.384 393.57 144.157C393.903 143.934 394.277 143.778 394.672 143.699C395.105 143.612 395.546 143.568 395.988 143.569C396.849 143.49 397.708 143.747 398.378 144.287C398.621 144.528 398.811 144.815 398.938 145.132C399.064 145.448 399.123 145.786 399.112 146.126C399.11 146.367 399.082 146.608 399.029 146.844C398.997 146.994 398.93 147.134 398.832 147.253C398.735 147.371 398.61 147.466 398.468 147.528C398.174 147.653 397.864 147.741 397.547 147.787C397.2 147.883 396.895 147.924 396.646 147.958H396.674ZM394.692 153.674C394.358 153.675 394.024 153.631 393.702 153.544C393.383 153.462 393.082 153.323 392.815 153.134C392.556 152.94 392.343 152.693 392.191 152.409C392.02 152.092 391.937 151.736 391.949 151.377C391.927 150.998 392.005 150.62 392.175 150.28C392.345 149.94 392.601 149.649 392.919 149.435C393.678 148.986 394.542 148.738 395.427 148.717C395.995 148.669 396.57 148.615 397.131 148.539C397.694 148.469 398.244 148.322 398.766 148.102L399.14 147.945V150.112C399.153 150.671 399.02 151.225 398.752 151.718C398.501 152.16 398.153 152.54 397.734 152.833C397.299 153.125 396.816 153.34 396.307 153.469C395.771 153.608 395.219 153.677 394.665 153.674H394.692ZM398.6 148.738C398.151 148.896 397.687 149.006 397.214 149.066C396.646 149.141 396.057 149.203 395.475 149.244C394.684 149.26 393.91 149.479 393.23 149.879C392.987 150.044 392.79 150.269 392.662 150.532C392.533 150.794 392.476 151.086 392.496 151.377C392.492 151.637 392.553 151.894 392.674 152.126C392.795 152.357 392.972 152.555 393.189 152.703C393.396 152.856 393.631 152.968 393.882 153.031C394.649 153.205 395.449 153.179 396.203 152.956C396.65 152.842 397.075 152.652 397.457 152.395C397.81 152.15 398.104 151.83 398.316 151.459C398.541 151.038 398.65 150.567 398.634 150.091L398.6 148.738Z" fill="black"/>
<path d="M404.968 154.282H403.645V142.981H404.968V144.554C405.456 144.03 406.01 143.571 406.617 143.186C407.244 142.817 407.965 142.634 408.695 142.66C409.368 142.655 410.037 142.778 410.663 143.022C411.287 143.277 411.819 143.714 412.187 144.273C412.457 144.645 412.629 145.077 412.686 145.531C412.741 145.985 412.766 146.442 412.762 146.899V154.296H411.404V146.906C411.464 146.084 411.218 145.269 410.711 144.615C410.408 144.336 410.048 144.123 409.655 143.991C409.262 143.859 408.845 143.811 408.432 143.849C408.047 143.844 407.664 143.909 407.303 144.041C406.976 144.158 406.668 144.322 406.388 144.526C406.126 144.722 405.893 144.952 405.695 145.21C405.509 145.466 405.362 145.747 405.259 146.044C405.129 146.38 405.047 146.732 405.016 147.09C404.981 147.454 404.965 147.819 404.968 148.184V154.282Z" fill="black"/>
<path d="M412.999 154.542H411.129V146.905C411.187 146.151 410.968 145.401 410.512 144.793C410.234 144.54 409.905 144.349 409.547 144.231C409.189 144.113 408.809 144.071 408.434 144.109C408.082 144.107 407.733 144.165 407.401 144.28C407.098 144.392 406.811 144.544 406.549 144.731C406.306 144.914 406.091 145.13 405.912 145.374C405.741 145.61 405.603 145.867 405.503 146.14C405.385 146.455 405.308 146.783 405.274 147.117C405.274 147.439 405.233 147.801 405.233 148.191V154.542H403.369V142.714H405.233V143.911C405.612 143.56 406.025 143.246 406.466 142.974C407.126 142.584 407.886 142.387 408.655 142.407C409.367 142.402 410.072 142.532 410.734 142.79C411.411 143.07 411.986 143.547 412.383 144.157C412.669 144.565 412.854 145.033 412.923 145.524C412.973 145.979 412.999 146.435 412.999 146.892V154.542ZM411.676 154.009H412.459V146.885C412.462 146.446 412.437 146.008 412.383 145.572C412.33 145.163 412.176 144.773 411.932 144.437C411.596 143.926 411.114 143.524 410.547 143.282C409.951 143.051 409.316 142.935 408.676 142.94C408.007 142.922 407.347 143.09 406.771 143.426C406.187 143.794 405.651 144.232 405.177 144.731L404.713 145.217V143.248H403.93V154.016H404.713V148.198C404.71 147.826 404.727 147.454 404.762 147.083C404.797 146.702 404.883 146.328 405.018 145.969C405.131 145.649 405.293 145.347 405.496 145.073C405.705 144.785 405.958 144.529 406.244 144.314C406.547 144.092 406.881 143.915 407.235 143.788C407.626 143.648 408.039 143.578 408.454 143.583C408.906 143.542 409.361 143.597 409.789 143.744C410.216 143.892 410.607 144.128 410.935 144.437C411.483 145.142 411.751 146.019 411.69 146.905L411.676 154.009Z" fill="black"/>
<path d="M419.96 154.323C419.794 154.323 419.586 154.405 419.316 154.48C419.029 154.554 418.733 154.591 418.436 154.59C418.163 154.611 417.888 154.578 417.628 154.493C417.367 154.409 417.126 154.274 416.919 154.098C416.517 153.603 416.331 152.971 416.399 152.34V144.068H414.785V142.981H416.399V139.836H417.73V142.981H419.87V144.068H417.73V151.807C417.73 152.088 417.73 152.327 417.73 152.532C417.735 152.706 417.78 152.876 417.861 153.031C417.936 153.162 418.057 153.261 418.201 153.311C418.424 153.384 418.659 153.414 418.893 153.4C419.074 153.4 419.255 153.386 419.434 153.359C419.614 153.359 419.794 153.291 419.974 153.25L419.96 154.323Z" fill="black"/>
<path d="M418.435 154.857C417.813 154.896 417.201 154.692 416.731 154.289C416.503 154.021 416.332 153.71 416.229 153.375C416.125 153.041 416.091 152.689 416.128 152.341V144.335H414.514V142.715H416.128V139.57H417.998V142.715H420.132V144.335H417.992V151.807C417.992 152.081 417.992 152.313 417.992 152.491C417.992 152.627 418.025 152.76 418.089 152.881C418.131 152.959 418.203 153.018 418.289 153.045C418.471 153.101 418.661 153.124 418.851 153.113C419.015 153.113 419.18 153.099 419.343 153.072C419.523 153.072 419.696 153.011 419.869 152.97L420.202 152.888V154.542L419.98 154.583C419.821 154.583 419.62 154.658 419.363 154.727C419.061 154.811 418.749 154.855 418.435 154.857ZM415.054 143.802H416.668V152.341C416.603 152.899 416.759 153.46 417.105 153.906C417.477 154.209 417.954 154.358 418.435 154.323C418.709 154.327 418.981 154.292 419.246 154.221L419.689 154.111V153.585C419.614 153.605 419.538 153.619 419.46 153.626C419.016 153.709 418.559 153.691 418.123 153.571C417.92 153.498 417.75 153.355 417.645 153.168C417.541 152.979 417.484 152.768 417.479 152.553C417.479 152.348 417.479 152.101 417.479 151.814V143.802H419.62V143.248H417.479V140.103H416.668V143.248H415.054V143.802Z" fill="black"/>
<path d="M427.347 147.705C427.597 147.705 427.895 147.63 428.241 147.575C428.534 147.532 428.821 147.451 429.093 147.336C429.199 147.291 429.292 147.221 429.364 147.131C429.435 147.041 429.483 146.936 429.502 146.823C429.55 146.599 429.576 146.37 429.578 146.14C429.59 145.836 429.539 145.532 429.426 145.249C429.314 144.966 429.144 144.708 428.927 144.492C428.307 144 427.516 143.767 426.724 143.843C426.3 143.839 425.878 143.881 425.463 143.966C425.103 144.038 424.762 144.179 424.458 144.383C424.171 144.588 423.935 144.854 423.766 145.162C423.567 145.548 423.445 145.968 423.405 146.4H422.02C422.044 145.801 422.202 145.214 422.484 144.684C422.736 144.229 423.086 143.834 423.509 143.528C423.95 143.215 424.446 142.983 424.971 142.844C425.547 142.705 426.138 142.636 426.731 142.639C427.277 142.636 427.821 142.698 428.352 142.824C428.829 142.934 429.281 143.134 429.682 143.412C430.063 143.693 430.366 144.065 430.562 144.492C430.793 145.016 430.904 145.583 430.888 146.153V152.307C430.888 152.812 430.978 153.141 431.158 153.277C431.338 153.414 431.719 153.38 432.28 153.182V154.207L431.823 154.337C431.634 154.391 431.438 154.418 431.241 154.419C431.041 154.42 430.841 154.399 430.645 154.358C430.451 154.342 430.266 154.27 430.112 154.152C429.979 154.043 429.871 153.908 429.793 153.756C429.709 153.6 429.653 153.431 429.627 153.257C429.593 153.065 429.576 152.871 429.578 152.676C429.042 153.259 428.388 153.724 427.659 154.043C426.92 154.369 426.12 154.534 425.311 154.529C424.821 154.529 424.334 154.462 423.863 154.33C423.417 154.209 423.001 154.002 422.636 153.722C422.263 153.432 421.964 153.059 421.765 152.634C421.565 152.208 421.469 151.743 421.486 151.274C421.486 149.351 422.821 148.211 425.491 147.856L427.347 147.705ZM429.578 148.389C429.033 148.616 428.46 148.77 427.874 148.847C427.299 148.922 426.724 148.977 426.149 149.018C425.311 149.043 424.493 149.278 423.773 149.702C423.492 149.892 423.266 150.151 423.117 150.453C422.968 150.754 422.9 151.089 422.92 151.425C422.912 151.723 422.977 152.02 423.111 152.288C423.245 152.556 423.444 152.788 423.689 152.963C423.926 153.136 424.194 153.264 424.479 153.339C424.78 153.415 425.09 153.454 425.401 153.455C425.922 153.458 426.441 153.393 426.946 153.264C427.423 153.14 427.875 152.937 428.283 152.662C428.671 152.395 428.993 152.044 429.225 151.637C429.469 151.182 429.591 150.674 429.578 150.16V148.389Z" fill="black"/>
<path d="M425.328 154.857C424.814 154.856 424.304 154.784 423.81 154.645C423.328 154.506 422.878 154.273 422.487 153.961C422.106 153.663 421.794 153.288 421.573 152.86C421.338 152.376 421.221 151.845 421.233 151.308C421.233 149.257 422.66 148.006 425.473 147.644L427.309 147.398C427.559 147.398 427.85 147.329 428.189 147.275C428.458 147.235 428.722 147.162 428.972 147.056C429.04 147.027 429.1 146.982 429.146 146.925C429.192 146.867 429.223 146.8 429.235 146.728C429.28 146.528 429.303 146.324 429.304 146.119C429.316 145.849 429.271 145.58 429.172 145.328C429.073 145.077 428.922 144.848 428.729 144.656C428.159 144.219 427.439 144.015 426.72 144.089C426.315 144.087 425.912 144.126 425.515 144.205C425.191 144.272 424.883 144.4 424.607 144.581C424.35 144.759 424.136 144.993 423.984 145.265C423.801 145.619 423.688 146.004 423.651 146.399V146.639H421.774V146.352C421.802 145.714 421.973 145.091 422.272 144.526C422.542 144.036 422.921 143.613 423.381 143.289C423.846 142.964 424.371 142.732 424.926 142.605C426.08 142.332 427.284 142.332 428.438 142.605C428.936 142.731 429.406 142.946 429.824 143.241C430.247 143.545 430.584 143.953 430.801 144.424C431.043 144.983 431.158 145.587 431.14 146.194V152.347C431.14 152.935 431.272 153.072 431.314 153.106C431.355 153.141 431.494 153.216 432.173 152.97L432.54 152.84V154.446L431.889 154.631C431.457 154.743 431.004 154.743 430.572 154.631C430.336 154.604 430.113 154.511 429.928 154.364C429.768 154.235 429.636 154.074 429.54 153.893C429.446 153.71 429.381 153.514 429.346 153.311C428.879 153.742 428.343 154.093 427.759 154.351C426.994 154.686 426.165 154.858 425.328 154.857ZM427.406 147.958L425.57 148.198C423.035 148.526 421.801 149.565 421.801 151.336C421.789 151.787 421.886 152.235 422.085 152.641C422.268 153.002 422.528 153.32 422.847 153.571C423.184 153.831 423.571 154.022 423.984 154.132C424.433 154.263 424.9 154.327 425.369 154.323C426.138 154.332 426.9 154.177 427.602 153.868C428.304 153.559 428.93 153.103 429.436 152.532L429.907 152.019V152.703C429.906 152.884 429.92 153.064 429.949 153.243C429.972 153.389 430.019 153.529 430.087 153.66C430.151 153.781 430.238 153.888 430.344 153.975C430.458 154.059 430.596 154.109 430.739 154.118C431.088 154.214 431.456 154.214 431.805 154.118L432.069 154.043V153.585C431.907 153.653 431.732 153.683 431.557 153.673C431.381 153.664 431.21 153.615 431.057 153.53C430.908 153.374 430.796 153.187 430.73 152.982C430.664 152.777 430.645 152.56 430.676 152.347V146.194C430.691 145.664 430.59 145.137 430.378 144.649C430.201 144.262 429.927 143.925 429.582 143.672C429.209 143.414 428.791 143.228 428.348 143.125C427.278 142.875 426.163 142.875 425.092 143.125C424.594 143.24 424.124 143.449 423.707 143.74C423.312 144.019 422.987 144.384 422.757 144.806C422.536 145.215 422.399 145.664 422.356 146.126H423.173C423.23 145.744 423.351 145.374 423.533 145.032C423.724 144.684 423.994 144.384 424.323 144.157C424.656 143.934 425.03 143.778 425.425 143.699C425.858 143.612 426.299 143.568 426.741 143.569C427.605 143.488 428.466 143.746 429.138 144.287C429.382 144.527 429.573 144.815 429.699 145.131C429.826 145.447 429.885 145.786 429.873 146.126C429.87 146.367 429.842 146.608 429.789 146.844C429.758 146.994 429.69 147.134 429.592 147.253C429.495 147.371 429.37 147.466 429.228 147.528C428.936 147.652 428.629 147.74 428.314 147.787C427.933 147.883 427.628 147.924 427.378 147.958H427.406ZM425.425 153.674C425.09 153.675 424.757 153.631 424.434 153.544C424.115 153.462 423.815 153.323 423.547 153.134C423.288 152.94 423.075 152.693 422.924 152.409C422.753 152.092 422.669 151.736 422.681 151.377C422.66 150.998 422.738 150.62 422.908 150.28C423.078 149.94 423.334 149.649 423.651 149.435C424.41 148.986 425.274 148.738 426.159 148.717C426.727 148.669 427.302 148.615 427.863 148.539C428.426 148.469 428.977 148.322 429.498 148.102L429.873 147.945V150.112C429.886 150.671 429.752 151.225 429.485 151.718C429.227 152.162 428.872 152.543 428.445 152.833C428.01 153.125 427.528 153.34 427.018 153.469C426.489 153.606 425.944 153.675 425.397 153.674H425.425ZM429.332 148.738C428.884 148.896 428.419 149.006 427.947 149.066C427.378 149.141 426.79 149.203 426.208 149.244C425.416 149.26 424.643 149.479 423.963 149.879C423.719 150.044 423.523 150.269 423.394 150.532C423.265 150.794 423.208 151.086 423.228 151.377C423.224 151.637 423.285 151.894 423.406 152.126C423.527 152.357 423.704 152.555 423.921 152.703C424.128 152.856 424.363 152.968 424.614 153.031C425.381 153.205 426.181 153.179 426.935 152.956C427.383 152.842 427.807 152.652 428.189 152.395C428.543 152.15 428.836 151.83 429.048 151.459C429.273 151.038 429.383 150.567 429.367 150.091L429.332 148.738Z" fill="black"/>
<path d="M435.146 150.748C435.256 151.542 435.652 152.27 436.261 152.799C436.946 153.242 437.758 153.453 438.575 153.401C439.002 153.41 439.427 153.352 439.836 153.23C440.156 153.132 440.453 152.971 440.709 152.758C440.929 152.569 441.106 152.336 441.228 152.074C441.347 151.829 441.408 151.56 441.409 151.288C441.425 151.054 441.384 150.82 441.289 150.606C441.194 150.392 441.047 150.203 440.861 150.057C440.446 149.758 439.975 149.542 439.476 149.422C438.926 149.271 438.337 149.141 437.709 149.032C437.102 148.931 436.507 148.766 435.935 148.54C435.405 148.339 434.931 148.018 434.55 147.603C434.162 147.111 433.97 146.496 434.009 145.873C433.998 145.434 434.087 144.998 434.269 144.596C434.451 144.195 434.722 143.84 435.062 143.556C435.906 142.901 436.964 142.577 438.035 142.646C439.102 142.597 440.157 142.885 441.048 143.467C441.462 143.8 441.8 144.216 442.038 144.687C442.277 145.159 442.412 145.675 442.434 146.201H441.083C441.064 145.841 440.964 145.488 440.79 145.17C440.616 144.852 440.373 144.576 440.078 144.362C439.455 143.983 438.732 143.795 438 143.822C437.314 143.775 436.632 143.966 436.074 144.362C435.859 144.522 435.685 144.728 435.565 144.966C435.444 145.203 435.382 145.464 435.381 145.73C435.367 145.953 435.409 146.177 435.503 146.381C435.598 146.585 435.741 146.763 435.921 146.899C436.338 147.207 436.807 147.439 437.307 147.582C437.847 147.747 438.443 147.897 439.074 148.027C439.68 148.154 440.272 148.342 440.84 148.587C441.369 148.806 441.843 149.138 442.226 149.558C442.613 150.04 442.806 150.647 442.766 151.261C442.775 151.759 442.654 152.251 442.413 152.69C442.175 153.105 441.84 153.459 441.436 153.722C440.99 154.017 440.492 154.228 439.967 154.344C439.355 154.488 438.727 154.559 438.097 154.556C437.484 154.564 436.874 154.465 436.296 154.262C435.799 154.079 435.344 153.8 434.959 153.442C434.593 153.093 434.302 152.677 434.099 152.218C433.889 151.742 433.769 151.232 433.746 150.714L435.146 150.748Z" fill="black"/>
<path d="M438.146 154.857C437.5 154.865 436.857 154.759 436.248 154.542C435.719 154.345 435.234 154.048 434.821 153.667C434.431 153.295 434.119 152.851 433.899 152.361C433.679 151.855 433.552 151.313 433.525 150.762V150.481H435.375L435.417 150.693C435.514 151.427 435.875 152.102 436.435 152.594C437.073 152.998 437.826 153.19 438.583 153.141C438.981 153.148 439.378 153.095 439.761 152.983C440.044 152.895 440.308 152.754 440.537 152.566C440.728 152.406 440.883 152.208 440.994 151.985C441.094 151.771 441.146 151.538 441.146 151.302C441.163 151.11 441.132 150.916 441.056 150.739C440.98 150.561 440.861 150.405 440.71 150.283C440.327 150.007 439.894 149.805 439.435 149.688C438.902 149.545 438.32 149.415 437.696 149.305C437.072 149.203 436.461 149.033 435.874 148.799C435.313 148.581 434.812 148.234 434.412 147.787C433.98 147.249 433.763 146.573 433.802 145.887C433.792 145.409 433.889 144.935 434.087 144.499C434.284 144.062 434.578 143.675 434.946 143.364C435.841 142.672 436.962 142.327 438.098 142.393C439.222 142.348 440.332 142.651 441.271 143.262C441.717 143.616 442.083 144.059 442.344 144.562C442.606 145.065 442.757 145.616 442.788 146.181V146.482H440.918V146.249C440.902 145.926 440.814 145.611 440.661 145.325C440.507 145.039 440.292 144.79 440.031 144.595C439.447 144.246 438.773 144.074 438.091 144.102C437.468 144.059 436.85 144.228 436.338 144.581C436.155 144.722 436.007 144.904 435.909 145.112C435.81 145.32 435.762 145.548 435.77 145.777C435.758 145.96 435.791 146.143 435.867 146.31C435.943 146.477 436.06 146.623 436.207 146.735C436.591 147.012 437.023 147.22 437.481 147.35C438.015 147.514 438.604 147.658 439.227 147.787C439.853 147.916 440.464 148.108 441.049 148.362C441.605 148.599 442.102 148.954 442.504 149.401C442.933 149.933 443.15 150.602 443.114 151.281C443.122 151.825 442.988 152.362 442.726 152.84C442.464 153.291 442.101 153.676 441.666 153.968C441.191 154.284 440.663 154.515 440.107 154.652C439.465 154.799 438.806 154.868 438.146 154.857ZM434.087 151.014C434.133 151.403 434.236 151.783 434.391 152.143C434.58 152.572 434.853 152.96 435.195 153.284C435.556 153.616 435.979 153.874 436.442 154.043C436.988 154.238 437.566 154.333 438.146 154.323C438.755 154.329 439.363 154.26 439.955 154.118C440.448 154.01 440.918 153.813 441.34 153.537C441.71 153.298 442.017 152.974 442.234 152.594C442.449 152.194 442.559 151.747 442.553 151.295C442.589 150.744 442.418 150.199 442.075 149.763C441.724 149.374 441.291 149.066 440.807 148.861C440.257 148.622 439.684 148.441 439.096 148.321C438.49 148.201 437.891 148.051 437.301 147.87C436.785 147.725 436.297 147.494 435.86 147.186C435.648 147.027 435.478 146.819 435.365 146.581C435.251 146.343 435.198 146.081 435.209 145.819C435.201 145.51 435.266 145.204 435.398 144.924C435.531 144.644 435.727 144.398 435.971 144.205C436.576 143.781 437.308 143.572 438.049 143.61C438.837 143.585 439.614 143.787 440.287 144.191C440.583 144.402 440.832 144.67 441.019 144.979C441.207 145.289 441.327 145.632 441.375 145.989H442.179C442.132 145.551 441.997 145.126 441.783 144.738C441.569 144.351 441.28 144.01 440.931 143.733C440.081 143.192 439.081 142.924 438.07 142.968C437.074 142.911 436.091 143.209 435.299 143.808C434.988 144.068 434.741 144.393 434.575 144.76C434.41 145.127 434.33 145.526 434.343 145.928C434.305 146.484 434.472 147.036 434.814 147.48C435.16 147.852 435.59 148.14 436.068 148.321C436.62 148.536 437.194 148.694 437.779 148.793C438.387 148.894 438.988 149.029 439.581 149.196C440.103 149.33 440.595 149.562 441.028 149.88C441.246 150.051 441.419 150.271 441.531 150.522C441.643 150.774 441.692 151.048 441.673 151.322C441.675 151.632 441.606 151.938 441.472 152.218C441.332 152.505 441.134 152.761 440.89 152.97C440.604 153.205 440.275 153.384 439.92 153.496C439.485 153.627 439.031 153.689 438.576 153.681C437.702 153.732 436.835 153.504 436.103 153.031C435.49 152.514 435.077 151.804 434.932 151.021L434.087 151.014Z" fill="black"/>
<path d="M449.453 154.323C449.293 154.323 449.079 154.405 448.815 154.48C448.526 154.554 448.228 154.591 447.928 154.59C447.655 154.611 447.38 154.578 447.12 154.493C446.86 154.409 446.619 154.274 446.411 154.098C446.01 153.603 445.823 152.971 445.892 152.34V144.068H444.277V142.981H445.892V139.836H447.222V142.981H449.363V144.068H447.222V151.807C447.222 152.088 447.222 152.327 447.222 152.532C447.231 152.705 447.275 152.875 447.353 153.031C447.429 153.164 447.553 153.264 447.7 153.311C447.909 153.38 448.13 153.411 448.351 153.4C448.532 153.4 448.713 153.386 448.891 153.359C449.079 153.359 449.259 153.291 449.432 153.25L449.453 154.323Z" fill="black"/>
<path d="M447.93 154.857C447.309 154.894 446.697 154.691 446.226 154.289C445.998 154.021 445.827 153.71 445.724 153.375C445.62 153.041 445.586 152.689 445.623 152.341V144.335H444.016V142.715H445.623V139.57H447.494V142.715H449.634V144.335H447.494V151.807C447.494 152.081 447.494 152.313 447.494 152.491C447.498 152.626 447.531 152.759 447.591 152.881C447.635 152.958 447.707 153.016 447.791 153.045C447.973 153.1 448.163 153.123 448.353 153.113C448.52 153.113 448.687 153.099 448.851 153.072C449.027 153.045 449.2 153.011 449.371 152.97L449.704 152.888V154.542L449.482 154.583C449.329 154.583 449.122 154.658 448.865 154.727C448.561 154.812 448.246 154.856 447.93 154.857ZM444.549 143.802H446.163V152.341C446.101 152.899 446.257 153.459 446.6 153.906C446.972 154.209 447.449 154.358 447.93 154.323C448.204 154.327 448.477 154.292 448.741 154.221L449.184 154.111V153.585C449.109 153.605 449.033 153.619 448.955 153.626C448.514 153.71 448.058 153.691 447.625 153.571C447.42 153.498 447.248 153.355 447.14 153.168C447.042 152.976 446.986 152.767 446.974 152.553C446.974 152.348 446.974 152.101 446.974 151.814V143.802H449.122V143.248H446.974V140.103H446.184V143.248H444.57L444.549 143.802Z" fill="black"/>
<path d="M451.711 140.513V138.571H453.166V140.513H451.711ZM451.773 154.282V142.981H453.103V154.282H451.773Z" fill="black"/>
<path d="M453.387 154.542H451.517V142.714H453.387V154.542ZM452.057 154.009H452.847V143.248H452.057V154.009ZM453.443 140.773H451.447V138.298H453.443V140.773ZM451.988 140.24H452.902V138.817H452.002L451.988 140.24Z" fill="black"/>
<path d="M464.598 146.536C464.411 145.769 463.988 145.079 463.386 144.56C462.762 144.081 461.986 143.839 461.196 143.877C460.587 143.862 459.985 144.006 459.451 144.294C458.971 144.565 458.561 144.942 458.252 145.394C457.937 145.871 457.703 146.395 457.559 146.946C457.415 147.514 457.343 148.097 457.344 148.683C457.344 149.27 457.413 149.855 457.552 150.426C457.689 150.971 457.924 151.487 458.245 151.951C458.552 152.4 458.963 152.77 459.444 153.031C459.986 153.316 460.596 153.455 461.21 153.434C462.078 153.477 462.929 153.188 463.587 152.628C464.211 152.036 464.612 151.253 464.723 150.406H466.108C465.999 150.998 465.808 151.573 465.54 152.115C465.3 152.628 464.964 153.092 464.55 153.482C464.126 153.86 463.632 154.153 463.095 154.344C462.479 154.559 461.829 154.663 461.176 154.651C460.362 154.669 459.553 154.513 458.806 154.193C458.17 153.905 457.61 153.474 457.171 152.935C456.73 152.375 456.408 151.734 456.222 151.048C456.01 150.289 455.905 149.505 455.91 148.717C455.909 147.95 456.026 147.187 456.257 146.454C456.47 145.763 456.811 145.116 457.261 144.547C457.705 143.992 458.269 143.541 458.91 143.227C459.615 142.887 460.392 142.718 461.176 142.735C462.323 142.683 463.455 143.013 464.39 143.671C465.271 144.411 465.822 145.461 465.928 146.598L464.598 146.536Z" fill="black"/>
<path d="M461.196 154.856C460.343 154.876 459.496 154.71 458.715 154.371C458.04 154.067 457.447 153.61 456.983 153.038C456.52 152.451 456.179 151.779 455.979 151.062C455.765 150.277 455.657 149.468 455.66 148.655C455.659 147.863 455.78 147.074 456.02 146.317C456.242 145.594 456.597 144.917 457.067 144.321C457.54 143.747 458.133 143.281 458.806 142.954C459.55 142.599 460.369 142.421 461.196 142.434C462.405 142.381 463.596 142.733 464.577 143.432C465.512 144.21 466.099 145.32 466.212 146.522L466.26 146.83H464.396L464.341 146.632C464.164 145.919 463.769 145.278 463.212 144.793C462.639 144.347 461.925 144.116 461.196 144.143C460.659 144.124 460.126 144.243 459.65 144.489C459.174 144.735 458.77 145.099 458.48 145.545C458.18 145.992 457.96 146.487 457.829 147.008C457.546 148.109 457.546 149.263 457.829 150.365C457.952 150.876 458.165 151.362 458.459 151.8C458.742 152.216 459.123 152.558 459.568 152.799C460.071 153.06 460.634 153.187 461.203 153.168C462.003 153.208 462.789 152.943 463.399 152.429C463.973 151.882 464.344 151.159 464.452 150.378V150.16H466.419L466.364 150.474C466.251 151.09 466.053 151.689 465.775 152.252C465.517 152.782 465.16 153.26 464.722 153.66C464.277 154.065 463.754 154.376 463.184 154.576C462.543 154.785 461.87 154.879 461.196 154.856ZM461.196 142.94C460.486 142.921 459.781 143.065 459.138 143.362C458.494 143.659 457.93 144.099 457.489 144.649C457.061 145.196 456.737 145.814 456.533 146.475C456.309 147.18 456.197 147.916 456.201 148.655C456.198 149.42 456.298 150.18 456.498 150.918C456.677 151.569 456.986 152.178 457.406 152.71C457.818 153.203 458.339 153.597 458.93 153.858C460.229 154.387 461.677 154.438 463.011 154.002C463.525 153.833 463.998 153.558 464.396 153.195C464.785 152.84 465.102 152.415 465.332 151.944C465.54 151.52 465.7 151.076 465.81 150.618H464.951C464.798 151.442 464.383 152.196 463.766 152.771C463.059 153.375 462.144 153.688 461.21 153.646C460.549 153.667 459.894 153.516 459.311 153.209C458.794 152.929 458.352 152.53 458.023 152.047C457.696 151.554 457.461 151.008 457.33 150.433C457.186 149.842 457.113 149.236 457.115 148.628C457.116 148.019 457.192 147.413 457.344 146.823C457.478 146.245 457.712 145.695 458.037 145.196C458.366 144.708 458.804 144.301 459.318 144.006C459.896 143.698 460.546 143.542 461.203 143.555C462.058 143.526 462.897 143.8 463.565 144.328C464.156 144.835 464.587 145.5 464.805 146.242H465.637C465.492 145.287 464.999 144.417 464.251 143.795C463.361 143.172 462.285 142.864 461.196 142.919V142.94Z" fill="black"/>
<path d="M475.059 154.282V138.558H477.359L482.576 152.416H482.617L487.751 138.558H490.023V154.282H488.52V140.274H488.478L483.261 154.282H481.876L476.631 140.274H476.59V154.282H475.059Z" fill="black"/>
<path d="M490.294 154.542H488.25V141.648L483.449 154.542H481.655L476.805 141.641V154.542H474.727V138.305H477.498L482.548 151.719L487.516 138.305H490.245L490.294 154.542ZM488.791 154.009H489.754V138.818H487.938L482.805 152.676H482.431L482.32 152.498L477.172 138.825H475.329V154.002H476.292V140.007H476.75L476.86 140.185L482.036 154.016H483.075L488.292 140.007H488.721L488.763 140.274L488.791 154.009Z" fill="black"/>
<path d="M493.477 140.513V138.571H494.959V140.513H493.477ZM493.546 154.282V142.981H494.869V154.282H493.546Z" fill="black"/>
<path d="M495.135 154.542H493.272V142.714H495.135V154.542ZM493.812 154.009H494.595V143.248H493.812V154.009ZM495.197 140.773H493.195V138.298H495.197V140.773ZM493.736 140.24H494.657V138.817H493.736V140.24Z" fill="black"/>
<path d="M499.577 154.282H498.254V142.981H499.577V144.554C500.065 144.03 500.62 143.571 501.226 143.186C501.853 142.817 502.575 142.634 503.304 142.66C503.978 142.655 504.646 142.778 505.272 143.022C505.876 143.291 506.384 143.732 506.734 144.287C507.004 144.659 507.176 145.091 507.233 145.545C507.288 145.999 507.313 146.455 507.309 146.912V154.31H506.041V146.906C506.101 146.084 505.855 145.269 505.348 144.615C505.045 144.336 504.685 144.123 504.292 143.991C503.899 143.859 503.482 143.811 503.069 143.849C502.684 143.844 502.301 143.909 501.94 144.041C501.613 144.158 501.305 144.322 501.025 144.526C500.763 144.722 500.53 144.952 500.332 145.21C500.146 145.466 499.999 145.747 499.896 146.044C499.767 146.38 499.683 146.732 499.646 147.09C499.646 147.425 499.605 147.774 499.605 148.184L499.577 154.282Z" fill="black"/>
<path d="M507.607 154.542H505.744V146.905C505.803 146.151 505.584 145.401 505.127 144.793C504.85 144.54 504.521 144.349 504.162 144.231C503.804 144.113 503.425 144.071 503.049 144.109C502.697 144.107 502.348 144.165 502.017 144.28C501.713 144.392 501.426 144.544 501.164 144.731C500.921 144.914 500.707 145.13 500.527 145.374C500.356 145.61 500.218 145.867 500.118 146.14C500 146.455 499.923 146.783 499.89 147.117C499.89 147.439 499.848 147.801 499.848 148.191V154.542H497.984V142.714H499.848V143.911C500.227 143.56 500.64 143.246 501.081 142.974C501.742 142.584 502.501 142.387 503.27 142.407C503.982 142.402 504.687 142.532 505.349 142.79C506.026 143.068 506.599 143.546 506.991 144.157C507.282 144.563 507.47 145.032 507.538 145.524C507.588 145.979 507.614 146.435 507.614 146.892L507.607 154.542ZM506.284 154.009H507.067V146.885C507.07 146.446 507.045 146.008 506.991 145.572C506.939 145.163 506.784 144.773 506.541 144.437C506.204 143.926 505.722 143.524 505.155 143.282C504.559 143.051 503.924 142.935 503.284 142.94C502.616 142.922 501.955 143.09 501.379 143.426C500.795 143.794 500.26 144.232 499.786 144.731L499.321 145.217V143.248H498.539V154.016H499.321V148.198C499.319 147.826 499.335 147.454 499.37 147.083C499.405 146.702 499.491 146.328 499.626 145.969C499.74 145.649 499.901 145.347 500.104 145.073C500.314 144.785 500.566 144.529 500.853 144.314C501.155 144.092 501.489 143.915 501.843 143.788C502.234 143.648 502.647 143.578 503.063 143.583C503.514 143.542 503.969 143.597 504.397 143.744C504.825 143.892 505.216 144.128 505.543 144.437C506.091 145.142 506.359 146.019 506.298 146.905L506.284 154.009Z" fill="black"/>
<path d="M519.392 138.571H520.715V154.296H519.392V152.313H519.344C519.158 152.685 518.907 153.02 518.602 153.305C518.306 153.577 517.972 153.807 517.611 153.988C517.258 154.176 516.884 154.322 516.496 154.426C516.128 154.527 515.749 154.58 515.367 154.583C514.553 154.604 513.743 154.448 512.997 154.125C512.372 153.834 511.825 153.403 511.397 152.867C510.962 152.307 510.649 151.665 510.476 150.98C510.283 150.218 510.187 149.435 510.192 148.649C510.189 147.882 510.294 147.118 510.503 146.379C510.688 145.688 511.006 145.038 511.439 144.465C511.867 143.92 512.411 143.474 513.032 143.159C513.736 142.816 514.513 142.647 515.298 142.667C516.107 142.667 516.905 142.849 517.632 143.2C518.363 143.548 518.975 144.099 519.392 144.786V138.571ZM519.392 148.587C519.395 147.969 519.304 147.353 519.122 146.762C518.963 146.219 518.705 145.709 518.36 145.258C518.032 144.837 517.619 144.488 517.147 144.232C516.645 143.974 516.086 143.842 515.519 143.849C514.899 143.834 514.284 143.972 513.732 144.253C513.235 144.52 512.81 144.899 512.492 145.36C512.159 145.852 511.924 146.402 511.799 146.981C511.646 147.635 511.585 148.306 511.619 148.977C511.609 149.618 511.709 150.256 511.917 150.864C512.099 151.37 512.382 151.834 512.748 152.231C513.095 152.602 513.517 152.896 513.988 153.093C514.477 153.294 515.003 153.394 515.533 153.387C516.107 153.397 516.675 153.27 517.189 153.017C517.669 152.777 518.086 152.431 518.408 152.006C518.746 151.543 518.997 151.024 519.15 150.474C519.316 149.859 519.398 149.224 519.392 148.587Z" fill="black"/>
<path d="M515.368 154.857C514.515 154.88 513.667 154.714 512.887 154.371C512.221 154.065 511.637 153.608 511.183 153.038C510.728 152.449 510.4 151.774 510.22 151.055C510.016 150.272 509.916 149.465 509.922 148.656C509.922 147.863 510.029 147.075 510.241 146.311C510.439 145.59 510.773 144.913 511.225 144.314C511.678 143.743 512.253 143.276 512.908 142.947C513.652 142.589 514.471 142.411 515.298 142.427C516.148 142.428 516.987 142.62 517.751 142.988C518.277 143.234 518.748 143.58 519.137 144.007V138.325H521V154.542H519.137V153.12C519.035 153.247 518.924 153.365 518.804 153.476C518.49 153.773 518.136 154.026 517.751 154.228C517.379 154.423 516.986 154.577 516.58 154.686C516.186 154.796 515.778 154.853 515.368 154.857ZM515.298 142.94C514.558 142.925 513.825 143.082 513.158 143.398C512.569 143.695 512.055 144.117 511.654 144.636C511.242 145.18 510.939 145.798 510.76 146.454C510.559 147.171 510.459 147.912 510.463 148.656C510.456 149.419 510.549 150.179 510.74 150.919C510.9 151.569 511.198 152.18 511.613 152.71C512.01 153.216 512.526 153.62 513.116 153.886C513.824 154.195 514.594 154.344 515.368 154.323C515.724 154.321 516.078 154.273 516.421 154.18C516.788 154.078 517.143 153.939 517.481 153.763C517.824 153.58 518.139 153.35 518.416 153.079C518.703 152.819 518.937 152.508 519.109 152.163L519.185 152.019H519.621L519.663 152.279V154.002H520.453V138.817H519.663V145.723L519.164 144.909C518.776 144.266 518.205 143.75 517.522 143.425C516.83 143.092 516.069 142.919 515.298 142.92V142.94ZM515.52 153.674C514.954 153.681 514.393 153.574 513.871 153.359C513.364 153.148 512.909 152.834 512.534 152.436C512.144 152.007 511.845 151.505 511.654 150.96C511.434 150.322 511.326 149.651 511.336 148.977C511.305 148.288 511.368 147.598 511.523 146.926C511.659 146.314 511.913 145.734 512.271 145.217C512.612 144.722 513.068 144.314 513.601 144.027C514.194 143.726 514.853 143.575 515.52 143.59C516.13 143.583 516.733 143.727 517.273 144.007C517.782 144.277 518.226 144.652 518.575 145.107C518.94 145.583 519.215 146.121 519.386 146.693C519.569 147.311 519.66 147.951 519.656 148.594C519.663 149.264 519.575 149.931 519.393 150.577C519.236 151.158 518.97 151.705 518.61 152.19C518.263 152.648 517.815 153.022 517.301 153.284C516.746 153.551 516.136 153.684 515.52 153.674ZM515.52 144.102C514.943 144.089 514.371 144.218 513.857 144.478C513.399 144.723 513.007 145.072 512.714 145.497C512.388 145.96 512.153 146.48 512.021 147.028C511.874 147.66 511.816 148.309 511.848 148.956C511.837 149.57 511.933 150.18 512.132 150.761C512.299 151.242 512.563 151.684 512.908 152.06C513.226 152.404 513.616 152.675 514.051 152.853C514.508 153.04 514.998 153.133 515.492 153.127C516.026 153.139 516.554 153.021 517.03 152.785C517.472 152.562 517.857 152.242 518.153 151.848C518.472 151.416 518.707 150.93 518.846 150.413C519.016 149.814 519.1 149.195 519.095 148.574C519.096 147.983 519.01 147.396 518.839 146.83C518.695 146.319 518.46 145.838 518.146 145.408C517.843 145.015 517.458 144.69 517.017 144.458C516.554 144.223 516.04 144.105 515.52 144.116V144.102Z" fill="black"/>
</g>
<defs>
<clipPath id="clip0_468_2315">
<rect width="520.013" height="198" fill="white" transform="translate(0.986328)"/>
</clipPath>
</defs>
</svg>
