<svg width="247" height="133" viewBox="0 0 247 133" fill="none" xmlns="http://www.w3.org/2000/svg">
<g id="FM logo" clip-path="url(#clip0_1156_9234)">
<path id="Vector" d="M161.234 37.9603H169.91V72.9391H178.393V37.9603H187.068V30.0057H161.234V37.9603Z" fill="#1A16E3"/>
<path id="Vector_2" d="M240.159 60.6177L239.578 61.2362C237.139 63.647 233.849 65.0004 230.42 65.0032C222.84 65.0032 217.549 59.4363 217.549 51.4879C217.549 43.2798 222.605 37.9789 230.42 37.9789C233.849 37.9816 237.139 39.335 239.578 41.7458L240.159 42.3272L246.149 36.3335L245.58 35.7583C243.604 33.7455 241.244 32.149 238.64 31.0633C236.036 29.9775 233.241 29.4244 230.42 29.4367C217.945 29.4367 208.893 38.7149 208.893 51.4879C208.893 64.2609 217.945 73.5453 230.42 73.5453C233.234 73.5566 236.023 73.0091 238.625 71.9345C241.226 70.86 243.588 69.2798 245.574 67.2856L246.149 66.7104L240.159 60.6177Z" fill="#1A16E3"/>
<path id="Vector_3" d="M23.5197 121.081L8.35348 90.0172H0V120.072H8.53911V109.842L19.838 133.006H27.3623L37.8815 110.51V133.006H46.4268V90.0172H38.0609L23.5197 121.081Z" fill="#1A16E3"/>
<path id="Vector_4" d="M99.2572 117.672L79.9081 90.0728H71.7031V120.072H80.2422V105.413L99.5295 133.006H107.741V90.0728H99.2572V117.672Z" fill="#1A16E3"/>
<path id="Vector_5" d="M124.007 90.0728H116.285V132.988H124.007C140.331 132.988 148.963 125.565 148.963 111.524C148.963 97.2974 140.566 90.0728 124.007 90.0728ZM140.356 111.536C140.356 116.701 138.561 120.425 135.009 122.596C132.083 124.384 128.611 124.761 126.217 124.761C125.66 124.761 125.183 124.761 124.824 124.711V98.3489C125.233 98.3489 125.802 98.2809 126.483 98.2809C131.668 98.2871 140.356 100.013 140.356 111.536Z" fill="#1A16E3"/>
<path id="Vector_6" d="M93.8432 72.9391L102.327 54.7291V37.9603H110.142L113.842 30.0057H85.168V37.9603H93.8432V72.9391Z" fill="#1A16E3"/>
<path id="Vector_7" d="M21.1683 47.2323H8.5453V38.5479H25.2151L29.1939 30.0057H0V72.9391H8.5453V55.7126H17.2205L21.1683 47.2323Z" fill="#1A16E3"/>
<path id="Vector_8" d="M68.158 30.0057V57.6053L48.8088 30.0057H40.5977V41.6654L49.143 60.0053V45.3457L68.4302 72.9391H76.6414V30.0057H68.158Z" fill="#1A16E3"/>
<path id="Vector_9" d="M32.1892 43.8364L24.3926 60.5619H39.9796L32.1892 43.8364Z" fill="#FB3E00"/>
<path id="Vector_10" d="M116.824 43.8364L109.033 60.5619H124.62L116.824 43.8364Z" fill="#FB3E00"/>
<path id="Vector_11" d="M152.689 60.0919C152.689 52.4033 147.176 49.2364 141.78 47.1519C136.385 45.0674 135.512 43.7375 135.512 41.6715C135.512 39.9582 136.874 37.9603 140.698 37.9603C142.88 37.9489 145.031 38.4848 146.953 39.519L148.995 40.6324L151.6 32.9067L150.196 32.115C148.81 31.3294 145.747 30.0057 140.865 30.0057C132.641 30.0057 126.67 35.1521 126.67 42.2344C126.67 47.9931 130.383 52.1312 137.919 54.7785C142.869 56.6837 143.804 58.2548 143.804 60.4877C143.804 63.3083 141.57 64.9908 137.833 64.9908C137.212 64.9911 136.591 64.9477 135.976 64.8609L139.689 72.8092C146.471 72.1041 152.689 68.0959 152.689 60.0919Z" fill="#1A16E3"/>
<path id="Vector_12" d="M195.436 50.8879V107.268H157.492V115.811H195.436H202.985H203.975V50.8879H195.436Z" fill="#FB3E00"/>
<path id="Vector_13" d="M27.9141 0V8.54214V21.4698H36.4594V8.54214H195.435V17.0781H203.975V8.54214V0H27.9141Z" fill="#FB3E00"/>
<path id="Vector_14" d="M199.704 42.3458C204.324 42.3458 208.07 38.6016 208.07 33.983C208.07 29.3644 204.324 25.6202 199.704 25.6202C195.083 25.6202 191.338 29.3644 191.338 33.983C191.338 38.6016 195.083 42.3458 199.704 42.3458Z" fill="#FB3E00"/>
<path id="Vector_15" d="M59.0631 102.351C63.6835 102.351 67.429 98.6069 67.429 93.9882C67.429 89.3696 63.6835 85.6255 59.0631 85.6255C54.4428 85.6255 50.6973 89.3696 50.6973 93.9882C50.6973 98.6069 54.4428 102.351 59.0631 102.351Z" fill="#FB3E00"/>
</g>
<defs>
<clipPath id="clip0_1156_9234">
<rect width="246.149" height="133" fill="white"/>
</clipPath>
</defs>
</svg>
