<svg width="670" height="108" viewBox="0 0 670 108" fill="none" xmlns="http://www.w3.org/2000/svg">
<path d="M53.148 107.908C24.21 107.908 0.996001 90.418 0.996001 55.12C0.996001 20.458 24.846 0.74199 52.512 0.74199C67.776 0.74199 78.906 7.10199 86.22 14.416L71.91 31.906C66.822 27.454 61.734 24.274 53.466 24.274C39.474 24.274 28.98 35.404 28.98 54.166C28.98 73.564 37.566 84.376 56.01 84.376C58.872 84.376 62.052 83.74 63.96 82.468V68.158H48.696V45.898H88.128V95.188C80.814 102.184 67.776 107.908 53.148 107.908ZM133.398 55.756L131.649 62.911H150.729L148.98 55.756C146.436 45.898 143.892 33.337 141.348 23.002H140.712C138.486 33.496 135.942 45.898 133.398 55.756ZM93.6483 106L125.13 2.64999H158.202L189.684 106H160.746L155.658 84.058H126.72L121.632 106H93.6483ZM199.54 106V2.64999H228.796L244.378 44.944C246.286 50.668 247.876 57.028 249.784 63.07H250.42C252.328 57.028 253.918 50.668 255.826 44.944L270.772 2.64999H300.028V106H275.224V75.472C275.224 64.978 277.45 48.919 278.722 38.584H278.086L269.5 63.388L256.78 97.573H242.152L229.432 63.388L221.164 38.584H220.528C221.8 48.919 224.026 64.978 224.026 75.472V106H199.54ZM322.982 106V2.64999H389.762V25.546H350.33V41.764H384.038V64.66H350.33V83.104H391.352V106H322.982ZM411.333 106V2.64999H478.749V25.546H438.681V45.262H473.025V68.158H438.681V106H411.333ZM538.872 107.908C509.934 107.908 495.942 91.372 495.942 56.074V2.64999H523.29V59.254C523.29 77.698 528.06 84.376 538.872 84.376C549.684 84.376 554.772 77.698 554.772 59.254V2.64999H581.166V56.074C581.166 91.372 567.81 107.908 538.872 107.908ZM603.406 106V2.64999H630.754V83.104H669.868V106H603.406Z" fill="#1A196F"/>
</svg>
