<svg width="283" height="308" viewBox="0 0 283 308" fill="none" xmlns="http://www.w3.org/2000/svg">
<path d="M25.6047 154.122C25.6047 100.657 62.0375 55.5651 111.347 42.3963C108.537 37.566 106.92 31.9531 106.92 25.9556C106.92 22.7579 107.385 19.6681 108.24 16.7402C46.2367 31.6023 0 87.556 0 154.122C0 232.014 63.2908 295.375 141.082 295.375V269.74C77.407 269.74 25.6047 217.874 25.6047 154.122Z" fill="#00CA3A"/>
<path d="M170.737 16.0185C171.734 19.1555 172.28 22.4949 172.28 25.9557C172.28 31.6766 170.811 37.0602 168.23 41.7353C218.854 53.9933 256.567 99.7264 256.567 154.122C256.567 189.122 240.982 221.868 213.8 243.949L229.938 263.857C263.136 236.885 282.178 196.887 282.178 154.122C282.178 86.416 234.351 29.6865 170.744 16.0117L170.737 16.0185Z" fill="#00CA3A"/>
<g clip-path="url(#clip0_1093_10396)">
<path d="M186 76L164.394 103.641L110.683 166.393L133.149 166.438L97.0155 237.97L97 238L118.606 210.36L172.317 147.607L149.851 147.562L185.986 76.0295L186 76Z" fill="#211E73"/>
</g>
<path d="M153.8 280.906V265.282H163.784V268.402H157.544V271.81H162.872V274.93H157.544V280.906H153.8ZM166.48 280.906V265.282H170.224V277.786H176.296V280.906H166.48ZM182.623 273.082L182.287 274.426H185.479L185.143 273.082C184.735 271.546 184.327 269.698 183.919 268.066H183.823C183.439 269.698 183.031 271.546 182.623 273.082ZM176.839 280.906L181.711 265.282H186.175L191.047 280.906H187.111L186.199 277.306H181.567L180.655 280.906H176.839ZM197.507 281.194C195.395 281.194 193.307 280.474 191.675 278.914L193.643 276.49C194.747 277.45 196.259 277.978 197.579 277.978C198.995 277.978 199.643 277.45 199.643 276.61C199.643 275.698 198.803 275.41 197.435 274.858L195.443 273.994C193.787 273.346 192.275 271.978 192.275 269.722C192.275 267.106 194.627 264.994 197.939 264.994C199.811 264.994 201.659 265.69 203.003 266.938L201.059 269.362C200.003 268.618 198.923 268.21 197.939 268.21C196.787 268.21 196.043 268.666 196.043 269.482C196.043 270.394 197.027 270.706 198.419 271.258L200.363 272.05C202.307 272.818 203.459 274.114 203.459 276.298C203.459 278.914 201.275 281.194 197.507 281.194ZM206.042 280.906V265.282H209.786V271.234H214.946V265.282H218.666V280.906H214.946V274.474H209.786V280.906H206.042ZM153.8 303.906V288.282H159.248C162.488 288.282 165.056 289.146 165.056 292.17C165.056 293.538 164.288 295.05 163.016 295.53V295.626C164.6 296.058 165.824 297.21 165.824 299.298C165.824 302.49 163.088 303.906 159.704 303.906H153.8ZM157.544 294.498H159.104C160.712 294.498 161.408 293.802 161.408 292.722C161.408 291.594 160.664 291.138 159.128 291.138H157.544V294.498ZM157.544 301.05H159.416C161.24 301.05 162.176 300.378 162.176 299.058C162.176 297.738 161.264 297.234 159.416 297.234H157.544V301.05ZM174.618 304.194C170.466 304.194 168.306 301.842 168.306 296.562V288.282H172.026V296.97C172.026 299.946 172.914 300.978 174.618 300.978C176.346 300.978 177.282 299.946 177.282 296.97V288.282H180.858V296.562C180.858 301.842 178.77 304.194 174.618 304.194ZM184.386 303.906V288.282H188.13V303.906H184.386ZM191.722 303.906V288.282H195.466V300.786H201.538V303.906H191.722ZM204.261 303.906V288.282H208.749C213.525 288.282 216.669 290.61 216.669 296.034C216.669 301.434 213.525 303.906 208.965 303.906H204.261ZM208.005 300.906H208.533C211.053 300.906 212.853 299.73 212.853 296.034C212.853 292.314 211.053 291.282 208.533 291.282H208.005V300.906Z" fill="#211E73"/>
<path d="M129.993 39V34.008H137.377V12.532H131.241V8.684C134.569 8.06 136.805 7.176 138.937 5.928H143.513V34.008H149.961V39H129.993Z" fill="#211E73"/>
<defs>
<clipPath id="clip0_1093_10396">
<rect width="89" height="162" fill="white" transform="translate(97 76)"/>
</clipPath>
</defs>
</svg>
