<svg width="286" height="308" viewBox="0 0 286 308" fill="none" xmlns="http://www.w3.org/2000/svg">
<path d="M27.6047 154.122C27.6047 100.657 64.0375 55.5651 113.347 42.3963C110.537 37.566 108.92 31.9531 108.92 25.9556C108.92 22.7579 109.385 19.6681 110.24 16.7402C48.2367 31.6023 2 87.556 2 154.122C2 232.014 65.2908 295.375 143.082 295.375V269.74C79.407 269.74 27.6047 217.874 27.6047 154.122Z" fill="#00CA3A"/>
<path d="M172.737 16.0185C173.734 19.1555 174.28 22.4949 174.28 25.9557C174.28 31.6766 172.811 37.0602 170.23 41.7353C220.854 53.9933 258.567 99.7264 258.567 154.122C258.567 189.122 242.982 221.868 215.8 243.949L231.938 263.857C265.136 236.885 284.178 196.887 284.178 154.122C284.178 86.416 236.351 29.6865 172.744 16.0117L172.737 16.0185Z" fill="#00CA3A"/>
<g clip-path="url(#clip0_1093_10469)">
<path d="M177.232 125.401V101.781C177.232 98.8812 174.882 96.5312 171.982 96.5312H116.902C114.002 96.5312 111.652 98.8812 111.652 101.781V212.021C111.652 214.921 114.002 217.271 116.902 217.271H171.992C174.892 217.271 177.242 214.921 177.242 212.021V185.771" stroke="#211C57" stroke-width="5.25" stroke-miterlimit="10"/>
<path d="M111.652 201.531H177.232" stroke="#211C57" stroke-width="5.25" stroke-linejoin="round"/>
<path d="M111.652 109.65H177.232" stroke="#211C57" stroke-width="5.25" stroke-linejoin="round"/>
<path d="M140.5 209.4H148.37" stroke="#211C57" stroke-width="5.25" stroke-linejoin="round"/>
<path d="M130.012 141.151H190.352V149.021L203.462 135.901L190.352 122.781V130.651H148.372" stroke="#54D600" stroke-width="5.25" stroke-miterlimit="10"/>
<path d="M124.773 170.03H187.723V162.15L200.843 175.28L187.723 188.4V180.53H148.373" stroke="#54D600" stroke-width="5.25" stroke-miterlimit="10"/>
<path d="M137.883 151.65H185.103" stroke="#211C57" stroke-width="5.25" stroke-linejoin="round"/>
<path d="M106.402 130.65H80.1719" stroke="#211C57" stroke-width="5.25" stroke-linejoin="round"/>
<path d="M106.403 180.531H93.293" stroke="#211C57" stroke-width="5.25" stroke-linejoin="round"/>
<path d="M106.403 162.151H95.913V170.031L82.793 156.901L95.913 143.781V151.651H106.403" stroke="#54D600" stroke-width="5.25" stroke-linejoin="round"/>
<path d="M177.23 151.65V170.02" stroke="#211C57" stroke-width="5.25" stroke-miterlimit="10"/>
</g>
<path d="M163.592 285.082L163.256 286.426H166.448L166.112 285.082C165.704 283.546 165.296 281.698 164.888 280.066H164.792C164.408 281.698 164 283.546 163.592 285.082ZM157.808 292.906L162.68 277.282H167.144L172.016 292.906H168.08L167.168 289.306H162.536L161.624 292.906H157.808ZM180.018 293.194C176.034 293.194 172.674 290.482 172.674 285.202C172.674 279.994 176.178 276.994 180.114 276.994C182.154 276.994 183.786 277.906 184.866 279.034L182.898 281.29C182.13 280.57 181.314 280.21 180.21 280.21C178.146 280.21 176.49 282.034 176.49 285.058C176.49 288.178 177.954 289.978 180.138 289.978C181.41 289.978 182.394 289.474 183.138 288.682L185.082 290.89C183.714 292.45 181.986 293.194 180.018 293.194ZM190.176 292.906V280.402H185.928V277.282H198.144V280.402H193.896V292.906H190.176Z" fill="#211E73"/>
<path d="M140.677 39.624C135.321 39.624 131.837 37.492 129.393 35.048L132.201 31.096C134.177 32.968 136.621 34.632 139.897 34.632C143.589 34.632 146.189 32.292 146.189 28.392C146.189 24.492 143.797 22.308 140.209 22.308C138.129 22.308 136.933 22.828 134.957 24.128L132.045 22.256L133.033 5.928H150.817V11.128H138.389L137.661 18.928C139.065 18.252 140.313 17.888 141.977 17.888C147.645 17.888 152.377 21.112 152.377 28.236C152.377 35.464 146.813 39.624 140.677 39.624Z" fill="#211E73"/>
<defs>
<clipPath id="clip0_1093_10469">
<rect width="127" height="126" fill="white" transform="translate(80.1719 93.9004)"/>
</clipPath>
</defs>
</svg>
