<svg width="286" height="308" viewBox="0 0 286 308" fill="none" xmlns="http://www.w3.org/2000/svg">
<path d="M26.6047 154.122C26.6047 100.657 63.0375 55.5651 112.347 42.3963C109.537 37.566 107.92 31.9531 107.92 25.9556C107.92 22.7579 108.385 19.6681 109.24 16.7402C47.2367 31.6023 1 87.556 1 154.122C1 232.014 64.2908 295.375 142.082 295.375V269.74C78.407 269.74 26.6047 217.874 26.6047 154.122Z" fill="#211E73"/>
<path d="M171.737 16.0185C172.734 19.1555 173.28 22.4949 173.28 25.9557C173.28 31.6766 171.811 37.0602 169.23 41.7353C219.854 53.9933 257.567 99.7264 257.567 154.122C257.567 189.122 241.982 221.868 214.8 243.949L230.938 263.857C264.136 236.885 283.178 196.887 283.178 154.122C283.178 86.416 235.351 29.6865 171.744 16.0117L171.737 16.0185Z" fill="#211E73"/>
<g clip-path="url(#clip0_1093_10440)">
<path d="M89.4475 138.02H94.2794C95.6147 138.02 96.6996 136.929 96.6996 135.587V125.853C96.6996 124.511 95.623 123.42 94.2794 123.42H89.4475C88.1122 123.42 87.0273 124.511 87.0273 125.853V135.587C87.0273 136.929 88.1122 138.02 89.4475 138.02Z" stroke="#211C57" stroke-width="5.8" stroke-miterlimit="10"/>
<path d="M164.364 138.02V125.853C164.364 124.511 163.287 123.42 161.943 123.42H157.112C155.776 123.42 154.691 124.511 154.691 125.853V130.72" stroke="#211C57" stroke-width="5.8" stroke-miterlimit="10"/>
<path d="M130.532 130.72V125.853C130.532 124.511 129.455 123.42 128.111 123.42H123.28C121.944 123.42 120.859 124.511 120.859 125.853V138.02" stroke="#211C57" stroke-width="5.8" stroke-miterlimit="10"/>
<path d="M183.701 164.786H178.869C177.534 164.786 176.449 163.695 176.449 162.352V152.619C176.449 151.276 177.534 150.186 178.869 150.186H183.701C185.037 150.186 186.121 151.276 186.121 152.619V162.352C186.121 163.695 185.045 164.786 183.701 164.786Z" stroke="#211C57" stroke-width="5.8" stroke-miterlimit="10"/>
<path d="M176.449 181.82V179.386C176.449 178.044 177.534 176.953 178.869 176.953H183.701C185.037 176.953 186.121 178.044 186.121 179.386V189.12C186.121 190.462 185.045 191.553 183.701 191.553H181.281" stroke="#211C57" stroke-width="5.8" stroke-miterlimit="10"/>
<path d="M108.785 120.986V140.453" stroke="#211C57" stroke-width="5.8" stroke-miterlimit="10"/>
<path d="M142.617 120.986V130.72" stroke="#211C57" stroke-width="5.8" stroke-miterlimit="10"/>
<path d="M198.207 147.754V167.221" stroke="#211C57" stroke-width="5.8" stroke-miterlimit="10"/>
<path d="M198.207 174.52V193.986" stroke="#211C57" stroke-width="5.8" stroke-miterlimit="10"/>
<path d="M190.951 138.02H195.783C197.119 138.02 198.203 136.929 198.203 135.587V125.853C198.203 124.511 197.127 123.42 195.783 123.42H190.951C189.616 123.42 188.531 124.511 188.531 125.853V135.587C188.531 136.929 189.616 138.02 190.951 138.02Z" stroke="#211C57" stroke-width="5.8" stroke-miterlimit="10"/>
<path d="M176.449 120.986V140.453" stroke="#211C57" stroke-width="5.8" stroke-miterlimit="10"/>
<path d="M101.533 164.786H106.365C107.701 164.786 108.786 163.695 108.786 162.352V152.619C108.786 151.276 107.709 150.186 106.365 150.186H101.533C100.198 150.186 99.1133 151.276 99.1133 152.619V162.352C99.1133 163.695 100.198 164.786 101.533 164.786Z" stroke="#211C57" stroke-width="5.8" stroke-miterlimit="10"/>
<path d="M87.0391 147.754V167.221" stroke="#211C57" stroke-width="5.8" stroke-miterlimit="10"/>
<path d="M94.2878 191.553H89.4475C88.1122 191.553 87.0273 190.462 87.0273 189.12V179.386C87.0273 178.044 88.1122 176.953 89.4475 176.953H94.2794C95.6147 176.953 96.6996 178.044 96.6996 179.386V189.12C96.6996 190.462 95.623 191.553 94.2794 191.553H94.2878Z" stroke="#211C57" stroke-width="5.8" stroke-miterlimit="10"/>
<path d="M164.364 186.687V189.121C164.364 190.463 163.287 191.554 161.943 191.554H157.112C155.776 191.554 154.691 190.463 154.691 189.121V184.254" stroke="#211C57" stroke-width="5.8" stroke-miterlimit="10"/>
<path d="M142.618 184.254V189.121C142.618 190.463 141.541 191.554 140.197 191.554H135.365C134.03 191.554 132.945 190.463 132.945 189.121V184.254" stroke="#211C57" stroke-width="5.8" stroke-miterlimit="10"/>
<path d="M108.785 174.52V193.986" stroke="#211C57" stroke-width="5.8" stroke-miterlimit="10"/>
<path d="M120.871 176.953V193.986" stroke="#211C57" stroke-width="5.8" stroke-miterlimit="10"/>
<path d="M142.619 179.386C154.63 179.386 164.367 169.581 164.367 157.486C164.367 145.391 154.63 135.586 142.619 135.586C130.608 135.586 120.871 145.391 120.871 157.486C120.871 169.581 130.608 179.386 142.619 179.386Z" stroke="#54D600" stroke-width="5.8" stroke-miterlimit="10"/>
<path d="M149.869 164.786H145.037C143.702 164.786 142.617 163.695 142.617 162.352V152.619C142.617 151.276 143.702 150.186 145.037 150.186H149.869C151.205 150.186 152.289 151.276 152.289 152.619V162.352C152.289 163.695 151.213 164.786 149.869 164.786Z" stroke="#211C57" stroke-width="5.8" stroke-miterlimit="10"/>
<path d="M132.953 147.754V167.221" stroke="#211C57" stroke-width="5.8" stroke-miterlimit="10"/>
<path d="M157.121 172.086L176.449 191.553" stroke="#54D600" stroke-width="5.8" stroke-miterlimit="10"/>
</g>
<path d="M162.52 285.986L162.136 287.426H165.472L165.112 285.986C164.904 285.202 164.688 284.37 164.464 283.49C164.256 282.61 164.048 281.762 163.84 280.946H163.744C163.552 281.778 163.352 282.634 163.144 283.514C162.952 284.378 162.744 285.202 162.52 285.986ZM156.856 293.906L161.752 278.258H166L170.896 293.906H167.152L166.192 290.186H161.416L160.456 293.906H156.856ZM172.606 293.906V278.258H176.23L180.31 286.034L181.846 289.49H181.942C181.878 288.658 181.79 287.73 181.678 286.706C181.566 285.682 181.51 284.706 181.51 283.778V278.258H184.87V293.906H181.246L177.166 286.106L175.63 282.698H175.534C175.614 283.562 175.702 284.49 175.798 285.482C175.91 286.474 175.966 287.434 175.966 288.362V293.906H172.606ZM192.239 285.986L191.855 287.426H195.191L194.831 285.986C194.623 285.202 194.407 284.37 194.183 283.49C193.975 282.61 193.767 281.762 193.559 280.946H193.463C193.271 281.778 193.071 282.634 192.863 283.514C192.671 284.378 192.463 285.202 192.239 285.986ZM186.575 293.906L191.471 278.258H195.719L200.615 293.906H196.871L195.911 290.186H191.135L190.175 293.906H186.575ZM202.325 293.906V278.258H205.853V290.93H212.045V293.906H202.325ZM215.372 293.906V288.338L210.644 278.258H214.436L215.828 281.858C216.052 282.45 216.268 283.026 216.476 283.586C216.684 284.13 216.892 284.706 217.1 285.314H217.196C217.42 284.706 217.644 284.13 217.868 283.586C218.092 283.026 218.308 282.45 218.516 281.858L219.932 278.258H223.628L218.9 288.338V293.906H215.372ZM229.624 294.194C228.6 294.194 227.576 294.002 226.552 293.618C225.544 293.234 224.64 292.674 223.84 291.938L225.856 289.514C226.416 289.994 227.04 290.386 227.728 290.69C228.416 290.994 229.08 291.146 229.72 291.146C230.456 291.146 231 291.01 231.352 290.738C231.72 290.466 231.904 290.098 231.904 289.634C231.904 289.138 231.696 288.778 231.28 288.554C230.88 288.314 230.336 288.05 229.648 287.762L227.608 286.898C227.08 286.674 226.576 286.378 226.096 286.01C225.616 285.626 225.224 285.154 224.92 284.594C224.616 284.034 224.464 283.378 224.464 282.626C224.464 281.762 224.696 280.978 225.16 280.274C225.64 279.57 226.296 279.01 227.128 278.594C227.976 278.178 228.944 277.97 230.032 277.97C230.928 277.97 231.824 278.146 232.72 278.498C233.616 278.85 234.4 279.362 235.072 280.034L233.272 282.266C232.76 281.866 232.248 281.562 231.736 281.354C231.224 281.13 230.656 281.018 230.032 281.018C229.424 281.018 228.936 281.146 228.568 281.402C228.216 281.642 228.04 281.986 228.04 282.434C228.04 282.914 228.264 283.274 228.712 283.514C229.176 283.754 229.744 284.01 230.416 284.282L232.432 285.098C233.376 285.482 234.128 286.01 234.688 286.682C235.248 287.354 235.528 288.242 235.528 289.346C235.528 290.21 235.296 291.01 234.832 291.746C234.368 292.482 233.696 293.074 232.816 293.522C231.936 293.97 230.872 294.194 229.624 294.194ZM238.184 293.906V278.258H247.976V281.234H241.712V284.378H247.04V287.33H241.712V290.93H248.216V293.906H238.184Z" fill="#211E73"/>
<path d="M134.165 25.792H142.641V18.512C142.641 16.588 142.849 13.52 142.953 11.596H142.745C141.913 13.312 140.977 14.976 140.041 16.744L134.165 25.792ZM142.641 39V30.576H128.081V26.364L141.133 5.928H148.413V25.792H152.521V30.576H148.413V39H142.641Z" fill="#00CA3A"/>
<defs>
<clipPath id="clip0_1093_10440">
<rect width="116" height="73" fill="white" transform="translate(84.6172 120.986)"/>
</clipPath>
</defs>
</svg>
