<svg width="283" height="308" viewBox="0 0 283 308" fill="none" xmlns="http://www.w3.org/2000/svg">
<path d="M25.6047 154.122C25.6047 100.657 62.0375 55.5651 111.347 42.3963C108.537 37.566 106.92 31.9531 106.92 25.9556C106.92 22.7579 107.385 19.6681 108.24 16.7402C46.2367 31.6023 0 87.556 0 154.122C0 232.014 63.2908 295.375 141.082 295.375V269.74C77.407 269.74 25.6047 217.874 25.6047 154.122Z" fill="#211E73"/>
<path d="M170.737 16.0185C171.734 19.1555 172.28 22.4949 172.28 25.9557C172.28 31.6766 170.811 37.0602 168.23 41.7353C218.854 53.9933 256.567 99.7264 256.567 154.122C256.567 189.122 240.982 221.868 213.8 243.949L229.938 263.857C263.136 236.885 282.178 196.887 282.178 154.122C282.178 86.416 234.351 29.6865 170.744 16.0117L170.737 16.0185Z" fill="#211E73"/>
<g clip-path="url(#clip0_1093_10404)">
<path d="M165.407 182.766V206.887C165.407 210.366 162.582 213.19 159.101 213.19H115.704C112.223 213.19 109.398 210.366 109.398 206.887V196.94" stroke="#211C57" stroke-width="5.21" stroke-miterlimit="10" stroke-linecap="round"/>
<path d="M116.287 167.811C114.446 169.667 111.889 170.815 109.064 170.815C106.239 170.815 103.682 169.68 101.828 167.824" stroke="#211C57" stroke-width="5.21" stroke-linecap="round" stroke-linejoin="round"/>
<path d="M121.723 173.238C118.49 176.47 114.011 178.479 109.064 178.479C104.118 178.479 99.6394 176.47 96.4062 173.238" stroke="#211C57" stroke-width="5.21" stroke-linecap="round" stroke-linejoin="round"/>
<path d="M127.452 178.967C122.746 183.654 116.24 186.571 109.064 186.571C101.888 186.571 95.3816 183.66 90.6758 178.967" stroke="#211C57" stroke-width="5.21" stroke-linecap="round" stroke-linejoin="round"/>
<path d="M101.433 144.068C97.5035 141.478 94.9062 137.025 94.9062 131.964C94.9062 123.966 101.393 117.477 109.399 117.477C117.405 117.477 123.891 123.966 123.891 131.964C123.891 137.025 121.3 141.478 117.364 144.068" stroke="#211C57" stroke-width="5.21" stroke-linecap="round" stroke-linejoin="round"/>
<path d="M112.58 146.453C112.58 148.208 111.161 149.624 109.407 149.624C107.653 149.624 106.234 148.202 106.234 146.453C106.234 144.703 107.653 143.281 109.407 143.281C111.161 143.281 112.58 144.703 112.58 146.453Z" fill="#54D600"/>
<path d="M109.398 110.527V113.866" stroke="#211C57" stroke-width="5.21" stroke-linecap="round" stroke-linejoin="round"/>
<path d="M94.4062 116.736L96.7692 119.093" stroke="#211C57" stroke-width="5.21" stroke-linecap="round" stroke-linejoin="round"/>
<path d="M88.1914 131.725H91.5384" stroke="#211C57" stroke-width="5.21" stroke-linecap="round" stroke-linejoin="round"/>
<path d="M94.4062 146.713L96.7692 144.35" stroke="#211C57" stroke-width="5.21" stroke-linecap="round" stroke-linejoin="round"/>
<path d="M124.402 146.713L122.039 144.35" stroke="#211C57" stroke-width="5.21" stroke-linecap="round" stroke-linejoin="round"/>
<path d="M130.606 131.725H127.266" stroke="#211C57" stroke-width="5.21" stroke-linecap="round" stroke-linejoin="round"/>
<path d="M124.402 116.736L122.039 119.093" stroke="#211C57" stroke-width="5.21" stroke-linecap="round" stroke-linejoin="round"/>
<path d="M109.401 159.872C125.479 159.872 138.513 146.843 138.513 130.77C138.513 114.697 125.479 101.668 109.401 101.668C93.3229 101.668 80.2891 114.697 80.2891 130.77C80.2891 146.843 93.3229 159.872 109.401 159.872Z" stroke="#211C57" stroke-width="5.21" stroke-linecap="round" stroke-linejoin="round"/>
<path d="M170.427 190.45H180.596C182.965 190.45 185.281 189.823 187.289 188.634C191.313 186.277 193.809 181.924 193.809 177.258C193.809 169.98 187.885 164.065 180.596 164.065H180.348L180.234 163.838C178.092 158.03 172.496 154.131 166.311 154.131C159.724 154.131 153.86 158.544 152.053 164.866L151.959 165.2L151.631 165.113C151.176 165 150.68 164.94 150.145 164.94C146.851 164.94 144.181 167.517 144.06 170.802L144.047 171.035L143.832 171.115C140.017 172.598 137.453 176.343 137.453 180.442C137.453 185.964 141.945 190.457 147.467 190.457H160.607" stroke="#211C57" stroke-width="5.21" stroke-linecap="round" stroke-linejoin="round"/>
<path d="M166.27 149.444C168.679 144.45 173.787 140.998 179.711 140.998C187.945 140.998 194.618 147.668 194.618 155.9C194.618 158.664 193.862 161.254 192.55 163.471" stroke="#211C57" stroke-width="5.21" stroke-linecap="round" stroke-linejoin="round"/>
<path d="M179.707 136.878V132.812" stroke="#211C57" stroke-width="5.21" stroke-linecap="round" stroke-linejoin="round"/>
<path d="M166.204 142.4L163.379 139.576" stroke="#211C57" stroke-width="5.21" stroke-linecap="round" stroke-linejoin="round"/>
<path d="M198.824 155.898H202.8" stroke="#211C57" stroke-width="5.21" stroke-linecap="round" stroke-linejoin="round"/>
<path d="M193.215 142.4L196.04 139.576" stroke="#211C57" stroke-width="5.21" stroke-linecap="round" stroke-linejoin="round"/>
<path d="M168.689 175.862C168.689 177.671 167.223 179.14 165.409 179.14C163.595 179.14 162.129 177.671 162.129 175.862C162.129 174.053 163.595 172.584 165.409 172.584C167.223 172.584 168.689 174.053 168.689 175.862Z" fill="#54D600"/>
<path d="M109.401 122.697C104.294 122.697 100.137 126.85 100.137 131.957C100.137 132.031 100.15 132.098 100.15 132.171C102.814 130.442 105.987 129.427 109.401 129.427C112.815 129.427 115.988 130.442 118.652 132.171C118.652 132.098 118.666 132.031 118.666 131.957C118.666 126.85 114.509 122.697 109.401 122.697Z" fill="#54D600"/>
</g>
<path d="M160.376 294.194C159.064 294.194 157.856 293.89 156.752 293.282C155.648 292.674 154.76 291.778 154.088 290.594C153.432 289.394 153.104 287.922 153.104 286.178C153.104 284.45 153.44 282.978 154.112 281.762C154.8 280.53 155.704 279.594 156.824 278.954C157.96 278.298 159.184 277.97 160.496 277.97C161.504 277.97 162.408 278.178 163.208 278.594C164.008 278.994 164.672 279.466 165.2 280.01L163.328 282.266C162.928 281.898 162.504 281.602 162.056 281.378C161.624 281.138 161.128 281.018 160.568 281.018C159.864 281.018 159.216 281.218 158.624 281.618C158.048 282.018 157.584 282.594 157.232 283.346C156.896 284.098 156.728 285.002 156.728 286.058C156.728 287.658 157.072 288.906 157.76 289.802C158.448 290.698 159.368 291.146 160.52 291.146C161.16 291.146 161.728 291.002 162.224 290.714C162.736 290.426 163.184 290.082 163.568 289.682L165.44 291.89C164.128 293.426 162.44 294.194 160.376 294.194ZM173.286 294.194C171.878 294.194 170.638 293.866 169.566 293.21C168.51 292.554 167.678 291.618 167.07 290.402C166.478 289.17 166.182 287.706 166.182 286.01C166.182 284.298 166.478 282.85 167.07 281.666C167.678 280.466 168.51 279.554 169.566 278.93C170.638 278.29 171.878 277.97 173.286 277.97C174.694 277.97 175.926 278.29 176.982 278.93C178.054 279.554 178.886 280.466 179.478 281.666C180.086 282.866 180.39 284.314 180.39 286.01C180.39 287.706 180.086 289.17 179.478 290.402C178.886 291.618 178.054 292.554 176.982 293.21C175.926 293.866 174.694 294.194 173.286 294.194ZM173.286 291.146C174.358 291.146 175.206 290.682 175.83 289.754C176.454 288.826 176.766 287.578 176.766 286.01C176.766 284.442 176.454 283.218 175.83 282.338C175.206 281.458 174.358 281.018 173.286 281.018C172.214 281.018 171.366 281.458 170.742 282.338C170.118 283.218 169.806 284.442 169.806 286.01C169.806 287.578 170.118 288.826 170.742 289.754C171.366 290.682 172.214 291.146 173.286 291.146ZM183.332 293.906V278.258H186.956L191.036 286.034L192.572 289.49H192.668C192.604 288.658 192.516 287.73 192.404 286.706C192.292 285.682 192.236 284.706 192.236 283.778V278.258H195.596V293.906H191.972L187.892 286.106L186.356 282.698H186.26C186.34 283.562 186.428 284.49 186.524 285.482C186.636 286.474 186.692 287.434 186.692 288.362V293.906H183.332ZM199.293 293.906V278.258H202.917L206.997 286.034L208.533 289.49H208.629C208.565 288.658 208.477 287.73 208.365 286.706C208.253 285.682 208.197 284.706 208.197 283.778V278.258H211.557V293.906H207.933L203.853 286.106L202.317 282.698H202.221C202.301 283.562 202.389 284.49 202.485 285.482C202.597 286.474 202.653 287.434 202.653 288.362V293.906H199.293ZM215.254 293.906V278.258H225.046V281.234H218.782V284.378H224.11V287.33H218.782V290.93H225.286V293.906H215.254ZM234.931 294.194C233.619 294.194 232.411 293.89 231.307 293.282C230.203 292.674 229.315 291.778 228.643 290.594C227.987 289.394 227.659 287.922 227.659 286.178C227.659 284.45 227.995 282.978 228.667 281.762C229.355 280.53 230.259 279.594 231.379 278.954C232.515 278.298 233.739 277.97 235.051 277.97C236.059 277.97 236.963 278.178 237.763 278.594C238.563 278.994 239.227 279.466 239.755 280.01L237.883 282.266C237.483 281.898 237.059 281.602 236.611 281.378C236.179 281.138 235.683 281.018 235.123 281.018C234.419 281.018 233.771 281.218 233.179 281.618C232.603 282.018 232.139 282.594 231.787 283.346C231.451 284.098 231.283 285.002 231.283 286.058C231.283 287.658 231.627 288.906 232.315 289.802C233.003 290.698 233.923 291.146 235.075 291.146C235.715 291.146 236.283 291.002 236.779 290.714C237.291 290.426 237.739 290.082 238.123 289.682L239.995 291.89C238.683 293.426 236.995 294.194 234.931 294.194ZM245.138 293.906V281.234H240.842V278.258H252.986V281.234H248.69V293.906H245.138Z" fill="#211E73"/>
<path d="M128.121 39V35.204C137.169 26.78 143.045 20.748 143.045 15.808C143.045 12.324 141.121 10.192 137.637 10.192C135.089 10.192 133.009 11.856 131.241 13.78L127.965 10.556C130.929 7.228 133.997 5.304 138.469 5.304C144.813 5.304 148.973 9.308 148.973 15.392C148.973 21.58 143.357 27.248 136.493 34.112C138.261 33.956 140.445 33.8 142.057 33.8H150.533V39H128.121Z" fill="#00CA3A"/>
<defs>
<clipPath id="clip0_1093_10404">
<rect width="126" height="115" fill="white" transform="translate(78.5469 99.9316)"/>
</clipPath>
</defs>
</svg>
