<svg width="386" height="120" viewBox="0 0 386 120" fill="none" xmlns="http://www.w3.org/2000/svg">
<g id="iconekt logo (for dark bkg)">
<path id="Path" d="M136.658 109.559C131.303 114.756 125.676 116.8 118.814 116.8C105.375 116.8 94.209 108.832 94.209 92.5505C94.209 76.2694 105.38 68.3013 118.814 68.3013C125.403 68.3013 130.463 70.1583 135.528 75.0812L128.305 82.6132C125.757 80.3203 122.447 79.0327 119.003 78.9947C111.301 78.9947 105.665 84.5699 105.665 92.5588C105.665 101.283 111.675 105.936 118.843 105.936C122.505 105.936 126.167 104.914 128.989 102.135L136.658 109.559Z" fill="#211E73"/>
<path id="Shape" fill-rule="evenodd" clip-rule="evenodd" d="M164.527 116.802C179.569 116.802 188.687 106.096 188.687 92.9015H188.674C188.674 79.8027 179.15 69.0012 164.418 69.0012C149.686 69.0012 140.48 79.6863 140.48 92.9015C140.48 106.117 149.484 116.802 164.527 116.802ZM164.55 106.374C156.176 106.374 151.951 99.8681 151.951 92.9012L151.955 92.9136C151.955 86.0339 156.289 79.3495 164.554 79.3495C172.251 79.3495 177.148 85.9509 177.148 92.9012C177.148 99.8515 172.923 106.374 164.55 106.374Z" fill="#211E73"/>
<path id="Path_2" d="M230.661 116.801V92.8262C230.661 85.8593 226.81 80.5666 219.482 80.5666C212.439 80.5666 207.643 86.4202 207.643 93.3871V116.801H196.279V69.4619H207.643V77.0562C212.032 72.4863 216.655 70.2512 222.476 70.2512C233.395 70.2512 242.113 78.3357 242.113 92.7058V116.772L230.661 116.801Z" fill="#211E73"/>
<path id="Shape_2" fill-rule="evenodd" clip-rule="evenodd" d="M275.551 106.483C267.475 106.483 262.473 102.391 261.743 96.729H297.896C299.681 77.868 290.01 68.3877 274.509 68.3877C259.479 68.3877 249.904 78.4206 249.904 92.3627C249.904 107.044 259.395 116.799 275.353 116.799C282.404 116.799 290.383 114.381 295.267 109.367L287.948 102.213C285.319 104.905 279.775 106.483 275.551 106.483ZM274.889 78.3943C281.453 78.3943 286.177 81.3688 286.912 87.3179H261.929C263.622 81.3688 268.686 78.3943 274.889 78.3943Z" fill="#211E73"/>
<path id="Path_3" d="M316.966 51.8557V89.3865L332.555 70.9909H346.266V71.6431L327.393 92.5522L348.903 115.966V116.801H335.095L316.966 96.0792V116.801H305.51V51.8557H316.966Z" fill="#211E73"/>
<path id="Path_4" d="M370.328 57.5025V70.539H383.107V80.2686H370.219V100.06C370.219 104.406 372.663 106.583 376.229 106.583C378.158 106.527 380.051 106.049 381.772 105.182L385.001 114.837C381.982 116.079 378.751 116.741 375.481 116.786C365.432 117.155 358.855 111.489 358.855 100.06V80.2686H350.217V70.514H358.855V57.49L370.328 57.5025Z" fill="#211E73"/>
<path id="Path_5" d="M25.5508 44.8377C25.2158 47.0279 23.1504 48.5354 20.9361 48.2058C18.7219 47.8762 17.1963 45.8343 17.5276 43.6436C17.8589 41.4528 19.9218 39.9419 22.1366 40.2678C23.203 40.4237 24.1627 40.9934 24.8035 41.851C25.4442 42.7086 25.7131 43.7834 25.5508 44.8377Z" fill="#0DFF68"/>
<path id="Path_6" d="M38.8621 6.76696C38.3735 9.9841 35.3413 12.2004 32.0891 11.7174C28.837 11.2343 26.5964 8.23488 27.0843 5.01765C27.5723 1.80041 30.6041 -0.416471 33.8563 0.0659237C35.4185 0.297638 36.8236 1.13388 37.7624 2.39063C38.7012 3.64737 39.0968 5.22163 38.8621 6.76696Z" fill="#0DFF68"/>
<path id="Shape_3" fill-rule="evenodd" clip-rule="evenodd" d="M86.3859 27.9284C87.0095 26.5889 88.4448 25.8099 89.9219 26.0091L89.9261 25.9966C91.6134 26.2015 92.8862 27.6112 92.9023 29.2928C92.9181 30.9745 91.6722 32.4076 89.9891 32.6437C82.5758 46.2236 72.1112 50.0888 56.7152 55.7753L56.6702 55.792L53.8019 56.8555C53.8523 58.1267 53.9069 59.4437 53.9741 60.8105C54.7846 77.3034 53.2434 84.4905 51.4544 89.8082C48.7793 97.7514 43.8449 104.54 36.0464 110.975C36.0757 112.82 34.6216 114.356 32.7587 114.448C30.8958 114.539 29.2945 113.154 29.1382 111.315C29.0899 110.889 29.1256 110.457 29.2432 110.044L15.7124 86.6425C15.2806 85.8936 14.4638 85.4442 13.5928 85.4765C12.7219 85.5088 11.9413 86.0174 11.5675 86.7962C10.2256 89.6259 9.12299 92.5606 8.27087 95.5703C6.68109 101.211 5.84527 107.034 5.78477 112.89C7.28083 113.601 8.13329 115.194 7.88631 116.817C7.63934 118.44 6.35072 119.715 4.70951 119.958C3.06829 120.202 1.45849 119.358 0.740886 117.877C0.0232873 116.397 0.365794 114.627 1.58526 113.513C1.58232 107.113 2.4611 100.743 4.19735 94.5774C8.51025 79.3806 17.7744 68.0516 30.986 61.82C37.869 58.5713 43.9793 56.1119 49.5184 54.0347C49.1615 42.2528 49.5604 35.0823 49.8628 31.6258C48.654 30.6414 48.2305 28.9949 48.8167 27.5586C49.4028 26.1223 50.8632 25.2282 52.4241 25.3499C53.985 25.4716 55.2857 26.581 55.6371 28.0905L86.3859 27.9284ZM29.3313 67.3665C25.977 69.2924 22.9005 71.6567 20.1848 74.3958C19.523 75.0637 19.3298 76.0588 19.6945 76.9217C20.0592 77.7846 20.9108 78.3476 21.8562 78.3508L41.1739 78.2511C42.1617 78.2465 43.0401 77.6286 43.3688 76.7071C43.6975 75.7856 43.4057 74.7592 42.6395 74.1424L34.7907 67.8069C33.2425 66.5466 31.0655 66.371 29.3313 67.3665ZM48.7337 83.7622C48.4094 85.3643 47.9887 86.9457 47.4739 88.4982C45.2608 95.0829 41.2754 100.833 35.0979 106.308C34.5862 106.762 33.8986 106.969 33.2181 106.876C32.5376 106.782 31.9333 106.397 31.5662 105.822L17.985 84.6679C17.5279 83.9572 17.4973 83.0569 17.9051 82.3174C18.3129 81.578 19.0947 81.1161 19.9461 81.1117L46.4576 80.9704C47.1616 80.9735 47.8271 81.289 48.2706 81.8299C48.714 82.3708 48.8887 83.0801 48.7463 83.7622H48.7337ZM48.6324 73.7618C49.4437 73.3927 49.9719 72.5988 49.9936 71.7157V71.7032C50.0734 68.1263 49.9642 64.5452 49.7836 61.0098V60.8228C49.7559 60.2628 49.4567 59.7505 48.9801 59.4472C48.5034 59.1438 47.9081 59.0868 47.3815 59.294C44.6014 60.3866 41.6617 61.5831 38.5625 62.9374C37.8137 63.2578 37.2878 63.9409 37.1746 64.7402C37.0614 65.5394 37.3773 66.3392 38.0082 66.8509L46.1762 73.4522C46.8681 74.0107 47.8211 74.1309 48.6324 73.7618ZM67.427 47.1407C63.8286 48.7426 59.8008 50.2332 55.2521 51.9165L55.2022 51.9349C54.8488 52.0657 54.4533 52.0188 54.1411 51.8091C53.829 51.5994 53.639 51.2529 53.6316 50.8797C53.4804 43.4475 53.6316 38.134 53.85 34.6983C53.8809 34.2712 54.1473 33.8957 54.5428 33.7218C54.9384 33.5479 55.3986 33.6039 55.7398 33.8675L67.9183 43.2232C68.5515 43.7247 68.8763 44.5153 68.7761 45.3116C68.6759 46.1079 68.1651 46.7956 67.427 47.1283V47.1407ZM74.8525 43.2021C78.6515 40.7696 81.8989 37.5839 84.3896 33.8464V33.8381C84.8167 33.2032 84.8578 32.3879 84.4967 31.7142C84.1356 31.0404 83.4303 30.6166 82.6594 30.6101L60.3223 30.7389C59.7056 30.7504 59.1622 31.1427 58.9629 31.7201C58.7636 32.2976 58.9511 32.9366 59.432 33.3188L72.1187 43.1024C72.9151 43.7093 74.0131 43.7493 74.8525 43.2021Z" fill="#211E73"/>
<path id="Path_7" d="M74.6758 69.3735L74.6842 116.796H86.132V69.5937L74.6758 69.3735Z" fill="#211E73"/>
<path id="Path_8" d="M86.0793 61.0663C85.7656 63.3374 84.0997 65.1979 81.8585 65.7799C79.6174 66.362 77.2425 65.5511 75.8415 63.7253C74.4405 61.8996 74.2893 59.4187 75.4586 57.4397C76.6278 55.4607 78.8871 54.3735 81.1827 54.6851C84.3143 55.1126 86.505 57.9674 86.0793 61.0663Z" fill="#0DFF68"/>
</g>
</svg>
