<svg width="129" height="36" viewBox="0 0 129 36" fill="none" xmlns="http://www.w3.org/2000/svg">
<path d="M3.456 35V3.8H11.712V35H3.456ZM18.6435 35V3.8H27.8595C31.0275 3.8 33.8115 4.328 36.2115 5.384C38.6435 6.408 40.5315 8.056 41.8755 10.328C43.2195 12.6 43.8915 15.576 43.8915 19.256C43.8915 22.936 43.2195 25.944 41.8755 28.28C40.5315 30.584 38.6915 32.28 36.3555 33.368C34.0195 34.456 31.3475 35 28.3395 35H18.6435ZM26.8995 28.376H27.3795C28.8835 28.376 30.2435 28.12 31.4595 27.608C32.6755 27.096 33.6355 26.184 34.3395 24.872C35.0755 23.56 35.4435 21.688 35.4435 19.256C35.4435 16.824 35.0755 14.984 34.3395 13.736C33.6355 12.456 32.6755 11.592 31.4595 11.144C30.2435 10.664 28.8835 10.424 27.3795 10.424H26.8995V28.376ZM49.4404 35V3.8H69.6004V10.712H57.6964V15.608H67.8724V22.52H57.6964V28.088H70.0804V35H49.4404ZM114.032 35.576C112.08 35.576 110.048 35.208 107.936 34.472C105.824 33.736 103.92 32.616 102.224 31.112L106.928 25.448C108.048 26.344 109.248 27.08 110.528 27.656C111.84 28.2 113.072 28.472 114.224 28.472C115.472 28.472 116.368 28.28 116.912 27.896C117.488 27.512 117.776 26.968 117.776 26.264C117.776 25.528 117.392 24.968 116.624 24.584C115.888 24.2 114.864 23.752 113.552 23.24L109.664 21.608C108 20.936 106.528 19.88 105.248 18.44C104 17 103.376 15.16 103.376 12.92C103.376 11.128 103.872 9.512 104.864 8.072C105.856 6.6 107.216 5.432 108.944 4.568C110.704 3.672 112.72 3.224 114.992 3.224C116.784 3.224 118.592 3.576 120.416 4.28C122.272 4.952 123.92 5.992 125.359 7.4L121.232 12.584C120.176 11.848 119.152 11.288 118.16 10.904C117.2 10.52 116.144 10.328 114.992 10.328C114 10.328 113.2 10.504 112.592 10.856C112.016 11.208 111.728 11.736 111.728 12.44C111.728 13.176 112.144 13.752 112.976 14.168C113.808 14.552 114.928 15.016 116.336 15.56L120.128 17.048C122.08 17.816 123.584 18.888 124.64 20.264C125.696 21.64 126.224 23.416 126.224 25.592C126.224 27.352 125.744 29 124.784 30.536C123.856 32.04 122.48 33.256 120.656 34.184C118.832 35.112 116.624 35.576 114.032 35.576Z" fill="#1A196F"/>
<path d="M87.5027 4L73 35H102L87.5027 4Z" fill="#FB3E00"/>
</svg>
