<svg width="1142" height="334" viewBox="0 0 1142 334" fill="none" xmlns="http://www.w3.org/2000/svg">
<path d="M13.248 141V21.4H44.896V141H13.248ZM77.9068 141V21.4H111.763L129.795 70.344C130.899 73.656 131.941 77.0907 132.923 80.648C133.904 84.2053 134.947 87.7627 136.051 91.32H136.787C137.891 87.7627 138.933 84.2053 139.915 80.648C140.896 77.0907 141.939 73.656 143.043 70.344L160.339 21.4H194.195V141H165.491V105.672C165.491 101.624 165.736 97.0853 166.227 92.056C166.717 86.904 167.269 81.752 167.883 76.6C168.496 71.448 169.048 66.9093 169.539 62.984H168.803L158.867 91.688L144.147 131.248H127.219L112.499 91.688L102.931 62.984H102.195C102.685 66.9093 103.237 71.448 103.851 76.6C104.464 81.752 105.016 86.904 105.507 92.056C105.997 97.0853 106.243 101.624 106.243 105.672V141H77.9068ZM227.198 141V21.4H261.054L279.086 70.344C280.19 73.656 281.233 77.0907 282.214 80.648C283.196 84.2053 284.238 87.7627 285.342 91.32H286.078C287.182 87.7627 288.225 84.2053 289.206 80.648C290.188 77.0907 291.23 73.656 292.334 70.344L309.63 21.4H343.486V141H314.782V105.672C314.782 101.624 315.028 97.0853 315.518 92.056C316.009 86.904 316.561 81.752 317.174 76.6C317.788 71.448 318.34 66.9093 318.83 62.984H318.094L308.158 91.688L293.438 131.248H276.51L261.79 91.688L252.222 62.984H251.486C251.977 66.9093 252.529 71.448 253.142 76.6C253.756 81.752 254.308 86.904 254.798 92.056C255.289 97.0853 255.534 101.624 255.534 105.672V141H227.198ZM376.49 141V21.4H453.77V47.896H408.138V66.664H447.146V93.16H408.138V114.504H455.61V141H376.49ZM485.172 141V21.4H530.436C539.023 21.4 546.935 22.5653 554.172 24.896C561.409 27.104 567.236 31.0293 571.652 36.672C576.068 42.3147 578.276 50.104 578.276 60.04C578.276 68.6267 576.497 75.7413 572.94 81.384C569.383 87.0267 564.721 91.4427 558.956 94.632L584.9 141H549.572L528.964 100.888H516.82V141H485.172ZM516.82 75.864H528.228C540.985 75.864 547.364 70.5893 547.364 60.04C547.364 54.888 545.708 51.3307 542.396 49.368C539.207 47.4053 534.484 46.424 528.228 46.424H516.82V75.864ZM642.899 143.208C635.416 143.208 627.627 141.797 619.531 138.976C611.435 136.155 604.136 131.861 597.635 126.096L615.667 104.384C619.96 107.819 624.56 110.64 629.467 112.848C634.496 114.933 639.219 115.976 643.635 115.976C648.419 115.976 651.854 115.24 653.939 113.768C656.147 112.296 657.251 110.211 657.251 107.512C657.251 104.691 655.779 102.544 652.835 101.072C650.014 99.6 646.088 97.8827 641.059 95.92L626.155 89.664C619.776 87.088 614.134 83.04 609.227 77.52C604.443 72 602.051 64.9467 602.051 56.36C602.051 49.4907 603.952 43.296 607.755 37.776C611.558 32.1333 616.771 27.656 623.395 24.344C630.142 20.9093 637.87 19.192 646.579 19.192C653.448 19.192 660.379 20.5413 667.371 23.24C674.486 25.816 680.803 29.8027 686.323 35.2L670.499 55.072C666.451 52.2507 662.526 50.104 658.723 48.632C655.043 47.16 650.995 46.424 646.579 46.424C642.776 46.424 639.71 47.0987 637.379 48.448C635.171 49.7973 634.067 51.8213 634.067 54.52C634.067 57.3413 635.662 59.5493 638.851 61.144C642.04 62.616 646.334 64.3947 651.731 66.48L666.267 72.184C673.75 75.128 679.515 79.2373 683.563 84.512C687.611 89.7867 689.635 96.5947 689.635 104.936C689.635 111.683 687.795 118 684.115 123.888C680.558 129.653 675.283 134.315 668.291 137.872C661.299 141.429 652.835 143.208 642.899 143.208ZM800.193 141L764.865 21.4H798.353L810.865 73.656C812.582 80.0347 814.054 86.352 815.281 92.608C816.63 98.7413 818.102 105.059 819.697 111.56H820.433C822.15 105.059 823.622 98.7413 824.849 92.608C826.198 86.352 827.67 80.0347 829.265 73.656L841.409 21.4H873.793L838.465 141H800.193ZM891.69 141V21.4H968.97V47.896H923.338V66.664H962.346V93.16H923.338V114.504H970.81V141H891.69Z" fill="white"/>
<path d="M714 24H744V54H714V24Z" fill="#FB3E00"/>
<path d="M42.688 322.208C32.9973 322.208 24.84 320.368 18.216 316.688C11.7147 312.885 6.256 307.181 1.84 299.576L23.184 283.568C25.2693 287.371 27.6613 290.253 30.36 292.216C33.0587 294.056 35.696 294.976 38.272 294.976C42.5653 294.976 45.816 293.688 48.024 291.112C50.3547 288.413 51.52 283.323 51.52 275.84V200.4H83.168V278.416C83.168 286.389 81.696 293.688 78.752 300.312C75.9307 306.936 71.5147 312.272 65.504 316.32C59.4933 320.245 51.888 322.208 42.688 322.208ZM299.904 322.208C283.222 322.208 270.771 317.301 262.552 307.488C254.334 297.675 250.224 282.587 250.224 262.224V200.4H281.872V265.904C281.872 276.576 283.283 284.12 286.104 288.536C289.048 292.829 293.648 294.976 299.904 294.976C306.16 294.976 310.76 292.829 313.704 288.536C316.771 284.12 318.304 276.576 318.304 265.904V200.4H348.848V262.224C348.848 282.587 344.862 297.675 336.888 307.488C329.038 317.301 316.71 322.208 299.904 322.208ZM381.945 320V200.4H427.209C435.796 200.4 443.708 201.565 450.945 203.896C458.183 206.104 464.009 210.029 468.425 215.672C472.841 221.315 475.049 229.104 475.049 239.04C475.049 247.627 473.271 254.741 469.713 260.384C466.156 266.027 461.495 270.443 455.729 273.632L481.673 320H446.345L425.737 279.888H413.593V320H381.945ZM413.593 254.864H425.001C437.759 254.864 444.137 249.589 444.137 239.04C444.137 233.888 442.481 230.331 439.169 228.368C435.98 226.405 431.257 225.424 425.001 225.424H413.593V254.864ZM505.204 320V200.4H537.588L564.084 253.76L575.492 280.624H576.228C575.492 274.123 574.633 266.763 573.652 258.544C572.67 250.203 572.18 242.352 572.18 234.992V200.4H602.356V320H569.972L543.476 266.456L532.068 239.776H531.332C532.068 246.523 532.926 254.005 533.908 262.224C534.889 270.32 535.38 278.048 535.38 285.408V320H505.204ZM636.189 320V200.4H713.469V226.896H667.837V245.664H706.845V272.16H667.837V293.504H715.309V320H636.189ZM766.767 320V278.784L730.703 200.4H764.559L773.391 225.424C774.863 229.963 776.335 234.379 777.807 238.672C779.279 242.965 780.812 247.443 782.407 252.104H783.143C784.737 247.443 786.271 242.965 787.743 238.672C789.337 234.379 790.932 229.963 792.527 225.424L801.359 200.4H834.479L798.415 278.784V320H766.767Z" fill="white"/>
<path d="M168.564 322C203.67 322 232.128 294.913 232.128 261.5C232.128 228.087 203.67 201 168.564 201C133.459 201 105 228.087 105 261.5C105 294.913 133.459 322 168.564 322Z" fill="white"/>
</svg>
