<svg width="1018" height="134" viewBox="0 0 1018 134" fill="none" xmlns="http://www.w3.org/2000/svg">
<path d="M13.248 131V11.4H44.896V131H13.248ZM71.4668 131V11.4H103.851L130.347 64.76L141.755 91.624H142.491C141.755 85.1227 140.896 77.7627 139.915 69.544C138.933 61.2027 138.443 53.352 138.443 45.992V11.4H168.619V131H136.235L109.739 77.456L98.3308 50.776H97.5948C98.3308 57.5227 99.1894 65.0053 100.171 73.224C101.152 81.32 101.643 89.048 101.643 96.408V131H71.4668ZM195.092 131V11.4H227.476L253.972 64.76L265.38 91.624H266.116C265.38 85.1227 264.521 77.7627 263.54 69.544C262.558 61.2027 262.068 53.352 262.068 45.992V11.4H292.244V131H259.86L233.364 77.456L221.956 50.776H221.22C221.956 57.5227 222.814 65.0053 223.796 73.224C224.777 81.32 225.268 89.048 225.268 96.408V131H195.092ZM466.355 131L431.027 11.4H464.515L477.027 63.656C478.745 70.0347 480.217 76.352 481.443 82.608C482.793 88.7413 484.265 95.0587 485.859 101.56H486.595C488.313 95.0587 489.785 88.7413 491.011 82.608C492.361 76.352 493.833 70.0347 495.427 63.656L507.571 11.4H539.955L504.627 131H466.355ZM681.681 131V37.896H650.033V11.4H744.977V37.896H713.329V131H681.681ZM841.183 131L805.855 11.4H839.343L851.855 63.656C853.573 70.0347 855.045 76.352 856.271 82.608C857.621 88.7413 859.093 95.0587 860.687 101.56H861.423C863.141 95.0587 864.613 88.7413 865.839 82.608C867.189 76.352 868.661 70.0347 870.255 63.656L882.399 11.4H914.783L879.455 131H841.183ZM926.24 131V11.4H1003.52V37.896H957.888V56.664H996.896V83.16H957.888V104.504H1005.36V131H926.24Z" fill="#1A196F"/>
<path d="M598.5 12L541 132H656L598.5 12Z" fill="#1A196F"/>
<path d="M777.5 39C784.956 39 791 32.9558 791 25.5C791 18.0442 784.956 12 777.5 12C770.044 12 764 18.0442 764 25.5C764 32.9558 770.044 39 777.5 39Z" fill="#FB3E00"/>
<path d="M373 132C406.137 132 433 105.137 433 72C433 38.8629 406.137 12 373 12C339.863 12 313 38.8629 313 72C313 105.137 339.863 132 373 132Z" fill="#1A196F"/>
</svg>
