<svg width="49" height="48" viewBox="0 0 49 48" fill="none" xmlns="http://www.w3.org/2000/svg">
<g clip-path="url(#clip0_1091_3586)">
<path fill-rule="evenodd" clip-rule="evenodd" d="M24.1399 0H24.1499C37.2446 0 47.8599 10.6153 47.8599 23.71V23.72C47.8599 36.8147 37.2446 47.43 24.1499 47.43H24.1399C11.0453 47.43 0.429932 36.8147 0.429932 23.72V23.71C0.429932 10.6153 11.0453 0 24.1399 0ZM29.3909 13.13C28.0209 13.06 27.6109 13.05 24.1409 13.05C20.7167 13.05 20.2722 13.0695 18.9447 13.1277L18.8909 13.13C17.6309 13.19 16.9409 13.4 16.4809 13.58C15.8709 13.81 15.4409 14.09 14.9809 14.55C14.5309 15 14.2509 15.43 14.0109 16.04C13.8309 16.49 13.6209 17.18 13.5609 18.45C13.4909 19.82 13.4809 20.23 13.4809 23.7C13.4809 27.1242 13.5003 27.5687 13.5585 28.8962L13.5609 28.95C13.6209 30.21 13.8309 30.9 14.0109 31.36C14.2409 31.97 14.5309 32.4 14.9809 32.86C15.4409 33.31 15.8709 33.59 16.4809 33.83C16.9309 34.01 17.6209 34.22 18.8909 34.28C20.2609 34.35 20.6709 34.36 24.1409 34.36C27.5649 34.36 28.0095 34.3405 29.337 34.2824H29.3371L29.3909 34.28C30.6509 34.22 31.3409 34.01 31.8009 33.83C32.4009 33.6 32.8409 33.32 33.2909 32.86C33.7409 32.4 34.0209 31.97 34.2609 31.36C34.4409 30.91 34.6509 30.22 34.7109 28.95C34.7809 27.58 34.7909 27.17 34.7909 23.7C34.7909 20.2759 34.7714 19.8314 34.7132 18.5039V18.5038L34.7109 18.45C34.6509 17.19 34.4409 16.5 34.2609 16.04C34.0309 15.44 33.7509 15.01 33.2909 14.55C32.8409 14.1 32.4109 13.82 31.8009 13.58C31.3509 13.4 30.6609 13.19 29.3909 13.13ZM18.8081 10.7888H18.8081C20.1768 10.7298 20.634 10.71 24.1409 10.71C27.6477 10.71 28.105 10.7298 29.4737 10.7888H29.4737L29.5009 10.79C30.8909 10.85 31.8309 11.07 32.6609 11.39C33.5109 11.72 34.2409 12.17 34.9609 12.89C35.6809 13.61 36.1309 14.34 36.4609 15.19C36.7809 16.02 37.0009 16.97 37.0609 18.35C37.1309 19.74 37.1409 20.18 37.1409 23.71C37.1409 27.2169 37.1211 27.6741 37.062 29.0429V29.0429L37.0609 29.07C37.0009 30.46 36.7809 31.4 36.4609 32.23C36.1309 33.08 35.6809 33.81 34.9609 34.53C34.2409 35.25 33.5209 35.7 32.6609 36.03C31.8309 36.35 30.8809 36.57 29.5009 36.63C28.1109 36.7 27.6709 36.71 24.1409 36.71C20.6339 36.71 20.1768 36.6903 18.808 36.6312H18.808L18.7809 36.63C17.3909 36.57 16.4509 36.35 15.6209 36.03C14.7709 35.7 14.0409 35.25 13.3209 34.53C12.6009 33.81 12.1509 33.08 11.8209 32.23C11.5009 31.4 11.2809 30.45 11.2209 29.07C11.1509 27.68 11.1409 27.24 11.1409 23.71C11.1409 20.2032 11.1606 19.7459 11.2197 18.3772V18.3772L11.2209 18.35C11.2809 16.96 11.5009 16.02 11.8209 15.19C12.1509 14.34 12.6009 13.61 13.3209 12.89C14.0409 12.17 14.7609 11.72 15.6209 11.39C16.4509 11.07 17.4009 10.85 18.7809 10.79L18.8081 10.7888ZM24.1412 17.04C20.4512 17.04 17.4612 20.03 17.4612 23.72C17.4612 27.41 20.4512 30.4 24.1412 30.4C27.8312 30.4 30.8212 27.41 30.8212 23.72C30.8212 20.03 27.8312 17.04 24.1412 17.04ZM24.1412 28.05C21.7512 28.05 19.8112 26.11 19.8112 23.72C19.8112 21.33 21.7512 19.39 24.1412 19.39C26.5312 19.39 28.4712 21.33 28.4712 23.72C28.4712 26.11 26.5312 28.05 24.1412 28.05ZM31.0817 18.33C31.9417 18.33 32.6417 17.63 32.6417 16.77C32.6417 15.91 31.9417 15.21 31.0817 15.21C30.2217 15.21 29.5217 15.91 29.5217 16.77C29.5217 17.63 30.2217 18.33 31.0817 18.33Z" fill="url(#paint0_linear_1091_3586)"/>
</g>
<defs>
<linearGradient id="paint0_linear_1091_3586" x1="-19.0691" y1="-59.1746" x2="35.6728" y2="65.3014" gradientUnits="userSpaceOnUse">
<stop offset="0.479167" stop-color="#040357"/>
<stop offset="0.671875" stop-color="#040378"/>
<stop offset="0.90625" stop-color="#222CE3"/>
</linearGradient>
<clipPath id="clip0_1091_3586">
<rect width="48" height="48" fill="white" transform="translate(0.429932)"/>
</clipPath>
</defs>
</svg>
