<svg width="917" height="108" viewBox="0 0 917 108" fill="none" xmlns="http://www.w3.org/2000/svg">
<path d="M0.448001 106V2.64999H27.796V106H0.448001ZM50.7566 106V2.64999H78.7406L101.637 48.76L111.495 71.974H112.131C110.859 60.844 108.633 45.262 108.633 32.542V2.64999H134.709V106H106.725L83.8286 59.731L73.9706 36.676H73.3346C74.6066 48.442 76.8326 63.388 76.8326 76.108V106H50.7566ZM177.301 106V25.546H149.953V2.64999H231.997V25.546H204.649V106H177.301ZM247.333 106V2.64999H314.113V25.546H274.681V41.764H308.389V64.66H274.681V83.104H315.703V106H247.333ZM335.683 106V2.64999H374.797C397.057 2.64999 416.137 10.282 416.137 36.04C416.137 50.827 409.459 60.526 399.442 65.932L421.861 106H391.333L373.525 71.338H363.031V106H335.683ZM363.031 49.714H372.889C383.701 49.714 389.425 44.944 389.425 36.04C389.425 27.136 383.701 24.274 372.889 24.274H363.031V49.714ZM460.994 55.756L459.245 62.911H478.325L476.576 55.756C474.032 45.898 471.488 33.337 468.944 23.002H468.308C466.082 33.496 463.538 45.898 460.994 55.756ZM421.244 106L452.726 2.64999H485.798L517.28 106H488.342L483.254 84.058H454.316L449.228 106H421.244ZM570.421 107.908C544.027 107.908 521.131 90.418 521.131 55.12C521.131 20.458 544.981 0.74199 571.057 0.74199C584.731 0.74199 595.861 7.10199 603.175 14.416L588.865 31.906C583.777 27.454 578.689 24.274 571.693 24.274C559.609 24.274 549.115 35.404 549.115 54.166C549.115 73.564 558.019 84.376 571.375 84.376C579.325 84.376 585.685 80.242 590.137 75.472L604.447 92.644C595.702 102.82 583.777 107.908 570.421 107.908ZM636.91 106V25.546H609.562V2.64999H691.606V25.546H664.258V106H636.91ZM706.942 106V2.64999H734.29V106H706.942ZM774.741 106L744.213 2.64999H773.151L783.963 47.806C786.825 58.777 788.733 69.43 791.595 80.56H792.231C795.093 69.43 797.16 58.777 799.863 47.806L810.357 2.64999H838.341L807.813 106H774.741ZM848.241 106V2.64999H915.021V25.546H875.589V41.764H909.297V64.66H875.589V83.104H916.611V106H848.241Z" fill="#1A196F"/>
</svg>
