<svg width="57" height="61" viewBox="0 0 57 61" fill="none" xmlns="http://www.w3.org/2000/svg">
<g id="Linkedin icon">
<path id="Vector" style="mix-blend-mode:multiply" opacity="0.8" d="M28.4942 60.2594C44.231 60.2594 56.9883 47.398 56.9883 31.5326C56.9883 15.6671 44.231 2.80566 28.4942 2.80566C12.7573 2.80566 0 15.6671 0 31.5326C0 47.398 12.7573 60.2594 28.4942 60.2594Z" fill="url(#paint0_radial_1091_3522)"/>
<path id="Vector_2" d="M40.9255 28.8471V10.2214C40.9255 4.57629 36.3863 0 30.7869 0L12.3121 0C6.7127 0 2.17348 4.57629 2.17348 10.2214V28.8471C2.17348 34.4923 6.7127 39.0686 12.3121 39.0686H30.7869C36.3863 39.0686 40.9255 34.4923 40.9255 28.8471Z" fill="url(#paint1_linear_1091_3522)"/>
<path id="Vector_3" d="M13.4263 15.8999H17.177V28.0587H13.4263V15.8999ZM15.3083 9.86053C16.5143 9.86053 17.4818 10.8359 17.4818 12.0518C17.4818 13.2677 16.5143 14.2431 15.3083 14.2431C14.1022 14.2431 13.1348 13.2543 13.1348 12.0518C13.1348 10.8493 14.1022 9.86053 15.3083 9.86053Z" fill="white"/>
<path id="Vector_4" d="M19.5211 15.9001H23.1127V17.5569H23.1657C23.6693 16.5949 24.8886 15.5928 26.7175 15.5928C30.5079 15.5928 31.2103 18.1047 31.2103 21.3782V28.0455H27.4597V22.1398C27.4597 20.7235 27.4332 18.9197 25.5115 18.9197C23.5898 18.9197 23.2584 20.4563 23.2584 22.0463V28.0589H19.5078V15.9001H19.5211Z" fill="white"/>
</g>
<defs>
<radialGradient id="paint0_radial_1091_3522" cx="0" cy="0" r="1" gradientUnits="userSpaceOnUse" gradientTransform="translate(28.4942 31.5326) scale(28.4942 28.7269)">
<stop stop-color="#000056"/>
<stop offset="0.39" stop-color="#7373A2" stop-opacity="0.55"/>
<stop offset="0.78" stop-color="#D8D8E5" stop-opacity="0.15"/>
<stop offset="1" stop-color="white" stop-opacity="0"/>
</radialGradient>
<linearGradient id="paint1_linear_1091_3522" x1="37.9436" y1="3.0063" x2="4.88861" y2="35.8067" gradientUnits="userSpaceOnUse">
<stop stop-color="#007AB5"/>
<stop offset="1" stop-color="#0046E5"/>
</linearGradient>
</defs>
</svg>
