<svg width="49" height="48" viewBox="0 0 49 48" fill="none" xmlns="http://www.w3.org/2000/svg">
<g id="Linkedin icon" clip-path="url(#clip0_1091_3594)">
<path id="Subtract" fill-rule="evenodd" clip-rule="evenodd" d="M24.1399 0H24.1499C37.2446 0 47.8599 10.6153 47.8599 23.71V23.72C47.8599 36.8147 37.2446 47.43 24.1499 47.43H24.1399C11.0453 47.43 0.429932 36.8147 0.429932 23.72V23.71C0.429932 10.6153 11.0453 0 24.1399 0ZM13.3906 18.43H18.3006V34.28H13.3906V18.43ZM15.8199 16.35C17.4199 16.35 18.7199 15.04 18.7199 13.42C18.7199 11.8 17.4199 10.49 15.8199 10.49C14.2199 10.49 12.9199 11.8 12.9199 13.42C12.9199 15.04 14.2199 16.35 15.8199 16.35ZM29.1299 22.4C27.1699 22.4 26.1399 23.73 26.1399 25.96L26.1299 25.95V34.27H21.4199V18.42H26.1299V20.56C26.1299 20.56 27.5499 17.94 30.9099 17.94C34.2699 17.94 36.6799 19.99 36.6799 24.24V34.28H31.7999V25.96C31.7999 23.67 30.9299 22.4 29.1299 22.4Z" fill="url(#paint0_linear_1091_3594)"/>
</g>
<defs>
<linearGradient id="paint0_linear_1091_3594" x1="-19.069" y1="-59.1748" x2="35.6732" y2="65.3014" gradientUnits="userSpaceOnUse">
<stop offset="0.479167" stop-color="#040357"/>
<stop offset="0.671875" stop-color="#040378"/>
<stop offset="0.90625" stop-color="#222CE3"/>
</linearGradient>
<clipPath id="clip0_1091_3594">
<rect width="48" height="48" fill="white" transform="translate(0.429932)"/>
</clipPath>
</defs>
</svg>
