<svg width="57" height="61" viewBox="0 0 57 61" fill="none" xmlns="http://www.w3.org/2000/svg">
<g id="Mail icon">
<path id="Vector" style="mix-blend-mode:multiply" opacity="0.8" d="M28.4942 60.3268C44.231 60.3268 56.9883 47.4654 56.9883 31.5999C56.9883 15.7345 44.231 2.87305 28.4942 2.87305C12.7573 2.87305 0 15.7345 0 31.5999C0 47.4654 12.7573 60.3268 28.4942 60.3268Z" fill="url(#paint0_radial_1091_3527)"/>
<path id="Vector_2" d="M41.084 28.8471V10.2214C41.084 4.57629 36.5448 0 30.9454 0L12.4705 0C6.87114 0 2.33193 4.57629 2.33193 10.2214V28.8471C2.33193 34.4923 6.87114 39.0686 12.4705 39.0686H30.9454C36.5448 39.0686 41.084 34.4923 41.084 28.8471Z" fill="#8D39CC"/>
<path id="Vector_3" d="M14.9882 29.3824C11.8436 29.3824 9.27734 26.7979 9.27734 23.6038V13.1074C9.27734 11.0349 10.94 9.35254 12.9882 9.35254H30.7474C32.7956 9.35254 34.4582 11.0349 34.4582 13.1074V23.616C34.4582 26.7979 31.904 29.3946 28.7473 29.3946H14.9882V29.3824ZM11.0846 23.6038C11.0846 25.786 12.8316 27.5537 14.9882 27.5537H28.7473C30.8919 27.5537 32.651 25.786 32.651 23.6038V12.193L24.9642 21.1169C24.1811 22.019 23.0606 22.531 21.8798 22.531C20.6991 22.531 19.5666 22.019 18.7955 21.1169L11.1087 12.193V23.616L11.0846 23.6038ZM20.1449 19.8978C20.5907 20.4098 21.2051 20.6902 21.8678 20.6902C22.5304 20.6902 23.1569 20.4098 23.5907 19.8978L31.1088 11.1812H12.6268L20.1449 19.8978Z" fill="white"/>
</g>
<defs>
<radialGradient id="paint0_radial_1091_3527" cx="0" cy="0" r="1" gradientUnits="userSpaceOnUse" gradientTransform="translate(28.4942 31.5999) scale(28.4942 28.7269)">
<stop stop-color="#000056"/>
<stop offset="0.39" stop-color="#7373A2" stop-opacity="0.55"/>
<stop offset="0.78" stop-color="#D8D8E5" stop-opacity="0.15"/>
<stop offset="1" stop-color="white" stop-opacity="0"/>
</radialGradient>
</defs>
</svg>
