<svg width="784" height="134" viewBox="0 0 784 134" fill="none" xmlns="http://www.w3.org/2000/svg">
<path d="M194.649 13L137 131.229H252.298L194.649 13Z" fill="#1A196F"/>
<path d="M13.248 131V11.4H47.104L65.136 60.344C66.24 63.656 67.2827 67.0907 68.264 70.648C69.2453 74.2053 70.288 77.7627 71.392 81.32H72.128C73.232 77.7627 74.2747 74.2053 75.256 70.648C76.2373 67.0907 77.28 63.656 78.384 60.344L95.68 11.4H129.536V131H100.832V95.672C100.832 91.624 101.077 87.0853 101.568 82.056C102.059 76.904 102.611 71.752 103.224 66.6C103.837 61.448 104.389 56.9093 104.88 52.984H104.144L94.208 81.688L79.488 121.248H62.56L47.84 81.688L38.272 52.984H37.536C38.0267 56.9093 38.5787 61.448 39.192 66.6C39.8053 71.752 40.3573 76.904 40.848 82.056C41.3387 87.0853 41.584 91.624 41.584 95.672V131H13.248ZM301.457 133.208C293.974 133.208 286.185 131.797 278.089 128.976C269.993 126.155 262.694 121.861 256.193 116.096L274.225 94.384C278.518 97.8187 283.118 100.64 288.025 102.848C293.054 104.933 297.777 105.976 302.193 105.976C306.977 105.976 310.411 105.24 312.497 103.768C314.705 102.296 315.809 100.211 315.809 97.512C315.809 94.6907 314.337 92.544 311.393 91.072C308.571 89.6 304.646 87.8827 299.617 85.92L284.713 79.664C278.334 77.088 272.691 73.04 267.785 67.52C263.001 62 260.609 54.9467 260.609 46.36C260.609 39.4907 262.51 33.296 266.313 27.776C270.115 22.1333 275.329 17.656 281.953 14.344C288.699 10.9093 296.427 9.19199 305.137 9.19199C312.006 9.19199 318.937 10.5413 325.929 13.24C333.043 15.816 339.361 19.8027 344.881 25.2L329.057 45.072C325.009 42.2507 321.083 40.104 317.281 38.632C313.601 37.16 309.553 36.424 305.137 36.424C301.334 36.424 298.267 37.0987 295.937 38.448C293.729 39.7973 292.625 41.8213 292.625 44.52C292.625 47.3413 294.219 49.5493 297.409 51.144C300.598 52.616 304.891 54.3947 310.289 56.48L324.825 62.184C332.307 65.128 338.073 69.2373 342.121 74.512C346.169 79.7867 348.193 86.5947 348.193 94.936C348.193 101.683 346.353 108 342.673 113.888C339.115 119.653 333.841 124.315 326.849 127.872C319.857 131.429 311.393 133.208 301.457 133.208ZM386.634 131V37.896H354.986V11.4H449.93V37.896H418.282V131H386.634ZM467.678 131V11.4H544.958V37.896H499.326V56.664H538.334V83.16H499.326V104.504H546.798V131H467.678ZM569.92 131V11.4H615.184C623.771 11.4 631.683 12.5653 638.92 14.896C646.157 17.104 651.984 21.0293 656.4 26.672C660.816 32.3147 663.024 40.104 663.024 50.04C663.024 58.6267 661.245 65.7413 657.688 71.384C654.131 77.0267 649.469 81.4427 643.704 84.632L669.648 131H634.32L613.712 90.888H601.568V131H569.92ZM601.568 65.864H612.976C625.733 65.864 632.112 60.5893 632.112 50.04C632.112 44.888 630.456 41.3307 627.144 39.368C623.955 37.4053 619.232 36.424 612.976 36.424H601.568V65.864ZM703.201 131V89.784L667.137 11.4H700.993L709.825 36.424C711.297 40.9627 712.769 45.3787 714.241 49.672C715.713 53.9653 717.246 58.4427 718.841 63.104H719.577C721.171 58.4427 722.705 53.9653 724.177 49.672C725.771 45.3787 727.366 40.9627 728.961 36.424L737.793 11.4H770.913L734.849 89.784V131H703.201Z" fill="#1A196F"/>
</svg>
