<svg width="821" height="108" viewBox="0 0 821 108" fill="none" xmlns="http://www.w3.org/2000/svg">
<path d="M0.448001 106V2.64999H29.704L45.286 44.944C47.194 50.668 48.784 57.028 50.692 63.07H51.328C53.236 57.028 54.826 50.668 56.734 44.944L71.68 2.64999H100.936V106H76.132V75.472C76.132 64.978 78.358 48.919 79.63 38.584H78.994L70.408 63.388L57.688 97.573H43.06L30.34 63.388L22.072 38.584H21.436C22.708 48.919 24.934 64.978 24.934 75.472V106H0.448001ZM123.89 106V2.64999H190.67V25.546H151.238V41.764H184.946V64.66H151.238V83.104H192.26V106H123.89ZM231.957 106V25.546H204.609V2.64999H286.653V25.546H259.305V106H231.957ZM322.335 55.756L320.586 62.911H339.666L337.917 55.756C335.373 45.898 332.829 33.337 330.285 23.002H329.649C327.423 33.496 324.879 45.898 322.335 55.756ZM282.585 106L314.067 2.64999H347.139L378.621 106H349.683L344.595 84.058H315.657L310.569 106H282.585ZM402.861 106L372.333 2.64999H401.271L412.083 47.806C414.945 58.777 416.853 69.43 419.715 80.56H420.351C423.213 69.43 425.28 58.777 427.983 47.806L438.477 2.64999H466.461L435.933 106H402.861ZM476.361 106V2.64999H543.141V25.546H503.709V41.764H537.417V64.66H503.709V83.104H544.731V106H476.361ZM564.712 106V2.64999H603.826C626.086 2.64999 645.166 10.282 645.166 36.04C645.166 50.827 638.488 60.526 628.471 65.932L650.89 106H620.362L602.554 71.338H592.06V106H564.712ZM592.06 49.714H601.918C612.73 49.714 618.454 44.944 618.454 36.04C618.454 27.136 612.73 24.274 601.918 24.274H592.06V49.714ZM695.443 107.908C682.405 107.908 667.459 103.138 656.329 93.121L671.911 74.359C679.225 80.242 688.447 84.376 696.079 84.376C704.347 84.376 707.845 81.673 707.845 77.062C707.845 72.133 702.598 70.543 693.853 67.045L680.974 61.639C669.844 57.187 660.145 47.806 660.145 32.86C660.145 15.211 676.045 0.74199 698.623 0.74199C710.389 0.74199 723.427 5.194 732.967 14.575L719.293 31.747C712.297 26.818 706.255 24.274 698.623 24.274C691.945 24.274 687.811 26.659 687.811 31.27C687.811 36.199 693.694 37.948 703.075 41.605L715.636 46.534C728.515 51.622 735.829 60.526 735.829 74.836C735.829 92.326 721.201 107.908 695.443 107.908ZM752.437 106V2.64999H819.217V25.546H779.785V41.764H813.493V64.66H779.785V83.104H820.807V106H752.437Z" fill="#1A196F"/>
</svg>
