<svg width="284" height="108" viewBox="0 0 284 108" fill="none" xmlns="http://www.w3.org/2000/svg">
<path d="M49.014 107.908C20.394 107.908 0.996001 87.874 0.996001 53.848C0.996001 19.822 20.394 0.74199 49.014 0.74199C77.634 0.74199 97.032 19.981 97.032 53.848C97.032 87.874 77.634 107.908 49.014 107.908ZM49.014 84.376C61.416 84.376 69.048 72.61 69.048 53.848C69.048 35.086 61.416 24.274 49.014 24.274C36.612 24.274 28.98 35.086 28.98 53.848C28.98 72.61 36.612 84.376 49.014 84.376ZM115.537 106V2.64999H153.379C175.957 2.64999 195.355 10.918 195.355 36.994C195.355 62.275 175.639 73.246 154.015 73.246H142.885V106H115.537ZM142.885 51.622H152.743C163.555 51.622 168.643 46.216 168.643 36.994C168.643 27.772 162.601 24.274 152.107 24.274H142.885V51.622ZM243.473 107.908C230.435 107.908 215.489 103.138 204.359 93.121L219.941 74.359C227.255 80.242 236.477 84.376 244.109 84.376C252.377 84.376 255.875 81.673 255.875 77.062C255.875 72.133 250.628 70.543 241.883 67.045L229.004 61.639C217.874 57.187 208.175 47.806 208.175 32.86C208.175 15.211 224.075 0.74199 246.653 0.74199C258.419 0.74199 271.457 5.194 280.997 14.575L267.323 31.747C260.327 26.818 254.285 24.274 246.653 24.274C239.975 24.274 235.841 26.659 235.841 31.27C235.841 36.199 241.724 37.948 251.105 41.605L263.666 46.534C276.545 51.622 283.859 60.526 283.859 74.836C283.859 92.326 269.231 107.908 243.473 107.908Z" fill="#1A196F"/>
</svg>
