<svg width="793" height="134" viewBox="0 0 793 134" fill="none" xmlns="http://www.w3.org/2000/svg">
<path d="M13.248 131V11.4H57.04C83.168 11.4 105.616 20.968 105.616 51.144C105.616 80.4 82.8 93.096 57.776 93.096H44.896V131H13.248ZM44.896 68.072H56.304C68.816 68.072 74.704 61.816 74.704 51.144C74.704 40.472 67.712 36.424 55.568 36.424H44.896V68.072ZM146.941 72.856L144.917 81.136H166.997L164.973 72.856C162.029 61.448 159.085 46.912 156.141 34.952H155.405C152.829 47.096 149.885 61.448 146.941 72.856ZM100.941 131L137.373 11.4H175.645L212.077 131H178.589L172.701 105.608H139.213L133.325 131H100.941ZM261.386 133.208C246.298 133.208 229.002 127.688 216.122 116.096L234.154 94.384C242.618 101.192 253.29 105.976 262.122 105.976C271.69 105.976 275.738 102.848 275.738 97.512C275.738 91.808 269.666 89.968 259.546 85.92L244.642 79.664C231.762 74.512 220.538 63.656 220.538 46.36C220.538 25.936 238.938 9.19199 265.066 9.19199C278.682 9.19199 293.77 14.344 304.81 25.2L288.986 45.072C280.89 39.368 273.898 36.424 265.066 36.424C257.338 36.424 252.554 39.184 252.554 44.52C252.554 50.224 259.362 52.248 270.218 56.48L284.754 62.184C299.658 68.072 308.122 78.376 308.122 94.936C308.122 115.176 291.194 133.208 261.386 133.208ZM361.652 133.208C346.564 133.208 329.268 127.688 316.388 116.096L334.42 94.384C342.884 101.192 353.556 105.976 362.388 105.976C371.956 105.976 376.004 102.848 376.004 97.512C376.004 91.808 369.932 89.968 359.812 85.92L344.908 79.664C332.028 74.512 320.804 63.656 320.804 46.36C320.804 25.936 339.204 9.19199 365.332 9.19199C378.948 9.19199 394.036 14.344 405.076 25.2L389.252 45.072C381.156 39.368 374.164 36.424 365.332 36.424C357.604 36.424 352.82 39.184 352.82 44.52C352.82 50.224 359.628 52.248 370.484 56.48L385.02 62.184C399.924 68.072 408.388 78.376 408.388 94.936C408.388 115.176 391.46 133.208 361.652 133.208ZM536.242 133.208C503.122 133.208 480.674 110.024 480.674 70.648C480.674 31.272 503.122 9.19199 536.242 9.19199C569.362 9.19199 591.81 31.456 591.81 70.648C591.81 110.024 569.362 133.208 536.242 133.208ZM536.242 105.976C550.594 105.976 559.426 92.36 559.426 70.648C559.426 48.936 550.594 36.424 536.242 36.424C521.89 36.424 513.058 48.936 513.058 70.648C513.058 92.36 521.89 105.976 536.242 105.976ZM613.225 131V11.4H645.609L672.105 64.76L683.513 91.624H684.249C682.777 78.744 680.201 60.712 680.201 45.992V11.4H710.377V131H677.993L651.497 77.456L640.089 50.776H639.353C640.825 64.392 643.401 81.688 643.401 96.408V131H613.225Z" fill="#1A196F"/>
<rect x="431" y="9.88574" width="30" height="30" fill="#1A196F"/>
</svg>
