<svg width="743" height="134" viewBox="0 0 743 134" fill="none" xmlns="http://www.w3.org/2000/svg">
<path d="M13.248 131V11.4H57.04C65.7493 11.4 73.784 12.6267 81.144 15.08C88.504 17.5333 94.392 21.6427 98.808 27.408C103.347 33.1733 105.616 41.0853 105.616 51.144C105.616 60.8347 103.347 68.808 98.808 75.064C94.392 81.1973 88.504 85.736 81.144 88.68C73.9067 91.624 66.1173 93.096 57.776 93.096H44.896V131H13.248ZM44.896 68.072H56.304C62.56 68.072 67.16 66.6 70.104 63.656C73.1707 60.5893 74.704 56.4187 74.704 51.144C74.704 45.7467 73.048 41.944 69.736 39.736C66.424 37.528 61.7013 36.424 55.568 36.424H44.896V68.072ZM125.193 131V11.4H156.841V104.504H202.105V131H125.193ZM351.193 131V89.784L315.129 11.4H348.985L357.817 36.424C359.289 40.9627 360.761 45.3787 362.233 49.672C363.705 53.9653 365.238 58.4427 366.833 63.104H367.569C369.163 58.4427 370.697 53.9653 372.169 49.672C373.763 45.3787 375.358 40.9627 376.953 36.424L385.785 11.4H418.905L382.841 89.784V131H351.193ZM430.303 131V11.4H508.319V37.896H461.951V60.712H501.695V87.208H461.951V131H430.303ZM577.895 133.208C561.212 133.208 548.762 128.301 540.543 118.488C532.324 108.675 528.215 93.5867 528.215 73.224V11.4H559.863V76.904C559.863 87.576 561.274 95.12 564.095 99.536C567.039 103.829 571.639 105.976 577.895 105.976C584.151 105.976 588.751 103.829 591.695 99.536C594.762 95.12 596.295 87.576 596.295 76.904V11.4H626.839V73.224C626.839 93.5867 622.852 108.675 614.879 118.488C607.028 128.301 594.7 133.208 577.895 133.208ZM652.576 131V11.4H684.224V104.504H729.488V131H652.576Z" fill="#1A196F"/>
<path d="M274.649 14L217 132.229H332.298L274.649 14Z" fill="#1A196F"/>
</svg>
