<svg width="192" height="192" viewBox="0 0 192 192" fill="none" xmlns="http://www.w3.org/2000/svg">
<g id="play_circle">
<mask id="mask0_1091_2711" style="mask-type:alpha" maskUnits="userSpaceOnUse" x="0" y="0" width="192" height="192">
<rect id="Bounding box" width="192" height="192" fill="#D9D9D9"/>
</mask>
<g mask="url(#mask0_1091_2711)">
<path id="play_circle_2" d="M84.158 117.453L117.255 96.1389L84.158 74.8249V117.453ZM96.0088 146.278C89.0934 146.278 82.5932 144.962 76.5082 142.33C70.4232 139.698 65.1301 136.126 60.629 131.615C56.1277 127.103 52.5643 121.798 49.9386 115.698C47.3129 109.599 46 103.082 46 96.1477C46 89.2131 47.3123 82.6948 49.9369 76.593C52.5614 70.4911 56.1233 65.1833 60.6224 60.6696C65.1216 56.1559 70.4124 52.5825 76.4947 49.9495C82.5769 47.3165 89.0757 46 95.9912 46C102.907 46 109.407 47.3159 115.492 49.9478C121.577 52.5797 126.87 56.1514 131.371 60.663C135.872 65.1747 139.436 70.4802 142.061 76.5794C144.687 82.6785 146 89.1954 146 96.13C146 103.065 144.688 109.583 142.063 115.685C139.439 121.787 135.877 127.094 131.378 131.608C126.878 136.122 121.588 139.695 115.505 142.328C109.423 144.961 102.924 146.278 96.0088 146.278ZM96 138.361C107.754 138.361 117.711 134.271 125.868 126.09C134.026 117.91 138.105 107.926 138.105 96.1389C138.105 84.3518 134.026 74.368 125.868 66.1874C117.711 58.0068 107.754 53.9166 96 53.9166C84.2456 53.9166 74.2894 58.0068 66.1315 66.1874C57.9736 74.368 53.8946 84.3518 53.8946 96.1389C53.8946 107.926 57.9736 117.91 66.1315 126.09C74.2894 134.271 84.2456 138.361 96 138.361Z" fill="white"/>
</g>
</g>
</svg>
