<svg width="683" height="108" viewBox="0 0 683 108" fill="none" xmlns="http://www.w3.org/2000/svg">
<path d="M0.448001 106V2.64999H38.29C45.816 2.64999 52.759 3.70999 59.119 5.82999C65.479 7.95 70.567 11.501 74.383 16.483C78.305 21.465 80.266 28.302 80.266 36.994C80.266 45.368 78.305 52.258 74.383 57.664C70.567 62.964 65.479 66.886 59.119 69.43C52.865 71.974 46.134 73.246 38.926 73.246H27.796V106H0.448001ZM27.796 51.622H37.654C43.06 51.622 47.035 50.35 49.579 47.806C52.229 45.156 53.554 41.552 53.554 36.994C53.554 32.33 52.123 29.044 49.261 27.136C46.399 25.228 42.318 24.274 37.018 24.274H27.796V51.622ZM97.1834 106V2.64999H136.297C143.717 2.64999 150.554 3.65699 156.808 5.67099C163.062 7.57899 168.097 10.971 171.913 15.847C175.729 20.723 177.637 27.454 177.637 36.04C177.637 43.46 176.1 49.608 173.026 54.484C169.952 59.36 165.924 63.176 160.942 65.932L183.361 106H152.833L135.025 71.338H124.531V106H97.1834ZM124.531 49.714H134.389C145.413 49.714 150.925 45.156 150.925 36.04C150.925 31.588 149.494 28.514 146.632 26.818C143.876 25.122 139.795 24.274 134.389 24.274H124.531V49.714ZM240.901 107.908C231.361 107.908 222.987 105.788 215.779 101.548C208.571 97.202 202.953 91.001 198.925 82.945C194.897 74.889 192.883 65.19 192.883 53.848C192.883 42.506 194.897 32.913 198.925 25.069C202.953 17.119 208.571 11.077 215.779 6.943C222.987 2.80899 231.361 0.74199 240.901 0.74199C250.441 0.74199 258.815 2.80899 266.023 6.943C273.231 11.077 278.849 17.119 282.877 25.069C286.905 32.913 288.919 42.506 288.919 53.848C288.919 65.19 286.905 74.889 282.877 82.945C278.849 91.001 273.231 97.202 266.023 101.548C258.815 105.788 250.441 107.908 240.901 107.908ZM240.901 84.376C247.155 84.376 252.031 81.62 255.529 76.108C259.133 70.596 260.935 63.176 260.935 53.848C260.935 44.414 259.133 37.153 255.529 32.065C252.031 26.871 247.155 24.274 240.901 24.274C234.753 24.274 229.877 26.871 226.273 32.065C222.669 37.153 220.867 44.414 220.867 53.848C220.867 63.176 222.669 70.596 226.273 76.108C229.877 81.62 234.753 84.376 240.901 84.376ZM307.424 106V2.64999H337.952C348.446 2.64999 357.668 4.39899 365.618 7.89699C373.674 11.289 379.928 16.748 384.38 24.274C388.832 31.8 391.058 41.658 391.058 53.848C391.058 66.038 388.832 76.002 384.38 83.74C379.928 91.372 373.833 96.99 366.095 100.594C358.357 104.198 349.506 106 339.542 106H307.424ZM334.772 84.058H336.362C341.344 84.058 345.849 83.21 349.877 81.514C353.905 79.818 357.085 76.797 359.417 72.451C361.855 68.105 363.074 61.904 363.074 53.848C363.074 45.792 361.855 39.697 359.417 35.563C357.085 31.323 353.905 28.461 349.877 26.977C345.849 25.387 341.344 24.592 336.362 24.592H334.772V84.058ZM451.732 107.908C437.316 107.908 426.557 103.668 419.455 95.188C412.353 86.708 408.802 73.67 408.802 56.074V2.64999H436.15V59.254C436.15 68.476 437.369 74.995 439.807 78.811C442.351 82.521 446.326 84.376 451.732 84.376C457.138 84.376 461.113 82.521 463.657 78.811C466.307 74.995 467.632 68.476 467.632 59.254V2.64999H494.026V56.074C494.026 73.67 490.581 86.708 483.691 95.188C476.907 103.668 466.254 107.908 451.732 107.908ZM561.104 107.908C552.306 107.908 544.144 106 536.618 102.184C529.198 98.262 523.209 92.379 518.651 84.535C514.093 76.691 511.814 66.886 511.814 55.12C511.814 46.428 513.139 38.743 515.789 32.065C518.545 25.281 522.255 19.557 526.919 14.893C531.689 10.229 537.042 6.73099 542.978 4.39899C549.02 1.96099 555.274 0.74199 561.74 0.74199C568.63 0.74199 574.778 2.11999 580.184 4.87599C585.696 7.526 590.254 10.706 593.858 14.416L579.548 31.906C577.004 29.68 574.354 27.878 571.598 26.5C568.948 25.016 565.874 24.274 562.376 24.274C558.348 24.274 554.585 25.493 551.087 27.931C547.695 30.263 544.939 33.655 542.819 38.107C540.805 42.559 539.798 47.912 539.798 54.166C539.798 63.812 541.812 71.285 545.84 76.585C549.974 81.779 555.38 84.376 562.058 84.376C566.086 84.376 569.637 83.475 572.711 81.673C575.891 79.871 578.594 77.804 580.82 75.472L595.13 92.644C590.784 97.732 585.696 101.548 579.866 104.092C574.036 106.636 567.782 107.908 561.104 107.908ZM627.594 106V25.546H600.246V2.64999H682.29V25.546H654.942V106H627.594Z" fill="#1A196F"/>
</svg>
