<svg width="317" height="36" viewBox="0 0 317 36" fill="none" xmlns="http://www.w3.org/2000/svg">
<path d="M3.456 35V3.8H14.88C17.152 3.8 19.248 4.12 21.168 4.76C23.088 5.4 24.624 6.472 25.776 7.976C26.96 9.48 27.552 11.544 27.552 14.168C27.552 16.696 26.96 18.776 25.776 20.408C24.624 22.008 23.088 23.192 21.168 23.96C19.28 24.728 17.248 25.112 15.072 25.112H11.712V35H3.456ZM11.712 18.584H14.688C16.32 18.584 17.52 18.2 18.288 17.432C19.088 16.632 19.488 15.544 19.488 14.168C19.488 12.76 19.056 11.768 18.192 11.192C17.328 10.616 16.096 10.328 14.496 10.328H11.712V18.584ZM32.6591 35V3.8H44.4671C46.7071 3.8 48.7711 4.104 50.6591 4.712C52.5471 5.288 54.0671 6.312 55.2191 7.784C56.3711 9.256 56.9471 11.288 56.9471 13.88C56.9471 16.12 56.4831 17.976 55.5551 19.448C54.6271 20.92 53.4111 22.072 51.9071 22.904L58.6751 35H49.4591L44.0831 24.536H40.9151V35H32.6591ZM40.9151 18.008H43.8911C47.2191 18.008 48.8831 16.632 48.8831 13.88C48.8831 12.536 48.4511 11.608 47.5871 11.096C46.7551 10.584 45.5231 10.328 43.8911 10.328H40.9151V18.008ZM102.08 35V10.712H93.8239V3.8H118.592V10.712H110.336V35H102.08ZM162.408 35V10.712H154.152V3.8H178.92V10.712H170.664V35H162.408ZM191.422 35V24.248L182.014 3.8H190.846L193.15 10.328C193.534 11.512 193.918 12.664 194.302 13.784C194.686 14.904 195.086 16.072 195.502 17.288H195.694C196.11 16.072 196.51 14.904 196.894 13.784C197.31 12.664 197.726 11.512 198.142 10.328L200.446 3.8H209.086L199.678 24.248V35H191.422ZM212.059 35V3.8H223.483C225.755 3.8 227.851 4.12 229.771 4.76C231.691 5.4 233.227 6.472 234.379 7.976C235.563 9.48 236.155 11.544 236.155 14.168C236.155 16.696 235.563 18.776 234.379 20.408C233.227 22.008 231.691 23.192 229.771 23.96C227.883 24.728 225.851 25.112 223.675 25.112H220.315V35H212.059ZM220.315 18.584H223.291C224.923 18.584 226.123 18.2 226.891 17.432C227.691 16.632 228.091 15.544 228.091 14.168C228.091 12.76 227.659 11.768 226.795 11.192C225.931 10.616 224.699 10.328 223.099 10.328H220.315V18.584ZM256.45 35V3.8H264.898L271.81 17.72L274.786 24.728H274.978C274.786 23.032 274.562 21.112 274.306 18.968C274.05 16.792 273.922 14.744 273.922 12.824V3.8H281.794V35H273.346L266.434 21.032L263.458 14.072H263.266C263.458 15.832 263.682 17.784 263.938 19.928C264.194 22.04 264.322 24.056 264.322 25.976V35H256.45ZM303.1 35.576C300.188 35.576 297.532 35 295.132 33.848C292.764 32.664 290.876 30.888 289.468 28.52C288.06 26.152 287.356 23.192 287.356 19.64C287.356 17.016 287.772 14.696 288.604 12.68C289.436 10.632 290.572 8.904 292.012 7.496C293.452 6.088 295.1 5.032 296.956 4.328C298.844 3.592 300.828 3.224 302.908 3.224C305.212 3.224 307.212 3.64 308.908 4.472C310.604 5.272 311.996 6.232 313.084 7.352L308.764 12.632C307.996 11.96 307.18 11.416 306.316 11C305.484 10.552 304.444 10.328 303.196 10.328C301.084 10.328 299.324 11.128 297.916 12.728C296.508 14.296 295.804 16.504 295.804 19.352C295.804 22.264 296.46 24.52 297.772 26.12C299.116 27.688 301.18 28.472 303.964 28.472C304.412 28.472 304.844 28.424 305.26 28.328C305.708 28.232 306.076 28.088 306.364 27.896V23.576H301.756V16.856H313.66V31.736C312.572 32.792 311.084 33.704 309.196 34.472C307.34 35.208 305.308 35.576 303.1 35.576Z" fill="#1A196F"/>
<path d="M244.5 12.4064C246.985 12.4064 249 10.3007 249 7.70321C249 5.1057 246.985 3 244.5 3C242.015 3 240 5.1057 240 7.70321C240 10.3007 242.015 12.4064 244.5 12.4064Z" fill="#1A196F"/>
<path d="M76.5 35.3999C85.0604 35.3999 92 28.1469 92 19.1999C92 10.253 85.0604 3 76.5 3C67.9396 3 61 10.253 61 19.1999C61 28.1469 67.9396 35.3999 76.5 35.3999Z" fill="#1A196F"/>
<path d="M135.5 35.3999C144.06 35.3999 151 28.1469 151 19.1999C151 10.253 144.06 3 135.5 3C126.94 3 120 10.253 120 19.1999C120 28.1469 126.94 35.3999 135.5 35.3999Z" fill="#FB3E00"/>
</svg>
