<svg width="718" height="108" viewBox="0 0 718 108" fill="none" xmlns="http://www.w3.org/2000/svg">
<path d="M0.315188 106V2.64999H39.4292C46.8492 2.64999 53.6862 3.65699 59.9402 5.67099C66.1942 7.57899 71.2292 10.971 75.0452 15.847C78.8612 20.723 80.7692 27.454 80.7692 36.04C80.7692 43.46 79.2322 49.608 76.1582 54.484C73.0842 59.36 69.0562 63.176 64.0742 65.932L86.4932 106H55.9652L38.1572 71.338H27.6632V106H0.315188ZM27.6632 49.714H37.5212C48.5452 49.714 54.0572 45.156 54.0572 36.04C54.0572 31.588 52.6262 28.514 49.7642 26.818C47.0082 25.122 42.9272 24.274 37.5212 24.274H27.6632V49.714ZM100.467 106V2.64999H167.247V25.546H127.815V41.764H161.523V64.66H127.815V83.104H168.837V106H100.467ZM215.529 55.756L213.78 62.911H232.86L231.111 55.756C229.839 50.774 228.567 45.368 227.295 39.538C226.023 33.708 224.751 28.196 223.479 23.002H222.843C221.783 28.196 220.617 33.708 219.345 39.538C218.073 45.368 216.801 50.774 215.529 55.756ZM175.779 106L207.261 2.64999H240.333L271.815 106H242.877L237.789 84.058H208.851L203.763 106H175.779ZM281.671 106V2.64999H309.019V83.104H348.133V106H281.671ZM365.984 106V2.64999H393.332V106H365.984ZM436.009 106V25.546H408.661V2.64999H490.705V25.546H463.357V106H436.009ZM506.041 106V2.64999H533.389V106H506.041ZM556.349 106V2.64999H623.129V25.546H583.697V41.764H617.405V64.66H583.697V83.104H624.719V106H556.349ZM677.454 107.908C670.988 107.908 664.257 106.689 657.261 104.251C650.265 101.813 643.958 98.103 638.34 93.121L653.922 74.359C657.632 77.327 661.607 79.765 665.847 81.673C670.193 83.475 674.274 84.376 678.09 84.376C682.224 84.376 685.192 83.74 686.994 82.468C688.902 81.196 689.856 79.394 689.856 77.062C689.856 74.624 688.584 72.769 686.04 71.497C683.602 70.225 680.21 68.741 675.864 67.045L662.985 61.639C657.473 59.413 652.597 55.915 648.357 51.145C644.223 46.375 642.156 40.28 642.156 32.86C642.156 26.924 643.799 21.571 647.085 16.801C650.371 11.925 654.876 8.05599 660.6 5.194C666.43 2.22599 673.108 0.74199 680.634 0.74199C686.57 0.74199 692.559 1.90799 698.601 4.23999C704.749 6.466 710.208 9.911 714.978 14.575L701.304 31.747C697.806 29.309 694.414 27.454 691.128 26.182C687.948 24.91 684.45 24.274 680.634 24.274C677.348 24.274 674.698 24.857 672.684 26.023C670.776 27.189 669.822 28.938 669.822 31.27C669.822 33.708 671.2 35.616 673.956 36.994C676.712 38.266 680.422 39.803 685.086 41.605L697.647 46.534C704.113 49.078 709.095 52.629 712.593 57.187C716.091 61.745 717.84 67.628 717.84 74.836C717.84 80.666 716.25 86.125 713.07 91.213C709.996 96.195 705.438 100.223 699.396 103.297C693.354 106.371 686.04 107.908 677.454 107.908Z" fill="#1A196F"/>
</svg>
