<svg width="56" height="59" viewBox="0 0 56 59" fill="none" xmlns="http://www.w3.org/2000/svg">
<g id="Icon">
<rect width="56" height="58" transform="translate(0 0.720703)" fill="#00CA3A"/>
<g id="shield">
<mask id="mask0_997_8448" style="mask-type:alpha" maskUnits="userSpaceOnUse" x="16" y="17" width="24" height="25">
<rect id="Bounding box" x="16" y="17.7207" width="24" height="24" fill="#D9D9D9"/>
</mask>
<g mask="url(#mask0_997_8448)">
<path id="shield_2" d="M28 39.201C25.8372 38.6113 24.0465 37.3382 22.6279 35.3818C21.2093 33.4254 20.5 31.2382 20.5 28.8203V23.0665L28 20.2588L35.5 23.0665V28.8203C35.5 31.2382 34.7907 33.4254 33.3721 35.3818C31.9535 37.3382 30.1628 38.6113 28 39.201ZM28 37.6203C29.7333 37.0703 31.1666 35.9703 32.3 34.3203C33.4333 32.6703 34 30.837 34 28.8203V24.0953L28 21.8549L22 24.0953V28.8203C22 30.837 22.5666 32.6703 23.7 34.3203C24.8333 35.9703 26.2666 37.0703 28 37.6203Z" fill="#211E73"/>
</g>
</g>
</g>
</svg>
