<svg width="732" height="108" viewBox="0 0 732 108" fill="none" xmlns="http://www.w3.org/2000/svg">
<path d="M39.202 107.908C26.164 107.908 11.218 103.138 0.0880002 93.121L15.67 74.359C22.984 80.242 32.206 84.376 39.838 84.376C48.106 84.376 51.604 81.673 51.604 77.062C51.604 72.133 46.357 70.543 37.612 67.045L24.733 61.639C13.603 57.187 3.904 47.806 3.904 32.86C3.904 15.211 19.804 0.74199 42.382 0.74199C54.148 0.74199 67.186 5.194 76.726 14.575L63.052 31.747C56.056 26.818 50.014 24.274 42.382 24.274C35.704 24.274 31.57 26.659 31.57 31.27C31.57 36.199 37.453 37.948 46.834 41.605L59.395 46.534C72.274 51.622 79.588 60.526 79.588 74.836C79.588 92.326 64.96 107.908 39.202 107.908ZM96.196 106V2.64999H162.976V25.546H123.544V41.764H157.252V64.66H123.544V83.104H164.566V106H96.196ZM184.547 106V2.64999H223.661C245.921 2.64999 265.001 10.282 265.001 36.04C265.001 50.827 258.323 60.526 248.306 65.932L270.725 106H240.197L222.389 71.338H211.895V106H184.547ZM211.895 49.714H221.753C232.565 49.714 238.289 44.944 238.289 36.04C238.289 27.136 232.565 24.274 221.753 24.274H211.895V49.714ZM299.083 106L268.555 2.64999H297.493L308.305 47.806C311.167 58.777 313.075 69.43 315.937 80.56H316.573C319.435 69.43 321.502 58.777 324.205 47.806L334.699 2.64999H362.683L332.155 106H299.083ZM372.583 106V2.64999H399.931V106H372.583ZM467.729 107.908C441.335 107.908 418.439 90.418 418.439 55.12C418.439 20.458 442.289 0.74199 468.365 0.74199C482.039 0.74199 493.169 7.10199 500.483 14.416L486.173 31.906C481.085 27.454 475.997 24.274 469.001 24.274C456.917 24.274 446.423 35.404 446.423 54.166C446.423 73.564 455.327 84.376 468.683 84.376C476.633 84.376 482.993 80.242 487.445 75.472L501.755 92.644C493.01 102.82 481.085 107.908 467.729 107.908ZM516.055 106V2.64999H582.835V25.546H543.403V41.764H577.111V64.66H543.403V83.104H584.425V106H516.055ZM663.903 107.908C639.894 107.908 628.287 93.598 628.287 78.016C628.287 63.547 636.714 55.279 646.572 49.237C642.597 42.082 640.371 34.927 640.371 28.726C640.371 13.78 651.819 0.74199 670.263 0.74199C686.799 0.74199 697.611 10.282 697.611 25.228C697.611 38.743 687.435 47.17 676.941 54.007C682.188 59.572 688.548 64.819 695.067 69.43C699.837 63.07 703.812 55.438 706.197 46.534H731.001C727.344 58.618 721.938 69.907 714.147 80.401C720.348 83.422 726.39 85.33 731.319 85.966L724.959 107.908C715.896 106.318 706.515 102.82 697.293 97.891C688.23 104.092 677.1 107.908 663.903 107.908ZM662.79 28.726C662.79 31.906 663.744 35.404 665.652 39.061C672.171 35.245 676.941 31.27 676.941 25.228C676.941 20.776 674.874 18.55 670.899 18.55C666.606 18.55 662.79 22.048 662.79 28.726ZM667.401 87.238C670.74 87.238 674.079 86.284 677.577 84.694C670.581 79.129 664.221 73.087 658.815 66.727C655.953 69.748 654.045 72.769 654.045 76.426C654.045 82.786 659.133 87.238 667.401 87.238Z" fill="#1A196F"/>
</svg>
