<svg width="310" height="544" viewBox="0 0 310 544" fill="none" xmlns="http://www.w3.org/2000/svg">
<path d="M134.029 497.334C134.029 504.548 132.676 511.762 129.971 518.976C127.266 526.077 123.321 532.446 118.135 538.082L101.058 523.879C104.44 519.934 107.201 515.538 109.343 510.691C111.485 505.844 112.556 501.166 112.556 496.657C112.556 491.472 111.598 487.64 109.681 485.16C107.765 482.567 105.172 481.271 101.904 481.271C98.4092 481.271 95.873 482.736 94.2949 485.667C92.6041 488.485 90.7442 492.318 88.7152 497.165L82.6283 511.536C81.0502 515.256 78.9649 518.807 76.3723 522.189C73.667 525.57 70.3418 528.332 66.3965 530.474C62.4513 532.615 57.8298 533.686 52.5319 533.686C46.445 533.686 40.9216 532.052 35.9619 528.783C31.0022 525.401 27.057 520.78 24.1263 514.918C21.1955 508.944 19.7302 502.124 19.7302 494.459C19.7302 488.147 20.9701 481.835 23.4499 475.522C25.9298 469.21 29.5369 463.686 34.2711 458.952L49.9957 471.633C47.1776 475.24 45.036 478.847 43.5706 482.454C41.9925 486.062 41.2035 490.063 41.2035 494.459C41.2035 498.743 42.1052 502.181 43.9087 504.773C45.5996 507.253 48.0231 508.493 51.1792 508.493C54.5609 508.493 57.0971 506.915 58.7879 503.759C60.4787 500.49 62.2822 496.488 64.1985 491.754L69.9472 477.551C72.6525 470.901 76.3723 465.603 81.1066 461.658C85.8409 457.712 92.0969 455.74 99.8746 455.74C105.962 455.74 111.598 457.374 116.783 460.643C121.968 463.912 126.139 468.646 129.295 474.846C132.451 481.045 134.029 488.541 134.029 497.334ZM134.029 275.456C134.029 284.699 131.887 293.209 127.604 300.987C123.321 308.765 117.008 315.021 108.667 319.755C100.213 324.376 89.8424 326.687 77.5559 326.687C65.3821 326.687 55.0117 324.32 46.445 319.586C37.7655 314.739 31.1713 308.37 26.6625 300.48C22.0409 292.476 19.7302 283.853 19.7302 274.61C19.7302 267.509 21.1955 261.14 24.1263 255.504C26.9443 249.868 30.2695 245.19 34.102 241.47L49.9957 254.659C47.4031 257.477 45.3178 260.464 43.7397 263.62C42.0489 266.663 41.2035 270.158 41.2035 274.103C41.2035 279.063 42.6125 283.628 45.4305 287.799C48.2485 291.856 52.3064 295.125 57.6043 297.605C62.9022 299.972 69.2709 301.156 76.7105 301.156C87.9826 301.156 96.7748 298.732 103.087 293.885C109.399 289.038 112.556 282.557 112.556 274.441C112.556 269.932 111.541 265.931 109.512 262.436C107.483 258.829 105.06 255.673 102.242 252.968L117.797 239.78C128.618 249.023 134.029 260.915 134.029 275.456ZM132 75.2544H21.7591L21.7591 50.3995H111.034V6.77656H132V75.2544Z" fill="white"/>
<path d="M19.2969 137.369L132.324 187.459V87.2973L19.2969 137.369Z" fill="#FB3E00"/>
<path d="M76.2698 449.351C107.735 449.351 133.243 423.844 133.243 392.378C133.243 360.913 107.735 335.405 76.2698 335.405C44.8045 335.405 19.2969 360.913 19.2969 392.378C19.2969 423.844 44.8045 449.351 76.2698 449.351Z" fill="white"/>
<path d="M39.0538 215.027C45.9051 215.027 51.4592 209.473 51.4592 202.622C51.4592 195.77 45.9051 190.216 39.0538 190.216C32.2025 190.216 26.6484 195.77 26.6484 202.622C26.6484 209.473 32.2025 215.027 39.0538 215.027Z" fill="white"/>
<path d="M298.055 530.981H187.814V461.488H208.78V506.126H234.311V467.914H255.277V506.126H298.055V530.981ZM298.055 442.312H187.814V373.327H208.78V417.457H230.929V379.921H251.726V417.457H277.089V371.636H298.055V442.312ZM298.055 349.681H187.814L187.814 280.696H208.78L208.78 324.826H230.929V287.29H251.726V324.826H277.089V279.005H298.055V349.681ZM298.055 257.05H187.814V225.939C187.814 214.667 189.73 204.916 193.563 196.688C197.395 188.459 203.369 182.09 211.485 177.581C219.488 172.96 229.802 170.649 242.427 170.649C255.052 170.649 265.478 172.904 273.707 177.412C281.936 181.921 288.079 188.234 292.137 196.349C296.082 204.353 298.055 213.765 298.055 224.586V257.05ZM277.934 232.195V227.46C277.934 221.148 276.807 215.681 274.552 211.06C272.298 206.325 268.578 202.662 263.393 200.069C258.208 197.477 251.219 196.18 242.427 196.18C233.635 196.18 226.759 197.477 221.799 200.069C216.727 202.662 213.176 206.325 211.147 211.06C209.005 215.681 207.934 221.148 207.934 227.46V232.195H277.934Z" fill="white"/>
</svg>
