<svg width="424" height="56" viewBox="0 0 424 56" fill="none" xmlns="http://www.w3.org/2000/svg">
<path d="M0 48.1752L7.47852 38.8715C11.2973 42.0257 16.4452 43.6918 20.7695 43.6918C25.0937 43.6918 26.919 42.2785 26.919 39.873C26.919 37.299 24.1765 36.466 19.6089 34.6408L12.8792 31.8142C7.0667 29.4835 2.00302 24.5883 2.00302 16.7822C2.00302 7.56276 10.3052 0 22.108 0C28.585 0 35.1463 2.32122 40.0509 6.81395L32.5724 16.1177C28.9127 13.6279 25.2623 12.2988 22.108 12.2988C18.6168 12.2988 16.464 13.5437 16.464 15.9585C16.464 18.5325 19.534 19.4498 24.4386 21.3592L30.9998 23.9332C37.7296 26.5914 41.5484 31.2432 41.5484 38.7217C41.5484 47.857 33.9107 56 20.4513 56C13.3097 56 5.83121 53.6788 0.018738 48.1939L0 48.1752Z" fill="#211E73"/>
<path d="M382 48.1752L389.479 38.8715C393.297 42.0257 398.445 43.6918 402.769 43.6918C407.094 43.6918 408.919 42.2785 408.919 39.873C408.919 37.299 406.176 36.466 401.609 34.6408L394.879 31.8142C389.067 29.4835 384.003 24.5883 384.003 16.7822C384.003 7.56276 392.305 0 404.108 0C410.585 0 417.146 2.32122 422.051 6.81395L414.572 16.1177C410.913 13.6279 407.262 12.2988 404.108 12.2988C400.617 12.2988 398.464 13.5437 398.464 15.9585C398.464 18.5325 401.534 19.4498 406.439 21.3592L413 23.9332C419.73 26.5914 423.548 31.2432 423.548 38.7217C423.548 47.857 415.911 56 402.451 56C395.31 56 387.831 53.6788 382.019 48.1939L382 48.1752Z" fill="#211E73"/>
<path d="M107.658 1.00146H121.941V43.0366H142.374V54.9984H107.658V1.01078V1.00146Z" fill="#211E73"/>
<path d="M148.037 28.9043V0.993164H162.32V30.5609C162.32 40.1922 164.81 43.6835 170.463 43.6835C176.116 43.6835 178.765 40.1922 178.765 30.5609V0.993164H192.552V28.9043C192.552 47.3432 185.57 55.9823 170.454 55.9823C155.337 55.9823 148.027 47.3432 148.027 28.9043H148.037Z" fill="#211E73"/>
<path d="M214.49 12.9633H200.207V1.00146H243.066V12.9633H228.783V54.9984H214.5V12.9633H214.49Z" fill="#211E73"/>
<path d="M334.775 1.00146H349.395L361.357 25.0937C363.182 28.7441 364.849 33.0683 366.505 37.2241H366.833C366.168 31.4116 365.008 23.2685 365.008 16.623V1.01078H378.626V54.9984H364.006L352.044 30.9062C350.219 27.2558 348.553 22.9316 346.896 18.7758H346.569C347.233 24.9253 348.394 32.7314 348.394 39.3769V54.9891H334.775V1.00146Z" fill="#211E73"/>
<path d="M72.941 55.3077C88.0251 55.3077 100.253 43.0797 100.253 27.9957C100.253 12.9116 88.0251 0.683594 72.941 0.683594C57.857 0.683594 45.6289 12.9116 45.6289 27.9957C45.6289 43.0797 57.857 55.3077 72.941 55.3077Z" fill="#211E73"/>
<path d="M300.046 55.3077C315.13 55.3077 327.359 43.0797 327.359 27.9957C327.359 12.9116 315.13 0.683594 300.046 0.683594C284.962 0.683594 272.734 12.9116 272.734 27.9957C272.734 43.0797 284.962 55.3077 300.046 55.3077Z" fill="#211E73"/>
<path d="M259.033 17.6344C263.793 17.6344 267.653 13.7749 267.653 9.01401C267.653 4.25307 263.793 0.393555 259.033 0.393555C254.272 0.393555 250.412 4.25307 250.412 9.01401C250.412 13.7749 254.272 17.6344 259.033 17.6344Z" fill="#00CA3A"/>
</svg>
