<svg width="1056" height="108" viewBox="0 0 1056 108" fill="none" xmlns="http://www.w3.org/2000/svg">
<path d="M39.4549 107.908C32.9889 107.908 26.2579 106.689 19.2619 104.251C12.2659 101.813 5.95893 98.103 0.34093 93.121L15.9229 74.359C19.6329 77.327 23.6079 79.765 27.8479 81.673C32.1939 83.475 36.2749 84.376 40.0909 84.376C44.2249 84.376 47.1929 83.74 48.9949 82.468C50.9029 81.196 51.8569 79.394 51.8569 77.062C51.8569 74.624 50.5849 72.769 48.0409 71.497C45.6029 70.225 42.2109 68.741 37.8649 67.045L24.9859 61.639C19.4739 59.413 14.5979 55.915 10.3579 51.145C6.22393 46.375 4.15693 40.28 4.15693 32.86C4.15693 26.924 5.79993 21.571 9.08593 16.801C12.3719 11.925 16.8769 8.05599 22.6009 5.194C28.4309 2.22599 35.1089 0.74199 42.6349 0.74199C48.5709 0.74199 54.5599 1.90799 60.6019 4.23999C66.7499 6.466 72.2089 9.911 76.9789 14.575L63.3049 31.747C59.8069 29.309 56.4149 27.454 53.1289 26.182C49.9489 24.91 46.4509 24.274 42.6349 24.274C39.3489 24.274 36.6989 24.857 34.6849 26.023C32.7769 27.189 31.8229 28.938 31.8229 31.27C31.8229 33.708 33.2009 35.616 35.9569 36.994C38.7129 38.266 42.4229 39.803 47.0869 41.605L59.6479 46.534C66.1139 49.078 71.0959 52.629 74.5939 57.187C78.0919 61.745 79.8409 67.628 79.8409 74.836C79.8409 80.666 78.2509 86.125 75.0709 91.213C71.9969 96.195 67.4389 100.223 61.3969 103.297C55.3549 106.371 48.0409 107.908 39.4549 107.908ZM113.06 106V25.546H85.7115V2.64999H167.756V25.546H140.408V106H113.06ZM221.844 107.908C212.304 107.908 203.93 105.788 196.722 101.548C189.514 97.202 183.896 91.001 179.868 82.945C175.84 74.889 173.826 65.19 173.826 53.848C173.826 42.506 175.84 32.913 179.868 25.069C183.896 17.119 189.514 11.077 196.722 6.943C203.93 2.80899 212.304 0.74199 221.844 0.74199C231.384 0.74199 239.758 2.80899 246.966 6.943C254.174 11.077 259.792 17.119 263.82 25.069C267.848 32.913 269.862 42.506 269.862 53.848C269.862 65.19 267.848 74.889 263.82 82.945C259.792 91.001 254.174 97.202 246.966 101.548C239.758 105.788 231.384 107.908 221.844 107.908ZM221.844 84.376C228.098 84.376 232.974 81.62 236.472 76.108C240.076 70.596 241.878 63.176 241.878 53.848C241.878 44.414 240.076 37.153 236.472 32.065C232.974 26.871 228.098 24.274 221.844 24.274C215.696 24.274 210.82 26.871 207.216 32.065C203.612 37.153 201.81 44.414 201.81 53.848C201.81 63.176 203.612 70.596 207.216 76.108C210.82 81.62 215.696 84.376 221.844 84.376ZM288.367 106V2.64999H327.481C334.901 2.64999 341.738 3.65699 347.992 5.67099C354.246 7.57899 359.281 10.971 363.097 15.847C366.913 20.723 368.821 27.454 368.821 36.04C368.821 43.46 367.284 49.608 364.21 54.484C361.136 59.36 357.108 63.176 352.126 65.932L374.545 106H344.017L326.209 71.338H315.715V106H288.367ZM315.715 49.714H325.573C336.597 49.714 342.109 45.156 342.109 36.04C342.109 31.588 340.678 28.514 337.816 26.818C335.06 25.122 330.979 24.274 325.573 24.274H315.715V49.714ZM403.539 106V70.384L372.375 2.64999H401.631L409.263 24.274C410.535 28.196 411.807 32.012 413.079 35.722C414.351 39.432 415.676 43.301 417.054 47.329H417.69C419.068 43.301 420.393 39.432 421.665 35.722C423.043 32.012 424.421 28.196 425.799 24.274L433.431 2.64999H462.051L430.887 70.384V106H403.539ZM488.511 106V25.546H461.163V2.64999H543.207V25.546H515.859V106H488.511ZM558.543 106V2.64999H625.323V25.546H585.891V41.764H619.599V64.66H585.891V83.104H626.913V106H558.543ZM646.893 106V2.64999H674.241V83.104H713.355V106H646.893ZM731.207 106V2.64999H758.555V83.104H797.669V106H731.207ZM815.52 106V2.64999H842.868V106H815.52ZM865.829 106V2.64999H893.813L916.709 48.76L926.567 71.974H927.203C926.567 66.356 925.825 59.996 924.977 52.894C924.129 45.686 923.705 38.902 923.705 32.542V2.64999H949.781V106H921.797L898.901 59.731L889.043 36.676H888.407C889.043 42.506 889.785 48.972 890.633 56.074C891.481 63.07 891.905 69.748 891.905 76.108V106H865.829ZM1020.36 107.908C1010.71 107.908 1001.91 106 993.963 102.184C986.119 98.262 979.865 92.379 975.201 84.535C970.537 76.691 968.205 66.886 968.205 55.12C968.205 46.428 969.583 38.743 972.339 32.065C975.095 25.281 978.858 19.557 983.628 14.893C988.398 10.229 993.857 6.73099 1000 4.39899C1006.26 1.96099 1012.83 0.74199 1019.72 0.74199C1027.35 0.74199 1033.98 2.11999 1039.6 4.87599C1045.21 7.526 1049.82 10.706 1053.43 14.416L1039.12 31.906C1036.57 29.68 1033.87 27.878 1031.01 26.5C1028.25 25.016 1024.81 24.274 1020.67 24.274C1013.68 24.274 1007.85 26.924 1003.18 32.224C998.521 37.418 996.189 44.732 996.189 54.166C996.189 63.812 998.362 71.285 1002.71 76.585C1007.16 81.779 1014 84.376 1023.22 84.376C1024.7 84.376 1026.13 84.217 1027.51 83.899C1029 83.581 1030.21 83.104 1031.17 82.468V68.158H1015.9V45.898H1055.34V95.188C1051.73 98.686 1046.8 101.707 1040.55 104.251C1034.4 106.689 1027.67 107.908 1020.36 107.908Z" fill="#1A196F"/>
</svg>
