<svg width="1018" height="134" viewBox="0 0 1018 134" fill="none" xmlns="http://www.w3.org/2000/svg">
<path d="M51.152 133.208C43.6693 133.208 35.88 131.797 27.784 128.976C19.688 126.155 12.3893 121.861 5.888 116.096L23.92 94.384C28.2133 97.8187 32.8133 100.64 37.72 102.848C42.7493 104.933 47.472 105.976 51.888 105.976C56.672 105.976 60.1067 105.24 62.192 103.768C64.4 102.296 65.504 100.211 65.504 97.512C65.504 94.6907 64.032 92.544 61.088 91.072C58.2667 89.6 54.3413 87.8827 49.312 85.92L34.408 79.664C28.0293 77.088 22.3867 73.04 17.48 67.52C12.696 62 10.304 54.9467 10.304 46.36C10.304 39.4907 12.2053 33.296 16.008 27.776C19.8107 22.1333 25.024 17.656 31.648 14.344C38.3947 10.9093 46.1227 9.19199 54.832 9.19199C61.7013 9.19199 68.632 10.5413 75.624 13.24C82.7387 15.816 89.056 19.8027 94.576 25.2L78.752 45.072C74.704 42.2507 70.7787 40.104 66.976 38.632C63.296 37.16 59.248 36.424 54.832 36.424C51.0293 36.424 47.9627 37.0987 45.632 38.448C43.424 39.7973 42.32 41.8213 42.32 44.52C42.32 47.3413 43.9147 49.5493 47.104 51.144C50.2933 52.616 54.5867 54.3947 59.984 56.48L74.52 62.184C82.0027 65.128 87.768 69.2373 91.816 74.512C95.864 79.7867 97.888 86.5947 97.888 94.936C97.888 101.683 96.048 108 92.368 113.888C88.8107 119.653 83.536 124.315 76.544 127.872C69.552 131.429 61.088 133.208 51.152 133.208ZM136.33 131V37.896H104.682V11.4H199.626V37.896H167.978V131H136.33ZM217.373 131V11.4H262.637C271.224 11.4 279.136 12.5653 286.373 14.896C293.61 17.104 299.437 21.0293 303.853 26.672C308.269 32.3147 310.477 40.104 310.477 50.04C310.477 58.6267 308.698 65.7413 305.141 71.384C301.584 77.0267 296.922 81.4427 291.157 84.632L317.101 131H281.773L261.165 90.888H249.021V131H217.373ZM249.021 65.864H260.429C273.186 65.864 279.565 60.5893 279.565 50.04C279.565 44.888 277.909 41.3307 274.597 39.368C271.408 37.4053 266.685 36.424 260.429 36.424H249.021V65.864ZM463.541 131V37.896H431.893V11.4H526.837V37.896H495.189V131H463.541ZM544.584 131V11.4H621.864V37.896H576.232V56.664H615.24V83.16H576.232V104.504H623.704V131H544.584ZM702.026 133.208C690.863 133.208 680.682 131 671.482 126.584C662.405 122.045 655.167 115.237 649.77 106.16C644.373 97.0827 641.674 85.736 641.674 72.12C641.674 62.0613 643.269 53.168 646.458 45.44C649.647 37.5893 654.002 30.9653 659.522 25.568C665.042 20.1707 671.359 16.1227 678.474 13.424C685.711 10.6027 693.317 9.19199 701.29 9.19199C710.122 9.19199 717.789 10.7867 724.29 13.976C730.791 17.0427 736.127 20.7227 740.298 25.016L723.738 45.256C720.794 42.68 717.666 40.5947 714.354 39C711.165 37.2827 707.178 36.424 702.394 36.424C694.298 36.424 687.551 39.4907 682.154 45.624C676.757 51.6347 674.058 60.0987 674.058 71.016C674.058 82.1787 676.573 90.8267 681.602 96.96C686.754 102.971 694.666 105.976 705.338 105.976C707.055 105.976 708.711 105.792 710.306 105.424C712.023 105.056 713.434 104.504 714.538 103.768V87.208H696.874V61.448H742.506V118.488C738.335 122.536 732.631 126.032 725.394 128.976C718.279 131.797 710.49 133.208 702.026 133.208ZM816.638 131V111.864L865.582 37.896H821.422V11.4H904.59V30.536L855.646 104.504H904.958V131H816.638ZM923.725 131V11.4H1001V37.896H955.373V56.664H994.381V83.16H955.373V104.504H1002.84V131H923.725Z" fill="white"/>
<path d="M383.5 12L326 132H441L383.5 12Z" fill="#FB3E00"/>
<path d="M781.5 39C788.956 39 795 32.9558 795 25.5C795 18.0442 788.956 12 781.5 12C774.044 12 768 18.0442 768 25.5C768 32.9558 774.044 39 781.5 39Z" fill="white"/>
</svg>
