<svg width="720" height="108" viewBox="0 0 720 108" fill="none" xmlns="http://www.w3.org/2000/svg">
<path d="M39.202 107.908C26.164 107.908 11.218 103.138 0.0880002 93.121L15.67 74.359C22.984 80.242 32.206 84.376 39.838 84.376C48.106 84.376 51.604 81.673 51.604 77.062C51.604 72.133 46.357 70.543 37.612 67.045L24.733 61.639C13.603 57.187 3.904 47.806 3.904 32.86C3.904 15.211 19.804 0.74199 42.382 0.74199C54.148 0.74199 67.186 5.194 76.726 14.575L63.052 31.747C56.056 26.818 50.014 24.274 42.382 24.274C35.704 24.274 31.57 26.659 31.57 31.27C31.57 36.199 37.453 37.948 46.834 41.605L59.395 46.534C72.274 51.622 79.588 60.526 79.588 74.836C79.588 92.326 64.96 107.908 39.202 107.908ZM112.807 106V25.546H85.4586V2.64999H167.503V25.546H140.155V106H112.807ZM182.839 106V2.64999H221.953C244.213 2.64999 263.293 10.282 263.293 36.04C263.293 50.827 256.615 60.526 246.598 65.932L269.017 106H238.489L220.681 71.338H210.187V106H182.839ZM210.187 49.714H220.045C230.857 49.714 236.581 44.944 236.581 36.04C236.581 27.136 230.857 24.274 220.045 24.274H210.187V49.714ZM308.149 55.756L306.4 62.911H325.48L323.731 55.756C321.187 45.898 318.643 33.337 316.099 23.002H315.463C313.237 33.496 310.693 45.898 308.149 55.756ZM268.399 106L299.881 2.64999H332.953L364.435 106H335.497L330.409 84.058H301.471L296.383 106H268.399ZM381.274 106V25.546H353.926V2.64999H435.97V25.546H408.622V106H381.274ZM451.306 106V2.64999H518.086V25.546H478.654V41.764H512.362V64.66H478.654V83.104H519.676V106H451.306ZM587.357 107.908C558.419 107.908 535.205 90.418 535.205 55.12C535.205 20.458 559.055 0.74199 586.721 0.74199C601.985 0.74199 613.115 7.10199 620.429 14.416L606.119 31.906C601.031 27.454 595.943 24.274 587.675 24.274C573.683 24.274 563.189 35.404 563.189 54.166C563.189 73.564 571.775 84.376 590.219 84.376C593.081 84.376 596.261 83.74 598.169 82.468V68.158H582.905V45.898H622.337V95.188C615.023 102.184 601.985 107.908 587.357 107.908ZM660.574 106V70.384L629.41 2.64999H658.666L666.298 24.274C668.842 32.065 671.386 39.22 674.089 47.329H674.725C677.428 39.22 680.131 32.065 682.834 24.274L690.466 2.64999H719.086L687.922 70.384V106H660.574Z" fill="#1A196F"/>
</svg>
