<svg width="1142" height="323" viewBox="0 0 1142 323" fill="none" xmlns="http://www.w3.org/2000/svg">
<path d="M51.152 143.208C43.6693 143.208 35.88 141.797 27.784 138.976C19.688 136.155 12.3893 131.861 5.888 126.096L23.92 104.384C28.2133 107.819 32.8133 110.64 37.72 112.848C42.7493 114.933 47.472 115.976 51.888 115.976C56.672 115.976 60.1067 115.24 62.192 113.768C64.4 112.296 65.504 110.211 65.504 107.512C65.504 104.691 64.032 102.544 61.088 101.072C58.2667 99.6 54.3413 97.8827 49.312 95.92L34.408 89.664C28.0293 87.088 22.3867 83.04 17.48 77.52C12.696 72 10.304 64.9467 10.304 56.36C10.304 49.4907 12.2053 43.296 16.008 37.776C19.8107 32.1333 25.024 27.656 31.648 24.344C38.3947 20.9093 46.1227 19.192 54.832 19.192C61.7013 19.192 68.632 20.5413 75.624 23.24C82.7387 25.816 89.056 29.8027 94.576 35.2L78.752 55.072C74.704 52.2507 70.7787 50.104 66.976 48.632C63.296 47.16 59.248 46.424 54.832 46.424C51.0293 46.424 47.9627 47.0987 45.632 48.448C43.424 49.7973 42.32 51.8213 42.32 54.52C42.32 57.3413 43.9147 59.5493 47.104 61.144C50.2933 62.616 54.5867 64.3947 59.984 66.48L74.52 72.184C82.0027 75.128 87.768 79.2373 91.816 84.512C95.864 89.7867 97.888 96.5947 97.888 104.936C97.888 111.683 96.048 118 92.368 123.888C88.8107 129.653 83.536 134.315 76.544 137.872C69.552 141.429 61.088 143.208 51.152 143.208ZM142.77 141V47.896H111.122V21.4H206.066V47.896H174.418V141H142.77ZM230.253 141V21.4H275.517C284.104 21.4 292.016 22.5653 299.253 24.896C306.49 27.104 312.317 31.0293 316.733 36.672C321.149 42.3147 323.357 50.104 323.357 60.04C323.357 68.6267 321.578 75.7413 318.021 81.384C314.464 87.0267 309.802 91.4427 304.037 94.632L329.981 141H294.653L274.045 100.888H261.901V141H230.253ZM261.901 75.864H273.309C286.066 75.864 292.445 70.5893 292.445 60.04C292.445 54.888 290.789 51.3307 287.477 49.368C284.288 47.4053 279.565 46.424 273.309 46.424H261.901V75.864ZM489.301 141V47.896H457.653V21.4H552.597V47.896H520.949V141H489.301ZM576.784 141V21.4H654.064V47.896H608.432V66.664H647.44V93.16H608.432V114.504H655.904V141H576.784ZM740.666 143.208C729.503 143.208 719.322 141 710.122 136.584C701.045 132.045 693.807 125.237 688.41 116.16C683.013 107.083 680.314 95.736 680.314 82.12C680.314 72.0613 681.909 63.168 685.098 55.44C688.287 47.5893 692.642 40.9653 698.162 35.568C703.682 30.1707 709.999 26.1227 717.114 23.424C724.351 20.6027 731.957 19.192 739.93 19.192C748.762 19.192 756.429 20.7867 762.93 23.976C769.431 27.0427 774.767 30.7227 778.938 35.016L762.378 55.256C759.434 52.68 756.306 50.5947 752.994 49C749.805 47.2827 745.818 46.424 741.034 46.424C732.938 46.424 726.191 49.4907 720.794 55.624C715.397 61.6347 712.698 70.0987 712.698 81.016C712.698 92.1787 715.213 100.827 720.242 106.96C725.394 112.971 733.306 115.976 743.978 115.976C745.695 115.976 747.351 115.792 748.946 115.424C750.663 115.056 752.074 114.504 753.178 113.768V97.208H735.514V71.448H781.146V128.488C776.975 132.536 771.271 136.032 764.034 138.976C756.919 141.797 749.13 143.208 740.666 143.208ZM831.835 141V99.784L795.771 21.4H829.627L838.459 46.424C839.931 50.9627 841.403 55.3787 842.875 59.672C844.347 63.9653 845.881 68.4427 847.475 73.104H848.211C849.806 68.4427 851.339 63.9653 852.811 59.672C854.406 55.3787 856.001 50.9627 857.595 46.424L866.427 21.4H899.547L863.483 99.784V141H831.835ZM1034.67 51.576C1034.67 55.256 1035.77 59.2427 1037.98 63.536C1041.78 61.328 1044.91 58.9973 1047.36 56.544C1049.81 53.968 1051.04 50.9627 1051.04 47.528C1051.04 42.376 1048.71 39.8 1044.05 39.8C1041.6 39.8 1039.39 40.7813 1037.43 42.744C1035.59 44.7067 1034.67 47.6507 1034.67 51.576ZM1035.95 143.208C1026.75 143.208 1019.09 141.613 1012.95 138.424C1006.82 135.112 1002.22 130.819 999.153 125.544C996.209 120.269 994.737 114.627 994.737 108.616C994.737 100.275 996.822 93.528 1000.99 88.376C1005.29 83.1013 1010.25 78.7467 1015.9 75.312C1011.11 66.7253 1008.72 58.8133 1008.72 51.576C1008.72 45.8107 1010.13 40.4747 1012.95 35.568C1015.77 30.6613 1019.76 26.736 1024.91 23.792C1030.07 20.7253 1036.2 19.192 1043.31 19.192C1052.88 19.192 1060.55 21.768 1066.31 26.92C1072.08 31.9493 1074.96 38.8187 1074.96 47.528C1074.96 52.68 1073.8 57.28 1071.47 61.328C1069.13 65.376 1066.13 68.9947 1062.45 72.184C1058.89 75.2507 1055.09 78.1333 1051.04 80.832C1054.11 84.0213 1057.42 87.1493 1060.98 90.216C1064.53 93.16 1068.21 95.9813 1072.02 98.68C1074.84 95 1077.35 90.952 1079.56 86.536C1081.77 82.12 1083.55 77.336 1084.9 72.184H1113.6C1111.52 79.176 1108.88 85.9227 1105.69 92.424C1102.5 98.9253 1098.64 105.243 1094.1 111.376C1101.33 114.933 1107.96 117.08 1113.97 117.816L1106.61 143.208C1101.33 142.227 1096 140.755 1090.6 138.792C1085.33 136.829 1079.99 134.437 1074.59 131.616C1069.32 135.173 1063.43 137.995 1056.93 140.08C1050.55 142.165 1043.56 143.208 1035.95 143.208ZM1024.55 106.776C1024.55 110.456 1025.89 113.461 1028.59 115.792C1031.41 118.123 1035.22 119.288 1040 119.288C1041.96 119.288 1043.93 119.043 1045.89 118.552C1047.85 117.939 1049.81 117.203 1051.78 116.344C1043.44 109.72 1036.2 102.789 1030.07 95.552C1028.47 97.2693 1027.12 99.048 1026.02 100.888C1025.04 102.728 1024.55 104.691 1024.55 106.776Z" fill="white"/>
<path d="M13.248 320V200.4H44.896V320H13.248ZM78.8268 320V200.4H111.211L137.707 253.76L149.115 280.624H149.851C149.115 274.123 148.256 266.763 147.275 258.544C146.293 250.203 145.803 242.352 145.803 234.992V200.4H175.979V320H143.595L117.099 266.456L105.691 239.776H104.955C105.691 246.523 106.549 254.005 107.531 262.224C108.512 270.32 109.003 278.048 109.003 285.408V320H78.8268ZM209.812 320V200.4H242.196L268.692 253.76L280.1 280.624H280.836C280.1 274.123 279.241 266.763 278.26 258.544C277.278 250.203 276.788 242.352 276.788 234.992V200.4H306.964V320H274.58L248.084 266.456L236.676 239.776H235.94C236.676 246.523 237.534 254.005 238.516 262.224C239.497 270.32 239.988 278.048 239.988 285.408V320H209.812ZM495.795 320L460.467 200.4H493.955L506.467 252.656C508.185 259.035 509.657 265.352 510.883 271.608C512.233 277.741 513.705 284.059 515.299 290.56H516.035C517.753 284.059 519.225 277.741 520.451 271.608C521.801 265.352 523.273 259.035 524.867 252.656L537.011 200.4H569.395L534.067 320H495.795ZM725.841 320V226.896H694.193V200.4H789.137V226.896H757.489V320H725.841ZM1014.58 320V200.4H1046.97L1073.46 253.76L1084.87 280.624H1085.61C1084.87 274.123 1084.01 266.763 1083.03 258.544C1082.05 250.203 1081.56 242.352 1081.56 234.992V200.4H1111.73V320H1079.35L1052.85 266.456L1041.45 239.776H1040.71C1041.45 246.523 1042.3 254.005 1043.29 262.224C1044.27 270.32 1044.76 278.048 1044.76 285.408V320H1014.58Z" fill="white"/>
<path d="M410 23L354 141H466L410 23Z" fill="white"/>
<path d="M641.5 199L584 321H699L641.5 199Z" fill="white"/>
<path d="M393.5 321C428.57 321 457 293.689 457 260C457 226.311 428.57 199 393.5 199C358.43 199 330 226.311 330 260C330 293.689 358.43 321 393.5 321Z" fill="white"/>
<path d="M929.5 320C964.57 320 993 292.913 993 259.5C993 226.087 964.57 199 929.5 199C894.43 199 866 226.087 866 259.5C866 292.913 894.43 320 929.5 320Z" fill="white"/>
<path d="M832.833 246.02C841.5 246.02 848.525 239.046 848.525 230.442C848.525 221.839 841.5 214.865 832.833 214.865C824.166 214.865 817.141 221.839 817.141 230.442C817.141 239.046 824.166 246.02 832.833 246.02Z" fill="#FB3E00"/>
</svg>
