<svg width="48" height="48" viewBox="0 0 48 48" fill="none" xmlns="http://www.w3.org/2000/svg">
<mask id="mask0_1156_4799" style="mask-type:alpha" maskUnits="userSpaceOnUse" x="0" y="0" width="48" height="48">
<rect width="48" height="48" fill="#D9D9D9"/>
</mask>
<g mask="url(#mask0_1156_4799)">
<path d="M24.0033 42.9999C21.3754 42.9999 18.9054 42.5012 16.5931 41.5039C14.2808 40.5066 12.2694 39.1531 10.559 37.4434C8.84853 35.7337 7.49442 33.7232 6.49665 31.412C5.49888 29.1007 5 26.6312 5 24.0033C5 21.3754 5.49875 18.9054 6.49625 16.5931C7.49375 14.2808 8.8475 12.2694 10.5575 10.559C12.2675 8.84854 14.2783 7.49442 16.59 6.49665C18.9016 5.49889 21.3716 5 24 5C26.1068 5 28.1001 5.31667 29.9801 5.95C31.86 6.58333 33.5846 7.46667 35.1538 8.6L32.9846 10.8192C31.6923 9.92947 30.2925 9.23715 28.7851 8.74225C27.2777 8.24739 25.6826 7.99995 24 7.99995C19.5666 7.99995 15.7916 9.55829 12.675 12.675C9.55828 15.7916 7.99995 19.5666 7.99995 24C7.99995 28.4333 9.55828 32.2083 12.675 35.325C15.7916 38.4416 19.5666 40 24 40C28.4333 40 32.2083 38.4416 35.325 35.325C38.4416 32.2083 40 28.4333 40 24C40 23.2974 39.9538 22.6026 39.8615 21.9155C39.7692 21.2284 39.6307 20.5604 39.4461 19.9115L41.8691 17.4692C42.2358 18.4974 42.5159 19.5551 42.7095 20.6424C42.9031 21.7296 42.9999 22.8488 42.9999 24C42.9999 26.6283 42.5012 29.0983 41.5039 31.4099C40.5066 33.7216 39.1531 35.7324 37.4434 37.4424C35.7337 39.1524 33.7232 40.5062 31.412 41.5037C29.1007 42.5012 26.6312 42.9999 24.0033 42.9999ZM21.1615 32.5076L13.3539 24.7L15.4615 22.5923L21.1615 28.2923L40.8923 8.5308L42.9999 10.6385L21.1615 32.5076Z" fill="#1A16E3"/>
<path d="M21.1612 32.5081L13.3535 24.7004L15.4612 22.5928L21.1612 28.2928L40.8919 8.53125L42.9996 10.6389L21.1612 32.5081Z" fill="#FB3E00"/>
</g>
</svg>
