<svg width="542" height="108" viewBox="0 0 542 108" fill="none" xmlns="http://www.w3.org/2000/svg">
<path d="M39.202 107.908C26.164 107.908 11.218 103.138 0.0880002 93.121L15.67 74.359C22.984 80.242 32.206 84.376 39.838 84.376C48.106 84.376 51.604 81.673 51.604 77.062C51.604 72.133 46.357 70.543 37.612 67.045L24.733 61.639C13.603 57.187 3.904 47.806 3.904 32.86C3.904 15.211 19.804 0.74199 42.382 0.74199C54.148 0.74199 67.186 5.194 76.726 14.575L63.052 31.747C56.056 26.818 50.014 24.274 42.382 24.274C35.704 24.274 31.57 26.659 31.57 31.27C31.57 36.199 37.453 37.948 46.834 41.605L59.395 46.534C72.274 51.622 79.588 60.526 79.588 74.836C79.588 92.326 64.96 107.908 39.202 107.908ZM111.217 106V70.384L80.0526 2.64999H109.309L116.941 24.274C119.485 32.065 122.029 39.22 124.732 47.329H125.368C128.071 39.22 130.774 32.065 133.477 24.274L141.109 2.64999H169.729L138.565 70.384V106H111.217ZM209.226 107.908C196.188 107.908 181.242 103.138 170.112 93.121L185.694 74.359C193.008 80.242 202.23 84.376 209.862 84.376C218.13 84.376 221.628 81.673 221.628 77.062C221.628 72.133 216.381 70.543 207.636 67.045L194.757 61.639C183.627 57.187 173.928 47.806 173.928 32.86C173.928 15.211 189.828 0.74199 212.406 0.74199C224.172 0.74199 237.21 5.194 246.75 14.575L233.076 31.747C226.08 26.818 220.038 24.274 212.406 24.274C205.728 24.274 201.594 26.659 201.594 31.27C201.594 36.199 207.477 37.948 216.858 41.605L229.419 46.534C242.298 51.622 249.612 60.526 249.612 74.836C249.612 92.326 234.984 107.908 209.226 107.908ZM282.831 106V25.546H255.483V2.64999H337.527V25.546H310.179V106H282.831ZM352.863 106V2.64999H419.643V25.546H380.211V41.764H413.919V64.66H380.211V83.104H421.233V106H352.863ZM441.214 106V2.64999H470.47L486.052 44.944C487.96 50.668 489.55 57.028 491.458 63.07H492.094C494.002 57.028 495.592 50.668 497.5 44.944L512.446 2.64999H541.702V106H516.898V75.472C516.898 64.978 519.124 48.919 520.396 38.584H519.76L511.174 63.388L498.454 97.573H483.826L471.106 63.388L462.838 38.584H462.202C463.474 48.919 465.7 64.978 465.7 75.472V106H441.214Z" fill="#1A196F"/>
</svg>
