<svg width="1135" height="288" viewBox="0 0 1135 288" fill="none" xmlns="http://www.w3.org/2000/svg">
<path d="M31.164 123V42.546H3.816V19.65H85.86V42.546H58.512V123H31.164ZM101.196 123V19.65H140.31C162.57 19.65 181.65 27.282 181.65 53.04C181.65 67.827 174.972 77.526 164.955 82.932L187.374 123H156.846L139.038 88.338H128.544V123H101.196ZM128.544 66.714H138.402C149.214 66.714 154.938 61.944 154.938 53.04C154.938 44.136 149.214 41.274 138.402 41.274H128.544V66.714ZM226.507 72.756L224.758 79.911H243.838L242.089 72.756C239.545 62.898 237.001 50.337 234.457 40.002H233.821C231.595 50.496 229.051 62.898 226.507 72.756ZM186.757 123L218.239 19.65H251.311L282.793 123H253.855L248.767 101.058H219.829L214.741 123H186.757ZM292.648 123V19.65H319.996V123H292.648ZM342.957 123V19.65H370.941L393.837 65.76L403.695 88.974H404.331C403.059 77.844 400.833 62.262 400.833 49.542V19.65H426.909V123H398.925L376.029 76.731L366.171 53.676H365.535C366.807 65.442 369.033 80.388 369.033 93.108V123H342.957ZM449.785 123V19.65H477.133V123H449.785ZM500.094 123V19.65H528.078L550.974 65.76L560.832 88.974H561.468C560.196 77.844 557.97 62.262 557.97 49.542V19.65H584.046V123H556.062L533.166 76.731L523.308 53.676H522.672C523.944 65.442 526.17 80.388 526.17 93.108V123H500.094ZM654.622 124.908C625.684 124.908 602.47 107.418 602.47 72.12C602.47 37.458 626.32 17.742 653.986 17.742C669.25 17.742 680.38 24.102 687.694 31.416L673.384 48.906C668.296 44.454 663.208 41.274 654.94 41.274C640.948 41.274 630.454 52.404 630.454 71.166C630.454 90.564 639.04 101.376 657.484 101.376C660.346 101.376 663.526 100.74 665.434 99.468V85.158H650.17V62.898H689.602V112.188C682.288 119.184 669.25 124.908 654.622 124.908ZM801.041 124.908C777.032 124.908 765.425 110.598 765.425 95.016C765.425 80.547 773.852 72.279 783.71 66.237C779.735 59.082 777.509 51.927 777.509 45.726C777.509 30.78 788.957 17.742 807.401 17.742C823.937 17.742 834.749 27.282 834.749 42.228C834.749 55.743 824.573 64.17 814.079 71.007C819.326 76.572 825.686 81.819 832.205 86.43C836.975 80.07 840.95 72.438 843.335 63.534H868.139C864.482 75.618 859.076 86.907 851.285 97.401C857.486 100.422 863.528 102.33 868.457 102.966L862.097 124.908C853.034 123.318 843.653 119.82 834.431 114.891C825.368 121.092 814.238 124.908 801.041 124.908ZM799.928 45.726C799.928 48.906 800.882 52.404 802.79 56.061C809.309 52.245 814.079 48.27 814.079 42.228C814.079 37.776 812.012 35.55 808.037 35.55C803.744 35.55 799.928 39.048 799.928 45.726ZM804.539 104.238C807.878 104.238 811.217 103.284 814.715 101.694C807.719 96.129 801.359 90.087 795.953 83.727C793.091 86.748 791.183 89.769 791.183 93.426C791.183 99.786 796.271 104.238 804.539 104.238Z" fill="#1A196F"/>
<path d="M224.318 279L206.192 175.65H234.176L239.9 220.806C241.013 231.618 242.285 242.43 243.398 253.242H244.034C245.942 242.43 247.85 231.459 249.758 220.806L259.616 175.65H282.512L292.37 220.806C294.278 231.141 296.186 242.271 298.094 253.242H298.73C299.843 242.271 301.115 231.3 302.228 220.806L307.952 175.65H334.028L316.856 279H282.194L274.244 237.978C272.654 230.028 271.382 221.442 270.428 213.81H269.792C268.679 221.442 267.566 230.028 265.976 237.978L258.344 279H224.318ZM390.666 280.908C362.046 280.908 342.648 260.874 342.648 226.848C342.648 192.822 362.046 173.742 390.666 173.742C419.286 173.742 438.684 192.981 438.684 226.848C438.684 260.874 419.286 280.908 390.666 280.908ZM390.666 257.376C403.068 257.376 410.7 245.61 410.7 226.848C410.7 208.086 403.068 197.274 390.666 197.274C378.264 197.274 370.632 208.086 370.632 226.848C370.632 245.61 378.264 257.376 390.666 257.376ZM457.189 279V175.65H496.303C518.563 175.65 537.643 183.282 537.643 209.04C537.643 223.827 530.965 233.526 520.948 238.932L543.367 279H512.839L495.031 244.338H484.537V279H457.189ZM484.537 222.714H494.395C505.207 222.714 510.931 217.944 510.931 209.04C510.931 200.136 505.207 197.274 494.395 197.274H484.537V222.714ZM557.341 279V175.65H584.689V214.128H585.325L611.401 175.65H641.293L610.447 217.626L647.335 279H617.443L594.547 239.25L584.689 253.242V279H557.341ZM686.054 280.908C673.016 280.908 658.07 276.138 646.94 266.121L662.522 247.359C669.836 253.242 679.058 257.376 686.69 257.376C694.958 257.376 698.456 254.673 698.456 250.062C698.456 245.133 693.209 243.543 684.464 240.045L671.585 234.639C660.455 230.187 650.756 220.806 650.756 205.86C650.756 188.211 666.656 173.742 689.234 173.742C701 173.742 714.038 178.194 723.578 187.575L709.904 204.747C702.908 199.818 696.866 197.274 689.234 197.274C682.556 197.274 678.422 199.659 678.422 204.27C678.422 209.199 684.305 210.948 693.686 214.605L706.247 219.534C719.126 224.622 726.44 233.526 726.44 247.836C726.44 265.326 711.812 280.908 686.054 280.908ZM743.048 279V175.65H770.396V214.128H801.242V175.65H828.59V279H801.242V237.978H770.396V279H743.048ZM894.994 280.908C866.374 280.908 846.976 260.874 846.976 226.848C846.976 192.822 866.374 173.742 894.994 173.742C923.614 173.742 943.012 192.981 943.012 226.848C943.012 260.874 923.614 280.908 894.994 280.908ZM894.994 257.376C907.396 257.376 915.028 245.61 915.028 226.848C915.028 208.086 907.396 197.274 894.994 197.274C882.592 197.274 874.96 208.086 874.96 226.848C874.96 245.61 882.592 257.376 894.994 257.376ZM961.517 279V175.65H999.359C1021.94 175.65 1041.34 183.918 1041.34 209.994C1041.34 235.275 1021.62 246.246 999.995 246.246H988.865V279H961.517ZM988.865 224.622H998.723C1009.54 224.622 1014.62 219.216 1014.62 209.994C1014.62 200.772 1008.58 197.274 998.087 197.274H988.865V224.622ZM1089.45 280.908C1076.42 280.908 1061.47 276.138 1050.34 266.121L1065.92 247.359C1073.24 253.242 1082.46 257.376 1090.09 257.376C1098.36 257.376 1101.86 254.673 1101.86 250.062C1101.86 245.133 1096.61 243.543 1087.86 240.045L1074.98 234.639C1063.85 230.187 1054.16 220.806 1054.16 205.86C1054.16 188.211 1070.06 173.742 1092.63 173.742C1104.4 173.742 1117.44 178.194 1126.98 187.575L1113.3 204.747C1106.31 199.818 1100.27 197.274 1092.63 197.274C1085.96 197.274 1081.82 199.659 1081.82 204.27C1081.82 209.199 1087.7 210.948 1097.09 214.605L1109.65 219.534C1122.53 224.622 1129.84 233.526 1129.84 247.836C1129.84 265.326 1115.21 280.908 1089.45 280.908Z" fill="#1A196F"/>
</svg>
