<svg width="1249" height="134" viewBox="0 0 1249 134" fill="none" xmlns="http://www.w3.org/2000/svg">
<path d="M62.192 133.208C45.5093 133.208 33.0587 128.301 24.84 118.488C16.6213 108.675 12.512 93.5867 12.512 73.224V11.4H44.16V76.904C44.16 87.576 45.5707 95.12 48.392 99.536C51.336 103.829 55.936 105.976 62.192 105.976C68.448 105.976 73.048 103.829 75.992 99.536C79.0587 95.12 80.592 87.576 80.592 76.904V11.4H111.136V73.224C111.136 93.5867 107.149 108.675 99.176 118.488C91.3253 128.301 78.9973 133.208 62.192 133.208ZM172.98 133.208C165.497 133.208 157.708 131.797 149.612 128.976C141.516 126.155 134.217 121.861 127.716 116.096L145.748 94.384C150.041 97.8187 154.641 100.64 159.548 102.848C164.577 104.933 169.3 105.976 173.716 105.976C178.5 105.976 181.935 105.24 184.02 103.768C186.228 102.296 187.332 100.211 187.332 97.512C187.332 94.6907 185.86 92.544 182.916 91.072C180.095 89.6 176.169 87.8827 171.14 85.92L156.236 79.664C149.857 77.088 144.215 73.04 139.308 67.52C134.524 62 132.132 54.9467 132.132 46.36C132.132 39.4907 134.033 33.296 137.836 27.776C141.639 22.1333 146.852 17.656 153.476 14.344C160.223 10.9093 167.951 9.19199 176.66 9.19199C183.529 9.19199 190.46 10.5413 197.452 13.24C204.567 15.816 210.884 19.8027 216.404 25.2L200.58 45.072C196.532 42.2507 192.607 40.104 188.804 38.632C185.124 37.16 181.076 36.424 176.66 36.424C172.857 36.424 169.791 37.0987 167.46 38.448C165.252 39.7973 164.148 41.8213 164.148 44.52C164.148 47.3413 165.743 49.5493 168.932 51.144C172.121 52.616 176.415 54.3947 181.812 56.48L196.348 62.184C203.831 65.128 209.596 69.2373 213.644 74.512C217.692 79.7867 219.716 86.5947 219.716 94.936C219.716 101.683 217.876 108 214.196 113.888C210.639 119.653 205.364 124.315 198.372 127.872C191.38 131.429 182.916 133.208 172.98 133.208ZM238.936 131V11.4H316.216V37.896H270.584V56.664H309.592V83.16H270.584V104.504H318.056V131H238.936ZM341.178 131V11.4H386.442C395.028 11.4 402.94 12.5653 410.178 14.896C417.415 17.104 423.242 21.0293 427.658 26.672C432.074 32.3147 434.282 40.104 434.282 50.04C434.282 58.6267 432.503 65.7413 428.946 71.384C425.388 77.0267 420.727 81.4427 414.962 84.632L440.906 131H405.578L384.97 90.888H372.826V131H341.178ZM372.826 65.864H384.234C396.991 65.864 403.37 60.5893 403.37 50.04C403.37 44.888 401.714 41.3307 398.402 39.368C395.212 37.4053 390.49 36.424 384.234 36.424H372.826V65.864ZM446.354 95.304V73.224H492.722V95.304H446.354ZM565.925 133.208C555.744 133.208 546.298 131 537.589 126.584C529.002 122.045 522.072 115.237 516.797 106.16C511.522 97.0827 508.885 85.736 508.885 72.12C508.885 62.0613 510.418 53.168 513.485 45.44C516.674 37.5893 520.968 30.9653 526.365 25.568C531.885 20.1707 538.08 16.1227 544.949 13.424C551.941 10.6027 559.178 9.19199 566.661 9.19199C574.634 9.19199 581.749 10.7867 588.005 13.976C594.384 17.0427 599.658 20.7227 603.829 25.016L587.269 45.256C584.325 42.68 581.258 40.5947 578.069 39C575.002 37.2827 571.445 36.424 567.397 36.424C562.736 36.424 558.381 37.8347 554.333 40.656C550.408 43.3547 547.218 47.28 544.765 52.432C542.434 57.584 541.269 63.7787 541.269 71.016C541.269 82.1787 543.6 90.8267 548.261 96.96C553.045 102.971 559.301 105.976 567.029 105.976C571.69 105.976 575.8 104.933 579.357 102.848C583.037 100.763 586.165 98.3707 588.741 95.672L605.301 115.544C600.272 121.432 594.384 125.848 587.637 128.792C580.89 131.736 573.653 133.208 565.925 133.208ZM621.85 131V11.4H699.13V37.896H653.498V56.664H692.506V83.16H653.498V104.504H700.97V131H621.85ZM724.092 131V11.4H756.476L782.972 64.76L794.38 91.624H795.116C794.38 85.1227 793.521 77.7627 792.54 69.544C791.558 61.2027 791.068 53.352 791.068 45.992V11.4H821.244V131H788.86L762.364 77.456L750.956 50.776H750.22C750.956 57.5227 751.814 65.0053 752.796 73.224C753.777 81.32 754.268 89.048 754.268 96.408V131H724.092ZM870.533 131V37.896H838.885V11.4H933.829V37.896H902.181V131H870.533ZM951.576 131V11.4H996.84C1005.43 11.4 1013.34 12.5653 1020.58 14.896C1027.81 17.104 1033.64 21.0293 1038.06 26.672C1042.47 32.3147 1044.68 40.104 1044.68 50.04C1044.68 58.6267 1042.9 65.7413 1039.34 71.384C1035.79 77.0267 1031.13 81.4427 1025.36 84.632L1051.3 131H1015.98L995.368 90.888H983.224V131H951.576ZM983.224 65.864H994.632C1007.39 65.864 1013.77 60.5893 1013.77 50.04C1013.77 44.888 1012.11 41.3307 1008.8 39.368C1005.61 37.4053 1000.89 36.424 994.632 36.424H983.224V65.864ZM1177.58 133.208C1167.4 133.208 1157.95 131 1149.25 126.584C1140.66 122.045 1133.73 115.237 1128.45 106.16C1123.18 97.0827 1120.54 85.736 1120.54 72.12C1120.54 62.0613 1122.07 53.168 1125.14 45.44C1128.33 37.5893 1132.62 30.9653 1138.02 25.568C1143.54 20.1707 1149.74 16.1227 1156.61 13.424C1163.6 10.6027 1170.83 9.19199 1178.32 9.19199C1186.29 9.19199 1193.41 10.7867 1199.66 13.976C1206.04 17.0427 1211.31 20.7227 1215.49 25.016L1198.93 45.256C1195.98 42.68 1192.91 40.5947 1189.73 39C1186.66 37.2827 1183.1 36.424 1179.05 36.424C1174.39 36.424 1170.04 37.8347 1165.99 40.656C1162.06 43.3547 1158.87 47.28 1156.42 52.432C1154.09 57.584 1152.93 63.7787 1152.93 71.016C1152.93 82.1787 1155.26 90.8267 1159.92 96.96C1164.7 102.971 1170.96 105.976 1178.69 105.976C1183.35 105.976 1187.46 104.933 1191.01 102.848C1194.69 100.763 1197.82 98.3707 1200.4 95.672L1216.96 115.544C1211.93 121.432 1206.04 125.848 1199.29 128.792C1192.55 131.736 1185.31 133.208 1177.58 133.208Z" fill="#1A196F"/>
<path d="M1084.5 39C1091.96 39 1098 32.9558 1098 25.5C1098 18.0442 1091.96 12 1084.5 12C1077.04 12 1071 18.0442 1071 25.5C1071 32.9558 1077.04 39 1084.5 39Z" fill="#FB3E00"/>
</svg>
