<svg width="508" height="108" viewBox="0 0 508 108" fill="none" xmlns="http://www.w3.org/2000/svg">
<path d="M43.742 107.908C14.804 107.908 0.812001 91.372 0.812001 56.074V2.64999H28.16V59.254C28.16 77.698 32.93 84.376 43.742 84.376C54.554 84.376 59.642 77.698 59.642 59.254V2.64999H86.036V56.074C86.036 91.372 72.68 107.908 43.742 107.908ZM96.8654 106L124.849 52.894L98.4554 2.64999H128.983L135.979 19.504C138.205 24.274 140.431 29.998 143.293 36.676H143.929C146.155 29.998 148.381 24.274 150.289 19.504L156.331 2.64999H185.587L159.193 54.166L187.177 106H156.649L148.381 87.556C145.837 82.15 143.611 76.744 141.067 70.384H140.431C138.205 76.744 135.979 82.15 133.753 87.556L126.121 106H96.8654ZM259.695 107.908C235.686 107.908 224.079 93.598 224.079 78.016C224.079 63.547 232.506 55.279 242.364 49.237C238.389 42.082 236.163 34.927 236.163 28.726C236.163 13.78 247.611 0.74199 266.055 0.74199C282.591 0.74199 293.403 10.282 293.403 25.228C293.403 38.743 283.227 47.17 272.733 54.007C277.98 59.572 284.34 64.819 290.859 69.43C295.629 63.07 299.604 55.438 301.989 46.534H326.793C323.136 58.618 317.73 69.907 309.939 80.401C316.14 83.422 322.182 85.33 327.111 85.966L320.751 107.908C311.688 106.318 302.307 102.82 293.085 97.891C284.022 104.092 272.892 107.908 259.695 107.908ZM258.582 28.726C258.582 31.906 259.536 35.404 261.444 39.061C267.963 35.245 272.733 31.27 272.733 25.228C272.733 20.776 270.666 18.55 266.691 18.55C262.398 18.55 258.582 22.048 258.582 28.726ZM263.193 87.238C266.532 87.238 269.871 86.284 273.369 84.694C266.373 79.129 260.013 73.087 254.607 66.727C251.745 69.748 249.837 72.769 249.837 76.426C249.837 82.786 254.925 87.238 263.193 87.238ZM415.932 107.908C386.994 107.908 373.002 91.372 373.002 56.074V2.64999H400.35V59.254C400.35 77.698 405.12 84.376 415.932 84.376C426.744 84.376 431.832 77.698 431.832 59.254V2.64999H458.226V56.074C458.226 91.372 444.87 107.908 415.932 107.908ZM480.467 106V2.64999H507.815V106H480.467Z" fill="#1A196F"/>
</svg>
