<svg width="188" height="106" viewBox="0 0 188 106" fill="none" xmlns="http://www.w3.org/2000/svg">
<path d="M43.742 105.908C14.804 105.908 0.812001 89.372 0.812001 54.074V0.649994H28.16V57.254C28.16 75.698 32.93 82.376 43.742 82.376C54.554 82.376 59.642 75.698 59.642 57.254V0.649994H86.036V54.074C86.036 89.372 72.68 105.908 43.742 105.908ZM96.8654 104L124.849 50.894L98.4554 0.649994H128.983L135.979 17.504C138.205 22.274 140.431 27.998 143.293 34.676H143.929C146.155 27.998 148.381 22.274 150.289 17.504L156.331 0.649994H185.587L159.193 52.166L187.177 104H156.649L148.381 85.556C145.837 80.15 143.611 74.744 141.067 68.384H140.431C138.205 74.744 135.979 80.15 133.753 85.556L126.121 104H96.8654Z" fill="#1A196F"/>
</svg>
