<svg width="56" height="59" viewBox="0 0 56 59" fill="none" xmlns="http://www.w3.org/2000/svg">
<rect width="56" height="58" transform="translate(0 0.720703)" fill="#00CA3A"/>
<path d="M28 35L26 37M26 37L28 39M26 37H35C35.3186 36.9836 35.6287 36.8912 35.9043 36.7305C36.1799 36.5698 36.4131 36.3456 36.5843 36.0764C36.7556 35.8073 36.86 35.501 36.8888 35.1833C36.9177 34.8656 36.8701 34.5456 36.75 34.25L36.2 33.25M24.5363 29.0001L23.8043 26.2681M23.8043 26.2681L21.0723 27.0001M23.8043 26.2681L19.3045 34.0621C19.1595 34.3461 19.0846 34.6608 19.086 34.9797C19.0873 35.2986 19.1649 35.6126 19.3123 35.8954C19.4597 36.1782 19.6726 36.4217 19.9332 36.6055C20.1938 36.7893 20.4946 36.9081 20.8105 36.9521L21.9515 36.9761M31.4648 29L34.1968 29.732M34.1968 29.732L34.9288 27M34.1968 29.732L29.6966 21.9378C29.523 21.6703 29.288 21.4481 29.011 21.2899C28.7341 21.1316 28.4234 21.0419 28.1047 21.0282C27.7861 21.0145 27.4688 21.0772 27.1793 21.2111C26.8898 21.345 26.6365 21.5461 26.4406 21.7978L25.8496 22.7738" stroke="black" stroke-width="2" stroke-linecap="round" stroke-linejoin="round"/>
</svg>
