<svg width="56" height="59" viewBox="0 0 56 59" fill="none" xmlns="http://www.w3.org/2000/svg">
<g id="Icon">
<rect width="56" height="58" transform="translate(0 0.720703)" fill="#00CA3A"/>
<g id="&#240;&#159;&#166;&#134; icon &#34;droplet&#34;">
<path id="Vector" d="M28 20.7207L33 25.7207C33.9647 26.7053 34.6172 27.9527 34.8758 29.3066C35.1343 30.6606 34.9874 32.0607 34.4534 33.3314C33.9194 34.6022 33.0222 35.687 31.8741 36.4499C30.7261 37.2127 29.3784 37.6197 28 37.6197C26.6216 37.6197 25.2739 37.2127 24.1259 36.4499C22.9778 35.687 22.0806 34.6022 21.5466 33.3314C21.0126 32.0607 20.8657 30.6606 21.1243 29.3066C21.3828 27.9527 22.0353 26.7053 23 25.7207L28 20.7207Z" stroke="#211E73" stroke-width="1.6" stroke-linecap="round" stroke-linejoin="round"/>
</g>
</g>
</svg>
