<svg width="56" height="59" viewBox="0 0 56 59" fill="none" xmlns="http://www.w3.org/2000/svg">
<g id="What&#39;sapp icon">
<path id="Vector" style="mix-blend-mode:multiply" opacity="0.8" d="M27.8315 58.6557C43.2024 58.6557 55.663 46.0934 55.663 30.5969C55.663 15.1004 43.2024 2.53809 27.8315 2.53809C12.4606 2.53809 0 15.1004 0 30.5969C0 46.0934 12.4606 58.6557 27.8315 58.6557Z" fill="url(#paint0_radial_1091_3517)"/>
<path id="Vector_2" d="M39.1895 28.8471V10.2214C39.1895 4.57629 34.6502 0 29.0508 0L10.576 0C4.97661 0 0.437401 4.57629 0.437401 10.2214V28.8471C0.437401 34.4923 4.97661 39.0686 10.576 39.0686H29.0508C34.6502 39.0686 39.1895 34.4923 39.1895 28.8471Z" fill="url(#paint1_linear_1091_3517)"/>
<path id="Vector_3" d="M9.34375 30.5978L10.9606 24.5184C10.0462 22.8482 9.56905 20.991 9.56905 19.0936C9.56905 12.9073 14.5655 7.87012 20.7017 7.87012C26.8378 7.87012 31.8343 12.9073 31.8343 19.0936C31.8343 25.2799 26.8378 30.3172 20.7017 30.3172C18.8595 30.3172 17.0438 29.8495 15.4137 28.9543L9.357 30.5844L9.34375 30.5978ZM15.7052 26.6829L16.0896 26.91C17.4944 27.7518 19.0848 28.1927 20.7017 28.1927C25.6848 28.1927 29.727 24.1042 29.727 19.0936C29.727 14.0831 25.6716 9.99457 20.7017 9.99457C15.7317 9.99457 11.6763 14.0831 11.6763 19.0936C11.6763 20.7505 12.1269 22.3805 13.0016 23.8102L13.2402 24.1977L12.339 27.5915L15.7185 26.6829H15.7052Z" fill="white"/>
<path id="Vector_4" fill-rule="evenodd" clip-rule="evenodd" d="M24.8363 20.6569C24.3725 20.3763 23.7761 20.069 23.2459 20.2962C22.8351 20.4699 22.57 21.1246 22.305 21.4586C22.1724 21.6323 22.0001 21.659 21.7881 21.5655C20.2375 20.9375 19.0447 19.8953 18.1833 18.4523C18.0375 18.2252 18.064 18.0515 18.2363 17.8377C18.5013 17.5304 18.8194 17.183 18.8857 16.7688C18.9519 16.3546 18.7664 15.8736 18.5941 15.4995C18.3821 15.0318 18.1302 14.3504 17.6664 14.0832C17.229 13.8426 16.6724 13.9763 16.2881 14.2969C15.6254 14.8447 15.3073 15.6865 15.3206 16.5416C15.3206 16.7821 15.3471 17.0226 15.4134 17.2498C15.5459 17.811 15.7977 18.3321 16.0893 18.8264C16.3013 19.2005 16.5399 19.5613 16.7917 19.9087C17.6266 21.0444 18.6604 22.0331 19.8531 22.7814C20.4495 23.1555 21.0989 23.4762 21.7616 23.7033C22.5038 23.9572 23.1797 24.211 23.9881 24.0507C24.8363 23.8904 25.6713 23.3559 26.0026 22.5409C26.1086 22.3004 26.1484 22.0198 26.0954 21.7659C25.9761 21.2315 25.2604 20.9242 24.8363 20.6569Z" fill="white"/>
</g>
<defs>
<radialGradient id="paint0_radial_1091_3517" cx="0" cy="0" r="1" gradientUnits="userSpaceOnUse" gradientTransform="translate(27.8315 30.5969) scale(27.8315 28.0588)">
<stop stop-color="#000056"/>
<stop offset="0.39" stop-color="#7373A2" stop-opacity="0.55"/>
<stop offset="0.78" stop-color="#D8D8E5" stop-opacity="0.15"/>
<stop offset="1" stop-color="white" stop-opacity="0"/>
</radialGradient>
<linearGradient id="paint1_linear_1091_3517" x1="36.2208" y1="2.99294" x2="3.15252" y2="35.7933" gradientUnits="userSpaceOnUse">
<stop stop-color="#60FC7C"/>
<stop offset="1" stop-color="#4AB161"/>
</linearGradient>
</defs>
</svg>
